<svg width="245" height="57" viewBox="0 0 245 57" fill="none" xmlns="http://www.w3.org/2000/svg">
<g clip-path="url(#clip0_327_590)">
<path d="M49.785 27.3V4.61999H59.977V8.03599H54.797V13.664H58.745V17.136H54.797V23.912H60.033V27.3H49.785ZM62.3084 27.3V4.61999H65.8364L70.4844 15.54V4.61999H74.6284V27.3H71.2404L66.5924 15.54V27.3H62.3084ZM78.0037 27.3V4.61999H88.1957V8.03599H83.0157V13.664H86.9637V17.136H83.0157V23.912H88.2517V27.3H78.0037ZM90.5272 27.3V4.61999H96.7712C98.3018 4.61999 99.6272 4.78799 100.747 5.12399C101.867 5.45999 102.735 6.06665 103.351 6.94399C103.986 7.80265 104.303 9.02532 104.303 10.612C104.303 11.5453 104.229 12.376 104.079 13.104C103.93 13.832 103.65 14.4667 103.239 15.008C102.847 15.5307 102.278 15.9693 101.531 16.324L104.639 27.3H99.4592L96.9672 17.136H95.5392V27.3H90.5272ZM95.5392 14.252H96.9392C97.6485 14.252 98.1992 14.1307 98.5912 13.888C98.9832 13.6267 99.2538 13.2627 99.4032 12.796C99.5712 12.3107 99.6552 11.732 99.6552 11.06C99.6552 10.0893 99.4778 9.33332 99.1232 8.79199C98.7685 8.25065 98.1152 7.97999 97.1632 7.97999H95.5392V14.252ZM113.005 27.636C111.437 27.636 110.196 27.3093 109.281 26.656C108.385 26.0027 107.741 25.088 107.349 23.912C106.976 22.7173 106.789 21.3453 106.789 19.796V12.18C106.789 10.5747 106.995 9.18399 107.405 8.00799C107.816 6.83199 108.516 5.92665 109.505 5.29199C110.513 4.63865 111.876 4.31199 113.593 4.31199C115.273 4.31199 116.589 4.59199 117.541 5.15199C118.512 5.71199 119.203 6.48665 119.613 7.47599C120.024 8.46532 120.229 9.62265 120.229 10.948V12.404H115.329V10.556C115.329 10.0707 115.292 9.62265 115.217 9.21199C115.161 8.80132 115.012 8.47465 114.769 8.23199C114.545 7.97065 114.172 7.83999 113.649 7.83999C113.108 7.83999 112.716 7.98932 112.473 8.28799C112.231 8.56799 112.072 8.92265 111.997 9.35199C111.941 9.78132 111.913 10.2293 111.913 10.696V21.196C111.913 21.7 111.96 22.176 112.053 22.624C112.165 23.0533 112.352 23.408 112.613 23.688C112.893 23.9493 113.285 24.08 113.789 24.08C114.312 24.08 114.713 23.94 114.993 23.66C115.273 23.38 115.469 23.016 115.581 22.568C115.693 22.12 115.749 21.644 115.749 21.14V18.48H113.705V15.54H120.257V27.3H116.953L116.673 25.424C116.375 26.0587 115.936 26.5907 115.357 27.02C114.779 27.4307 113.995 27.636 113.005 27.636ZM129.89 27.636C128.192 27.636 126.848 27.3373 125.858 26.74C124.869 26.1427 124.16 25.284 123.73 24.164C123.301 23.044 123.086 21.7093 123.086 20.16V11.732C123.086 10.164 123.301 8.82932 123.73 7.72799C124.16 6.62665 124.869 5.78665 125.858 5.20799C126.848 4.61065 128.192 4.31199 129.89 4.31199C131.608 4.31199 132.961 4.61065 133.95 5.20799C134.958 5.78665 135.677 6.62665 136.106 7.72799C136.536 8.82932 136.75 10.164 136.75 11.732V20.16C136.75 21.7093 136.536 23.044 136.106 24.164C135.677 25.284 134.958 26.1427 133.95 26.74C132.961 27.3373 131.608 27.636 129.89 27.636ZM129.89 24.08C130.413 24.08 130.796 23.9493 131.038 23.688C131.281 23.4267 131.44 23.0907 131.514 22.68C131.589 22.2693 131.626 21.8493 131.626 21.42V10.5C131.626 10.052 131.589 9.63199 131.514 9.23999C131.44 8.82932 131.281 8.49332 131.038 8.23199C130.796 7.97065 130.413 7.83999 129.89 7.83999C129.405 7.83999 129.041 7.97065 128.798 8.23199C128.556 8.49332 128.397 8.82932 128.322 9.23999C128.248 9.63199 128.21 10.052 128.21 10.5V21.42C128.21 21.8493 128.238 22.2693 128.294 22.68C128.369 23.0907 128.518 23.4267 128.742 23.688C128.985 23.9493 129.368 24.08 129.89 24.08ZM141.626 27.3V8.34399H138.21V4.61999H150.054V8.34399H146.666V27.3H141.626ZM152.051 27.3V4.61999H158.295C159.825 4.61999 161.151 4.78799 162.271 5.12399C163.391 5.45999 164.259 6.06665 164.875 6.94399C165.509 7.80265 165.827 9.02532 165.827 10.612C165.827 11.5453 165.752 12.376 165.603 13.104C165.453 13.832 165.173 14.4667 164.763 15.008C164.371 15.5307 163.801 15.9693 163.055 16.324L166.163 27.3H160.983L158.491 17.136H157.063V27.3H152.051ZM157.063 14.252H158.463C159.172 14.252 159.723 14.1307 160.115 13.888C160.507 13.6267 160.777 13.2627 160.927 12.796C161.095 12.3107 161.179 11.732 161.179 11.06C161.179 10.0893 161.001 9.33332 160.647 8.79199C160.292 8.25065 159.639 7.97999 158.687 7.97999H157.063V14.252ZM167.748 27.3L172.032 4.61999H177.744L181.972 27.3H177.352L176.596 22.512H173.264L172.48 27.3H167.748ZM173.712 19.516H176.12L174.916 10.668L173.712 19.516ZM184.262 27.3V4.61999H187.79L192.438 15.54V4.61999H196.582V27.3H193.194L188.546 15.54V27.3H184.262ZM205.977 27.636C204.558 27.636 203.373 27.384 202.421 26.88C201.469 26.376 200.75 25.6013 200.265 24.556C199.78 23.492 199.509 22.12 199.453 20.44L203.737 19.796C203.756 20.7667 203.84 21.5507 203.989 22.148C204.157 22.7453 204.381 23.1747 204.661 23.436C204.96 23.6973 205.314 23.828 205.725 23.828C206.248 23.828 206.584 23.6507 206.733 23.296C206.901 22.9413 206.985 22.568 206.985 22.176C206.985 21.2427 206.761 20.4587 206.313 19.824C205.865 19.1707 205.258 18.5173 204.493 17.864L202.533 16.156C201.674 15.428 200.946 14.6067 200.349 13.692C199.77 12.7587 199.481 11.6107 199.481 10.248C199.481 8.32532 200.05 6.85999 201.189 5.85199C202.328 4.82532 203.877 4.31199 205.837 4.31199C207.05 4.31199 208.021 4.51732 208.749 4.92799C209.496 5.33865 210.056 5.87999 210.429 6.55199C210.821 7.20532 211.082 7.90532 211.213 8.65199C211.362 9.37999 211.446 10.08 211.465 10.752L207.153 11.284C207.134 10.612 207.088 10.0333 207.013 9.54799C206.957 9.04399 206.826 8.66132 206.621 8.39999C206.416 8.11999 206.098 7.97999 205.669 7.97999C205.202 7.97999 204.857 8.17599 204.633 8.56799C204.428 8.95999 204.325 9.35199 204.325 9.74399C204.325 10.584 204.521 11.2747 204.913 11.816C205.324 12.3387 205.856 12.8893 206.509 13.468L208.385 15.12C209.374 15.96 210.205 16.912 210.877 17.976C211.568 19.04 211.913 20.356 211.913 21.924C211.913 22.988 211.67 23.9587 211.185 24.836C210.7 25.6947 210.009 26.376 209.113 26.88C208.236 27.384 207.19 27.636 205.977 27.636Z" fill="#E9D758"/>
<path d="M52.3213 44.0715C51.7695 44.0715 51.269 43.9787 50.8198 43.7932C50.3755 43.6027 49.9922 43.3366 49.6699 42.9948C49.3525 42.653 49.1084 42.2477 48.9375 41.779C48.7666 41.3102 48.6812 40.7975 48.6812 40.2409V39.9333C48.6812 39.2888 48.7764 38.715 48.9668 38.2121C49.1572 37.7043 49.416 37.2746 49.7432 36.923C50.0703 36.5715 50.4414 36.3054 50.8564 36.1247C51.2715 35.944 51.7012 35.8537 52.1455 35.8537C52.7119 35.8537 53.2002 35.9514 53.6104 36.1467C54.0254 36.342 54.3647 36.6154 54.6284 36.967C54.8921 37.3137 55.0874 37.7238 55.2144 38.1974C55.3413 38.6662 55.4048 39.1789 55.4048 39.7355V40.3434H49.4868V39.2375H54.0498V39.1349C54.0303 38.7834 53.957 38.4416 53.8301 38.1096C53.708 37.7775 53.5127 37.5041 53.2441 37.2892C52.9756 37.0744 52.6094 36.967 52.1455 36.967C51.8379 36.967 51.5547 37.0329 51.2959 37.1647C51.0371 37.2917 50.8149 37.4821 50.6294 37.736C50.4438 37.9899 50.2998 38.3 50.1973 38.6662C50.0947 39.0324 50.0435 39.4548 50.0435 39.9333V40.2409C50.0435 40.6169 50.0947 40.9709 50.1973 41.3029C50.3047 41.6301 50.4585 41.9182 50.6587 42.1672C50.8638 42.4162 51.1104 42.6115 51.3984 42.7531C51.6914 42.8947 52.0234 42.9655 52.3945 42.9655C52.873 42.9655 53.2783 42.8679 53.6104 42.6725C53.9424 42.4772 54.2329 42.216 54.4819 41.8889L55.3022 42.5407C55.1313 42.7995 54.9141 43.0461 54.6504 43.2805C54.3867 43.5148 54.062 43.7053 53.6763 43.8517C53.2954 43.9982 52.8438 44.0715 52.3213 44.0715ZM58.459 32.675V43.925H57.0967V32.675H58.459ZM63.9229 44.0715C63.3711 44.0715 62.8706 43.9787 62.4214 43.7932C61.9771 43.6027 61.5938 43.3366 61.2715 42.9948C60.9541 42.653 60.71 42.2477 60.5391 41.779C60.3682 41.3102 60.2827 40.7975 60.2827 40.2409V39.9333C60.2827 39.2888 60.3779 38.715 60.5684 38.2121C60.7588 37.7043 61.0176 37.2746 61.3447 36.923C61.6719 36.5715 62.043 36.3054 62.458 36.1247C62.873 35.944 63.3027 35.8537 63.7471 35.8537C64.3135 35.8537 64.8018 35.9514 65.2119 36.1467C65.627 36.342 65.9663 36.6154 66.23 36.967C66.4937 37.3137 66.689 37.7238 66.8159 38.1974C66.9429 38.6662 67.0063 39.1789 67.0063 39.7355V40.3434H61.0884V39.2375H65.6514V39.1349C65.6318 38.7834 65.5586 38.4416 65.4316 38.1096C65.3096 37.7775 65.1143 37.5041 64.8457 37.2892C64.5771 37.0744 64.2109 36.967 63.7471 36.967C63.4395 36.967 63.1562 37.0329 62.8975 37.1647C62.6387 37.2917 62.4165 37.4821 62.231 37.736C62.0454 37.9899 61.9014 38.3 61.7988 38.6662C61.6963 39.0324 61.645 39.4548 61.645 39.9333V40.2409C61.645 40.6169 61.6963 40.9709 61.7988 41.3029C61.9062 41.6301 62.0601 41.9182 62.2603 42.1672C62.4653 42.4162 62.7119 42.6115 63 42.7531C63.293 42.8947 63.625 42.9655 63.9961 42.9655C64.4746 42.9655 64.8799 42.8679 65.2119 42.6725C65.5439 42.4772 65.8345 42.216 66.0835 41.8889L66.9038 42.5407C66.7329 42.7995 66.5156 43.0461 66.252 43.2805C65.9883 43.5148 65.6636 43.7053 65.2778 43.8517C64.897 43.9982 64.4453 44.0715 63.9229 44.0715ZM71.7598 42.9582C72.082 42.9582 72.3799 42.8923 72.6533 42.7604C72.9268 42.6286 73.1514 42.4479 73.3271 42.2184C73.5029 41.9841 73.603 41.718 73.6274 41.4201H74.9165C74.8921 41.8889 74.7334 42.3259 74.4404 42.7311C74.1523 43.1315 73.7739 43.4562 73.3052 43.7053C72.8364 43.9494 72.3213 44.0715 71.7598 44.0715C71.1641 44.0715 70.644 43.9665 70.1997 43.7565C69.7603 43.5466 69.394 43.2585 69.1011 42.8923C68.813 42.5261 68.5957 42.1061 68.4492 41.6325C68.3076 41.154 68.2368 40.6486 68.2368 40.1164V39.8088C68.2368 39.2766 68.3076 38.7736 68.4492 38.3C68.5957 37.8215 68.813 37.3991 69.1011 37.0329C69.394 36.6667 69.7603 36.3786 70.1997 36.1686C70.644 35.9587 71.1641 35.8537 71.7598 35.8537C72.3799 35.8537 72.9219 35.9807 73.3857 36.2346C73.8496 36.4836 74.2134 36.8254 74.4771 37.2599C74.7456 37.6896 74.8921 38.1779 74.9165 38.7248H73.6274C73.603 38.3976 73.5103 38.1022 73.3491 37.8386C73.1929 37.5749 72.978 37.3649 72.7046 37.2087C72.436 37.0475 72.1211 36.967 71.7598 36.967C71.3447 36.967 70.9956 37.05 70.7124 37.216C70.4341 37.3771 70.2119 37.5969 70.0459 37.8752C69.8848 38.1486 69.7676 38.4538 69.6943 38.7907C69.626 39.1227 69.5918 39.4621 69.5918 39.8088V40.1164C69.5918 40.4631 69.626 40.8049 69.6943 41.1418C69.7627 41.4787 69.8774 41.7839 70.0386 42.0573C70.2046 42.3307 70.4268 42.5505 70.7051 42.7165C70.9883 42.8776 71.3398 42.9582 71.7598 42.9582ZM79.7578 36.0002V37.0402H75.4731V36.0002H79.7578ZM76.9233 34.0739H78.2783V41.9621C78.2783 42.2307 78.3198 42.4333 78.4028 42.57C78.4858 42.7067 78.5933 42.7971 78.7251 42.841C78.8569 42.8849 78.9985 42.9069 79.1499 42.9069C79.2622 42.9069 79.3794 42.8972 79.5015 42.8776C79.6284 42.8532 79.7236 42.8337 79.7871 42.819L79.7944 43.925C79.687 43.9592 79.5454 43.9909 79.3696 44.0202C79.1987 44.0544 78.9912 44.0715 78.7471 44.0715C78.415 44.0715 78.1099 44.0056 77.8315 43.8737C77.5532 43.7419 77.3311 43.5222 77.165 43.2145C77.0039 42.902 76.9233 42.4821 76.9233 41.9548V34.0739ZM82.7021 37.2453V43.925H81.3472V36.0002H82.6655L82.7021 37.2453ZM85.1777 35.9562L85.1704 37.216C85.0581 37.1916 84.9507 37.1769 84.8481 37.1721C84.7505 37.1623 84.6382 37.1574 84.5112 37.1574C84.1987 37.1574 83.9229 37.2062 83.6836 37.3039C83.4443 37.4016 83.2417 37.5383 83.0757 37.7141C82.9097 37.8898 82.7778 38.0998 82.6802 38.3439C82.5874 38.5832 82.5264 38.8469 82.4971 39.1349L82.1162 39.3547C82.1162 38.8762 82.1626 38.4269 82.2554 38.007C82.353 37.5871 82.502 37.216 82.7021 36.8937C82.9023 36.5666 83.1562 36.3127 83.4639 36.132C83.7764 35.9465 84.1475 35.8537 84.5771 35.8537C84.6748 35.8537 84.7871 35.8659 84.9141 35.8903C85.041 35.9099 85.1289 35.9318 85.1777 35.9562ZM85.9248 40.0505V39.882C85.9248 39.3107 86.0078 38.7809 86.1738 38.2927C86.3398 37.7995 86.5791 37.3723 86.8916 37.0109C87.2041 36.6447 87.5825 36.3615 88.0269 36.1613C88.4712 35.9562 88.9692 35.8537 89.521 35.8537C90.0776 35.8537 90.5781 35.9562 91.0225 36.1613C91.4717 36.3615 91.8525 36.6447 92.165 37.0109C92.4824 37.3723 92.7241 37.7995 92.8901 38.2927C93.0562 38.7809 93.1392 39.3107 93.1392 39.882V40.0505C93.1392 40.6218 93.0562 41.1516 92.8901 41.6398C92.7241 42.1281 92.4824 42.5554 92.165 42.9216C91.8525 43.2829 91.4741 43.5661 91.0298 43.7712C90.5903 43.9714 90.0923 44.0715 89.5356 44.0715C88.979 44.0715 88.4785 43.9714 88.0342 43.7712C87.5898 43.5661 87.209 43.2829 86.8916 42.9216C86.5791 42.5554 86.3398 42.1281 86.1738 41.6398C86.0078 41.1516 85.9248 40.6218 85.9248 40.0505ZM87.2798 39.882V40.0505C87.2798 40.446 87.3262 40.8195 87.4189 41.1711C87.5117 41.5178 87.6509 41.8254 87.8364 42.0939C88.0269 42.3625 88.2637 42.5749 88.5469 42.7311C88.8301 42.8825 89.1597 42.9582 89.5356 42.9582C89.9067 42.9582 90.2314 42.8825 90.5098 42.7311C90.793 42.5749 91.0273 42.3625 91.2129 42.0939C91.3984 41.8254 91.5376 41.5178 91.6304 41.1711C91.728 40.8195 91.7769 40.446 91.7769 40.0505V39.882C91.7769 39.4914 91.728 39.1227 91.6304 38.7761C91.5376 38.4245 91.396 38.1144 91.2056 37.8459C91.02 37.5724 90.7856 37.3576 90.5024 37.2014C90.2241 37.0451 89.897 36.967 89.521 36.967C89.1499 36.967 88.8228 37.0451 88.5396 37.2014C88.2612 37.3576 88.0269 37.5724 87.8364 37.8459C87.6509 38.1144 87.5117 38.4245 87.4189 38.7761C87.3262 39.1227 87.2798 39.4914 87.2798 39.882ZM98.1562 36.0002V37.0402H93.8716V36.0002H98.1562ZM95.3218 34.0739H96.6768V41.9621C96.6768 42.2307 96.7183 42.4333 96.8013 42.57C96.8843 42.7067 96.9917 42.7971 97.1235 42.841C97.2554 42.8849 97.397 42.9069 97.5483 42.9069C97.6606 42.9069 97.7778 42.8972 97.8999 42.8776C98.0269 42.8532 98.1221 42.8337 98.1855 42.819L98.1929 43.925C98.0854 43.9592 97.9438 43.9909 97.7681 44.0202C97.5972 44.0544 97.3896 44.0715 97.1455 44.0715C96.8135 44.0715 96.5083 44.0056 96.23 43.8737C95.9517 43.7419 95.7295 43.5222 95.5635 43.2145C95.4023 42.902 95.3218 42.4821 95.3218 41.9548V34.0739ZM103.034 44.0715C102.482 44.0715 101.982 43.9787 101.533 43.7932C101.088 43.6027 100.705 43.3366 100.383 42.9948C100.065 42.653 99.8213 42.2477 99.6504 41.779C99.4795 41.3102 99.394 40.7975 99.394 40.2409V39.9333C99.394 39.2888 99.4893 38.715 99.6797 38.2121C99.8701 37.7043 100.129 37.2746 100.456 36.923C100.783 36.5715 101.154 36.3054 101.569 36.1247C101.984 35.944 102.414 35.8537 102.858 35.8537C103.425 35.8537 103.913 35.9514 104.323 36.1467C104.738 36.342 105.078 36.6154 105.341 36.967C105.605 37.3137 105.8 37.7238 105.927 38.1974C106.054 38.6662 106.118 39.1789 106.118 39.7355V40.3434H100.2V39.2375H104.763V39.1349C104.743 38.7834 104.67 38.4416 104.543 38.1096C104.421 37.7775 104.226 37.5041 103.957 37.2892C103.688 37.0744 103.322 36.967 102.858 36.967C102.551 36.967 102.268 37.0329 102.009 37.1647C101.75 37.2917 101.528 37.4821 101.342 37.736C101.157 37.9899 101.013 38.3 100.91 38.6662C100.808 39.0324 100.756 39.4548 100.756 39.9333V40.2409C100.756 40.6169 100.808 40.9709 100.91 41.3029C101.018 41.6301 101.171 41.9182 101.372 42.1672C101.577 42.4162 101.823 42.6115 102.111 42.7531C102.404 42.8947 102.736 42.9655 103.107 42.9655C103.586 42.9655 103.991 42.8679 104.323 42.6725C104.655 42.4772 104.946 42.216 105.195 41.8889L106.015 42.5407C105.844 42.7995 105.627 43.0461 105.363 43.2805C105.1 43.5148 104.775 43.7053 104.389 43.8517C104.008 43.9982 103.557 44.0715 103.034 44.0715ZM110.871 42.9582C111.193 42.9582 111.491 42.8923 111.765 42.7604C112.038 42.6286 112.263 42.4479 112.438 42.2184C112.614 41.9841 112.714 41.718 112.739 41.4201H114.028C114.003 41.8889 113.845 42.3259 113.552 42.7311C113.264 43.1315 112.885 43.4562 112.417 43.7053C111.948 43.9494 111.433 44.0715 110.871 44.0715C110.275 44.0715 109.755 43.9665 109.311 43.7565C108.872 43.5466 108.505 43.2585 108.212 42.8923C107.924 42.5261 107.707 42.1061 107.561 41.6325C107.419 41.154 107.348 40.6486 107.348 40.1164V39.8088C107.348 39.2766 107.419 38.7736 107.561 38.3C107.707 37.8215 107.924 37.3991 108.212 37.0329C108.505 36.6667 108.872 36.3786 109.311 36.1686C109.755 35.9587 110.275 35.8537 110.871 35.8537C111.491 35.8537 112.033 35.9807 112.497 36.2346C112.961 36.4836 113.325 36.8254 113.588 37.2599C113.857 37.6896 114.003 38.1779 114.028 38.7248H112.739C112.714 38.3976 112.622 38.1022 112.46 37.8386C112.304 37.5749 112.089 37.3649 111.816 37.2087C111.547 37.0475 111.232 36.967 110.871 36.967C110.456 36.967 110.107 37.05 109.824 37.216C109.545 37.3771 109.323 37.5969 109.157 37.8752C108.996 38.1486 108.879 38.4538 108.806 38.7907C108.737 39.1227 108.703 39.4621 108.703 39.8088V40.1164C108.703 40.4631 108.737 40.8049 108.806 41.1418C108.874 41.4787 108.989 41.7839 109.15 42.0573C109.316 42.3307 109.538 42.5505 109.816 42.7165C110.1 42.8776 110.451 42.9582 110.871 42.9582ZM116.906 32.675V43.925H115.551V32.675H116.906ZM116.584 39.6623L116.02 39.6403C116.025 39.0983 116.105 38.5978 116.262 38.1389C116.418 37.675 116.638 37.2722 116.921 36.9304C117.204 36.5886 117.541 36.3249 117.932 36.1393C118.327 35.9489 118.764 35.8537 119.243 35.8537C119.633 35.8537 119.985 35.9074 120.297 36.0148C120.61 36.1174 120.876 36.2834 121.096 36.5129C121.32 36.7424 121.491 37.0402 121.608 37.4064C121.726 37.7678 121.784 38.2097 121.784 38.7321V43.925H120.422V38.7175C120.422 38.3024 120.361 37.9704 120.239 37.7214C120.117 37.4675 119.938 37.2844 119.704 37.1721C119.47 37.0549 119.182 36.9963 118.84 36.9963C118.503 36.9963 118.195 37.0671 117.917 37.2087C117.644 37.3503 117.407 37.5456 117.207 37.7946C117.011 38.0436 116.857 38.3293 116.745 38.6516C116.638 38.9689 116.584 39.3058 116.584 39.6623ZM125.168 37.6921V43.925H123.813V36.0002H125.095L125.168 37.6921ZM124.846 39.6623L124.282 39.6403C124.287 39.0983 124.367 38.5978 124.523 38.1389C124.68 37.675 124.899 37.2722 125.183 36.9304C125.466 36.5886 125.803 36.3249 126.193 36.1393C126.589 35.9489 127.026 35.8537 127.504 35.8537C127.895 35.8537 128.247 35.9074 128.559 36.0148C128.872 36.1174 129.138 36.2834 129.357 36.5129C129.582 36.7424 129.753 37.0402 129.87 37.4064C129.987 37.7678 130.046 38.2097 130.046 38.7321V43.925H128.684V38.7175C128.684 38.3024 128.623 37.9704 128.5 37.7214C128.378 37.4675 128.2 37.2844 127.966 37.1721C127.731 37.0549 127.443 36.9963 127.102 36.9963C126.765 36.9963 126.457 37.0671 126.179 37.2087C125.905 37.3503 125.668 37.5456 125.468 37.7946C125.273 38.0436 125.119 38.3293 125.007 38.6516C124.899 38.9689 124.846 39.3058 124.846 39.6623ZM133.576 36.0002V43.925H132.214V36.0002H133.576ZM132.111 33.8981C132.111 33.6784 132.177 33.4929 132.309 33.3415C132.446 33.1901 132.646 33.1144 132.91 33.1144C133.168 33.1144 133.366 33.1901 133.503 33.3415C133.645 33.4929 133.715 33.6784 133.715 33.8981C133.715 34.1081 133.645 34.2888 133.503 34.4401C133.366 34.5866 133.168 34.6599 132.91 34.6599C132.646 34.6599 132.446 34.5866 132.309 34.4401C132.177 34.2888 132.111 34.1081 132.111 33.8981ZM138.923 42.9582C139.245 42.9582 139.543 42.8923 139.816 42.7604C140.09 42.6286 140.314 42.4479 140.49 42.2184C140.666 41.9841 140.766 41.718 140.791 41.4201H142.08C142.055 41.8889 141.896 42.3259 141.604 42.7311C141.315 43.1315 140.937 43.4562 140.468 43.7053C140 43.9494 139.484 44.0715 138.923 44.0715C138.327 44.0715 137.807 43.9665 137.363 43.7565C136.923 43.5466 136.557 43.2585 136.264 42.8923C135.976 42.5261 135.759 42.1061 135.612 41.6325C135.471 41.154 135.4 40.6486 135.4 40.1164V39.8088C135.4 39.2766 135.471 38.7736 135.612 38.3C135.759 37.8215 135.976 37.3991 136.264 37.0329C136.557 36.6667 136.923 36.3786 137.363 36.1686C137.807 35.9587 138.327 35.8537 138.923 35.8537C139.543 35.8537 140.085 35.9807 140.549 36.2346C141.013 36.4836 141.376 36.8254 141.64 37.2599C141.909 37.6896 142.055 38.1779 142.08 38.7248H140.791C140.766 38.3976 140.673 38.1022 140.512 37.8386C140.356 37.5749 140.141 37.3649 139.868 37.2087C139.599 37.0475 139.284 36.967 138.923 36.967C138.508 36.967 138.159 37.05 137.875 37.216C137.597 37.3771 137.375 37.5969 137.209 37.8752C137.048 38.1486 136.931 38.4538 136.857 38.7907C136.789 39.1227 136.755 39.4621 136.755 39.8088V40.1164C136.755 40.4631 136.789 40.8049 136.857 41.1418C136.926 41.4787 137.041 41.7839 137.202 42.0573C137.368 42.3307 137.59 42.5505 137.868 42.7165C138.151 42.8776 138.503 42.9582 138.923 42.9582ZM148.276 42.57V38.4904C148.276 38.1779 148.212 37.9069 148.085 37.6774C147.963 37.4431 147.778 37.2624 147.529 37.1354C147.28 37.0085 146.972 36.945 146.606 36.945C146.264 36.945 145.964 37.0036 145.705 37.1208C145.451 37.238 145.251 37.3918 145.104 37.5822C144.963 37.7726 144.892 37.9777 144.892 38.1974H143.537C143.537 37.9142 143.61 37.6335 143.757 37.3552C143.903 37.0768 144.113 36.8254 144.387 36.6008C144.665 36.3713 144.997 36.1906 145.383 36.0588C145.773 35.9221 146.208 35.8537 146.687 35.8537C147.263 35.8537 147.771 35.9514 148.21 36.1467C148.654 36.342 149.001 36.6374 149.25 37.0329C149.504 37.4235 149.631 37.9142 149.631 38.5051V42.1965C149.631 42.4601 149.653 42.7409 149.697 43.0388C149.746 43.3366 149.816 43.593 149.909 43.8078V43.925H148.496C148.427 43.7687 148.374 43.5612 148.334 43.3024C148.295 43.0388 148.276 42.7946 148.276 42.57ZM148.51 39.1203L148.525 40.0724H147.155C146.77 40.0724 146.425 40.1042 146.123 40.1677C145.82 40.2263 145.566 40.3166 145.361 40.4387C145.156 40.5607 145 40.7145 144.892 40.9001C144.785 41.0807 144.731 41.2932 144.731 41.5373C144.731 41.7863 144.787 42.0134 144.899 42.2184C145.012 42.4235 145.18 42.5871 145.405 42.7092C145.634 42.8264 145.915 42.8849 146.247 42.8849C146.662 42.8849 147.028 42.7971 147.346 42.6213C147.663 42.4455 147.915 42.2307 148.1 41.9767C148.291 41.7228 148.393 41.4763 148.408 41.237L148.986 41.8889C148.952 42.0939 148.859 42.321 148.708 42.57C148.557 42.819 148.354 43.0583 148.1 43.2878C147.851 43.5124 147.553 43.7004 147.207 43.8517C146.865 43.9982 146.479 44.0715 146.049 44.0715C145.512 44.0715 145.041 43.9665 144.636 43.7565C144.235 43.5466 143.923 43.2658 143.698 42.9142C143.479 42.5578 143.369 42.1599 143.369 41.7204C143.369 41.2956 143.452 40.9221 143.618 40.5998C143.784 40.2726 144.023 40.0016 144.335 39.7868C144.648 39.5671 145.024 39.4011 145.463 39.2888C145.903 39.1765 146.394 39.1203 146.936 39.1203H148.51ZM153.234 32.675V43.925H151.872V32.675H153.234ZM162.302 42.9582C162.624 42.9582 162.922 42.8923 163.195 42.7604C163.469 42.6286 163.693 42.4479 163.869 42.2184C164.045 41.9841 164.145 41.718 164.169 41.4201H165.458C165.434 41.8889 165.275 42.3259 164.982 42.7311C164.694 43.1315 164.316 43.4562 163.847 43.7053C163.378 43.9494 162.863 44.0715 162.302 44.0715C161.706 44.0715 161.186 43.9665 160.742 43.7565C160.302 43.5466 159.936 43.2585 159.643 42.8923C159.355 42.5261 159.138 42.1061 158.991 41.6325C158.85 41.154 158.779 40.6486 158.779 40.1164V39.8088C158.779 39.2766 158.85 38.7736 158.991 38.3C159.138 37.8215 159.355 37.3991 159.643 37.0329C159.936 36.6667 160.302 36.3786 160.742 36.1686C161.186 35.9587 161.706 35.8537 162.302 35.8537C162.922 35.8537 163.464 35.9807 163.928 36.2346C164.392 36.4836 164.755 36.8254 165.019 37.2599C165.288 37.6896 165.434 38.1779 165.458 38.7248H164.169C164.145 38.3976 164.052 38.1022 163.891 37.8386C163.735 37.5749 163.52 37.3649 163.247 37.2087C162.978 37.0475 162.663 36.967 162.302 36.967C161.887 36.967 161.538 37.05 161.254 37.216C160.976 37.3771 160.754 37.5969 160.588 37.8752C160.427 38.1486 160.31 38.4538 160.236 38.7907C160.168 39.1227 160.134 39.4621 160.134 39.8088V40.1164C160.134 40.4631 160.168 40.8049 160.236 41.1418C160.305 41.4787 160.419 41.7839 160.581 42.0573C160.747 42.3307 160.969 42.5505 161.247 42.7165C161.53 42.8776 161.882 42.9582 162.302 42.9582ZM166.623 40.0505V39.882C166.623 39.3107 166.706 38.7809 166.872 38.2927C167.038 37.7995 167.277 37.3723 167.59 37.0109C167.902 36.6447 168.281 36.3615 168.725 36.1613C169.169 35.9562 169.667 35.8537 170.219 35.8537C170.776 35.8537 171.276 35.9562 171.721 36.1613C172.17 36.3615 172.551 36.6447 172.863 37.0109C173.181 37.3723 173.422 37.7995 173.588 38.2927C173.754 38.7809 173.837 39.3107 173.837 39.882V40.0505C173.837 40.6218 173.754 41.1516 173.588 41.6398C173.422 42.1281 173.181 42.5554 172.863 42.9216C172.551 43.2829 172.172 43.5661 171.728 43.7712C171.289 43.9714 170.791 44.0715 170.234 44.0715C169.677 44.0715 169.177 43.9714 168.732 43.7712C168.288 43.5661 167.907 43.2829 167.59 42.9216C167.277 42.5554 167.038 42.1281 166.872 41.6398C166.706 41.1516 166.623 40.6218 166.623 40.0505ZM167.978 39.882V40.0505C167.978 40.446 168.024 40.8195 168.117 41.1711C168.21 41.5178 168.349 41.8254 168.535 42.0939C168.725 42.3625 168.962 42.5749 169.245 42.7311C169.528 42.8825 169.858 42.9582 170.234 42.9582C170.605 42.9582 170.93 42.8825 171.208 42.7311C171.491 42.5749 171.726 42.3625 171.911 42.0939C172.097 41.8254 172.236 41.5178 172.329 41.1711C172.426 40.8195 172.475 40.446 172.475 40.0505V39.882C172.475 39.4914 172.426 39.1227 172.329 38.7761C172.236 38.4245 172.094 38.1144 171.904 37.8459C171.718 37.5724 171.484 37.3576 171.201 37.2014C170.922 37.0451 170.595 36.967 170.219 36.967C169.848 36.967 169.521 37.0451 169.238 37.2014C168.959 37.3576 168.725 37.5724 168.535 37.8459C168.349 38.1144 168.21 38.4245 168.117 38.7761C168.024 39.1227 167.978 39.4914 167.978 39.882ZM176.884 37.5749V43.925H175.522V36.0002H176.811L176.884 37.5749ZM176.606 39.6623L175.976 39.6403C175.981 39.0983 176.052 38.5978 176.188 38.1389C176.325 37.675 176.528 37.2722 176.796 36.9304C177.065 36.5886 177.399 36.3249 177.8 36.1393C178.2 35.9489 178.664 35.8537 179.191 35.8537C179.562 35.8537 179.904 35.9074 180.217 36.0148C180.529 36.1174 180.8 36.2809 181.03 36.5056C181.259 36.7302 181.438 37.0182 181.564 37.3698C181.691 37.7214 181.755 38.1462 181.755 38.6442V43.925H180.4V38.7101C180.4 38.2951 180.329 37.9631 180.188 37.7141C180.051 37.465 179.855 37.2844 179.602 37.1721C179.348 37.0549 179.05 36.9963 178.708 36.9963C178.308 36.9963 177.973 37.0671 177.705 37.2087C177.436 37.3503 177.221 37.5456 177.06 37.7946C176.899 38.0436 176.782 38.3293 176.708 38.6516C176.64 38.9689 176.606 39.3058 176.606 39.6623ZM181.74 38.9152L180.832 39.1935C180.837 38.759 180.908 38.3415 181.044 37.9411C181.186 37.5407 181.389 37.1843 181.652 36.8718C181.921 36.5593 182.25 36.3127 182.641 36.132C183.032 35.9465 183.479 35.8537 183.981 35.8537C184.406 35.8537 184.782 35.9099 185.109 36.0222C185.441 36.1345 185.72 36.3078 185.944 36.5422C186.174 36.7717 186.347 37.0671 186.464 37.4284C186.582 37.7897 186.64 38.2194 186.64 38.7175V43.925H185.278V38.7028C185.278 38.2585 185.207 37.9142 185.065 37.6701C184.929 37.4211 184.733 37.2477 184.479 37.1501C184.23 37.0475 183.933 36.9963 183.586 36.9963C183.288 36.9963 183.024 37.0475 182.795 37.1501C182.565 37.2526 182.373 37.3942 182.216 37.5749C182.06 37.7507 181.94 37.9533 181.857 38.1828C181.779 38.4123 181.74 38.6564 181.74 38.9152ZM190.046 37.5236V46.9719H188.684V36.0002H189.929L190.046 37.5236ZM195.385 39.8967V40.0505C195.385 40.6266 195.317 41.1613 195.18 41.6545C195.043 42.1428 194.843 42.5676 194.58 42.9289C194.321 43.2902 194.001 43.571 193.62 43.7712C193.239 43.9714 192.802 44.0715 192.309 44.0715C191.806 44.0715 191.362 43.9885 190.976 43.8224C190.59 43.6564 190.263 43.4147 189.995 43.0974C189.726 42.78 189.511 42.3991 189.35 41.9548C189.194 41.5104 189.086 41.0099 189.028 40.4533V39.633C189.086 39.0471 189.196 38.5222 189.357 38.0583C189.519 37.5944 189.731 37.1989 189.995 36.8718C190.263 36.5397 190.588 36.2883 190.969 36.1174C191.35 35.9416 191.789 35.8537 192.287 35.8537C192.785 35.8537 193.227 35.9514 193.613 36.1467C193.999 36.3371 194.323 36.6105 194.587 36.967C194.851 37.3234 195.048 37.7507 195.18 38.2487C195.317 38.7419 195.385 39.2912 195.385 39.8967ZM194.023 40.0505V39.8967C194.023 39.5012 193.981 39.1301 193.898 38.7834C193.815 38.4318 193.686 38.1242 193.51 37.8605C193.339 37.592 193.12 37.382 192.851 37.2307C192.583 37.0744 192.263 36.9963 191.892 36.9963C191.55 36.9963 191.252 37.0549 190.998 37.1721C190.749 37.2892 190.537 37.4479 190.361 37.6481C190.185 37.8434 190.041 38.0681 189.929 38.322C189.821 38.571 189.741 38.8298 189.687 39.0983V40.9953C189.785 41.3371 189.921 41.6594 190.097 41.9621C190.273 42.2599 190.507 42.5016 190.8 42.6872C191.093 42.8679 191.462 42.9582 191.906 42.9582C192.272 42.9582 192.587 42.8825 192.851 42.7311C193.12 42.5749 193.339 42.3625 193.51 42.0939C193.686 41.8254 193.815 41.5178 193.898 41.1711C193.981 40.8195 194.023 40.446 194.023 40.0505ZM201.787 42.57V38.4904C201.787 38.1779 201.723 37.9069 201.596 37.6774C201.474 37.4431 201.289 37.2624 201.04 37.1354C200.791 37.0085 200.483 36.945 200.117 36.945C199.775 36.945 199.475 37.0036 199.216 37.1208C198.962 37.238 198.762 37.3918 198.615 37.5822C198.474 37.7726 198.403 37.9777 198.403 38.1974H197.048C197.048 37.9142 197.121 37.6335 197.268 37.3552C197.414 37.0768 197.624 36.8254 197.897 36.6008C198.176 36.3713 198.508 36.1906 198.894 36.0588C199.284 35.9221 199.719 35.8537 200.197 35.8537C200.773 35.8537 201.281 35.9514 201.721 36.1467C202.165 36.342 202.512 36.6374 202.761 37.0329C203.015 37.4235 203.142 37.9142 203.142 38.5051V42.1965C203.142 42.4601 203.164 42.7409 203.208 43.0388C203.256 43.3366 203.327 43.593 203.42 43.8078V43.925H202.006C201.938 43.7687 201.884 43.5612 201.845 43.3024C201.806 43.0388 201.787 42.7946 201.787 42.57ZM202.021 39.1203L202.036 40.0724H200.666C200.28 40.0724 199.936 40.1042 199.633 40.1677C199.331 40.2263 199.077 40.3166 198.872 40.4387C198.667 40.5607 198.51 40.7145 198.403 40.9001C198.295 41.0807 198.242 41.2932 198.242 41.5373C198.242 41.7863 198.298 42.0134 198.41 42.2184C198.522 42.4235 198.691 42.5871 198.916 42.7092C199.145 42.8264 199.426 42.8849 199.758 42.8849C200.173 42.8849 200.539 42.7971 200.856 42.6213C201.174 42.4455 201.425 42.2307 201.611 41.9767C201.801 41.7228 201.904 41.4763 201.918 41.237L202.497 41.8889C202.463 42.0939 202.37 42.321 202.219 42.57C202.067 42.819 201.865 43.0583 201.611 43.2878C201.362 43.5124 201.064 43.7004 200.717 43.8517C200.375 43.9982 199.99 44.0715 199.56 44.0715C199.023 44.0715 198.552 43.9665 198.146 43.7565C197.746 43.5466 197.434 43.2658 197.209 42.9142C196.989 42.5578 196.879 42.1599 196.879 41.7204C196.879 41.2956 196.962 40.9221 197.128 40.5998C197.294 40.2726 197.534 40.0016 197.846 39.7868C198.159 39.5671 198.535 39.4011 198.974 39.2888C199.414 39.1765 199.904 39.1203 200.446 39.1203H202.021ZM206.628 37.6921V43.925H205.273V36.0002H206.555L206.628 37.6921ZM206.306 39.6623L205.742 39.6403C205.747 39.0983 205.827 38.5978 205.983 38.1389C206.14 37.675 206.359 37.2722 206.643 36.9304C206.926 36.5886 207.263 36.3249 207.653 36.1393C208.049 35.9489 208.486 35.8537 208.964 35.8537C209.355 35.8537 209.707 35.9074 210.019 36.0148C210.332 36.1174 210.598 36.2834 210.817 36.5129C211.042 36.7424 211.213 37.0402 211.33 37.4064C211.447 37.7678 211.506 38.2097 211.506 38.7321V43.925H210.144V38.7175C210.144 38.3024 210.083 37.9704 209.96 37.7214C209.838 37.4675 209.66 37.2844 209.426 37.1721C209.191 37.0549 208.903 36.9963 208.562 36.9963C208.225 36.9963 207.917 37.0671 207.639 37.2087C207.365 37.3503 207.128 37.5456 206.928 37.7946C206.733 38.0436 206.579 38.3293 206.467 38.6516C206.359 38.9689 206.306 39.3058 206.306 39.6623ZM215.791 43.1047L217.995 36.0002H219.445L216.267 45.1481C216.193 45.3434 216.096 45.5534 215.974 45.778C215.856 46.0075 215.705 46.2248 215.52 46.4299C215.334 46.6349 215.109 46.801 214.846 46.9279C214.587 47.0598 214.277 47.1257 213.916 47.1257C213.808 47.1257 213.671 47.111 213.505 47.0817C213.339 47.0524 213.222 47.028 213.154 47.0085L213.146 45.9099C213.186 45.9147 213.247 45.9196 213.33 45.9245C213.417 45.9343 213.479 45.9391 213.513 45.9391C213.82 45.9391 214.082 45.8976 214.296 45.8146C214.511 45.7365 214.692 45.6022 214.838 45.4118C214.99 45.2263 215.119 44.9699 215.227 44.6428L215.791 43.1047ZM214.172 36.0002L216.23 42.1525L216.582 43.5807L215.607 44.0788L212.692 36.0002H214.172Z" fill="#E9D758"/>
<path d="M6.2039 21.5571H14.7186V26.8542H6.2039V37.7029H16.9254V43H0V5.9895H16.9254V11.2866H6.2039V21.6033V21.5571Z" fill="#E9D758"/>
<path d="M23.6292 5.94305H42.1576V11.2402H35.8912V42.9767H29.8955V11.2402H23.6292V5.94305Z" fill="#E9D758"/>
<path d="M14.1774 4H12.5744C11.9305 4 11.4086 4.57996 11.4086 5.29537V7.93237C11.4086 8.64778 11.9305 9.22774 12.5744 9.22774H14.1774C14.8213 9.22774 15.3433 8.64778 15.3433 7.93237V5.29537C15.3433 4.57996 14.8213 4 14.1774 4Z" fill="#E9D758"/>
<path d="M5.24639 4H3.64337C2.99949 4 2.47754 4.57996 2.47754 5.29537V7.93237C2.47754 8.64778 2.99949 9.22774 3.64337 9.22774H5.24639C5.89026 9.22774 6.41222 8.64778 6.41222 7.93237V5.29537C6.41222 4.57996 5.89026 4 5.24639 4Z" fill="#E9D758"/>
<path d="M37.4733 4H35.8703C35.2264 4 34.7045 4.57996 34.7045 5.29537V7.93237C34.7045 8.64778 35.2264 9.22774 35.8703 9.22774H37.4733C38.1172 9.22774 38.6391 8.64778 38.6391 7.93237V5.29537C38.6391 4.57996 38.1172 4 37.4733 4Z" fill="#E9D758"/>
<path d="M28.5213 4H26.9183C26.2744 4 25.7524 4.57996 25.7524 5.29537V7.93237C25.7524 8.64778 26.2744 9.22774 26.9183 9.22774H28.5213C29.1652 9.22774 29.6871 8.64778 29.6871 7.93237V5.29537C29.6871 4.57996 29.1652 4 28.5213 4Z" fill="#E9D758"/>
<path d="M13.8861 6.61389C13.5738 6.61389 20.1941 14.7331 27.7304 6.61389" stroke="#E9D758" stroke-miterlimit="10"/>
<path d="M4.43433 6.61389C6.03734 14.1548 25.9189 27.1085 36.6613 6.61389" stroke="#E9D758" stroke-miterlimit="10"/>
</g>
<defs>
<clipPath id="clip0_327_590">
<rect width="245" height="57" fill="white"/>
</clipPath>
</defs>
</svg>
