<svg width="297" height="102" viewBox="0 0 297 102" fill="none" xmlns="http://www.w3.org/2000/svg">
<g clip-path="url(#clip0_128_345)">
<path d="M39.0279 42.2182H47.8847V47.2145H39.0279V57.4473H50.1801V62.4436H32.5748V27.5345H50.1801V32.5309H39.0279V42.2618V42.2182Z" fill="#E9D758"/>
<path d="M57.1528 27.4908H76.4255V32.4872H69.9074V62.4218H63.6709V32.4872H57.1528V27.4908Z" fill="#E9D758"/>
<path d="M47.3216 25.6582H45.6542C44.9845 25.6582 44.4415 26.2052 44.4415 26.88V29.3673C44.4415 30.0421 44.9845 30.5891 45.6542 30.5891H47.3216C47.9913 30.5891 48.5343 30.0421 48.5343 29.3673V26.88C48.5343 26.2052 47.9913 25.6582 47.3216 25.6582Z" fill="#E9D758"/>
<path d="M38.0317 25.6582H36.3643C35.6945 25.6582 35.1516 26.2052 35.1516 26.88V29.3673C35.1516 30.0421 35.6945 30.5891 36.3643 30.5891H38.0317C38.7014 30.5891 39.2443 30.0421 39.2443 29.3673V26.88C39.2443 26.2052 38.7014 25.6582 38.0317 25.6582Z" fill="#E9D758"/>
<path d="M71.5533 25.6582H69.8859C69.2162 25.6582 68.6732 26.2052 68.6732 26.88V29.3673C68.6732 30.0421 69.2162 30.5891 69.8859 30.5891H71.5533C72.223 30.5891 72.766 30.0421 72.766 29.3673V26.88C72.766 26.2052 72.223 25.6582 71.5533 25.6582Z" fill="#E9D758"/>
<path d="M62.2416 25.6582H60.5742C59.9045 25.6582 59.3616 26.2052 59.3616 26.88V29.3673C59.3616 30.0421 59.9045 30.5891 60.5742 30.5891H62.2416C62.9114 30.5891 63.4543 30.0421 63.4543 29.3673V26.88C63.4543 26.2052 62.9114 25.6582 62.2416 25.6582Z" fill="#E9D758"/>
<path d="M47.0185 28.1237C46.6937 28.1237 53.5799 35.7818 61.4189 28.1237" stroke="#E9D758" stroke-miterlimit="10"/>
<path d="M37.1873 28.1237C38.8547 35.2364 59.5349 47.4546 70.7087 28.1237" stroke="#E9D758" stroke-miterlimit="10"/>
<path d="M87.68 53V30.32H97.872V33.736H92.692V39.364H96.64V42.836H92.692V49.612H97.928V53H87.68ZM100.203 53V30.32H103.731L108.379 41.24V30.32H112.523V53H109.135L104.487 41.24V53H100.203ZM115.899 53V30.32H126.091V33.736H120.911V39.364H124.859V42.836H120.911V49.612H126.147V53H115.899ZM128.422 53V30.32H134.666C136.197 30.32 137.522 30.488 138.642 30.824C139.762 31.16 140.63 31.7667 141.246 32.644C141.881 33.5027 142.198 34.7253 142.198 36.312C142.198 37.2453 142.124 38.076 141.974 38.804C141.825 39.532 141.545 40.1667 141.134 40.708C140.742 41.2307 140.173 41.6693 139.426 42.024L142.534 53H137.354L134.862 42.836H133.434V53H128.422ZM133.434 39.952H134.834C135.544 39.952 136.094 39.8307 136.486 39.588C136.878 39.3267 137.149 38.9627 137.298 38.496C137.466 38.0107 137.55 37.432 137.55 36.76C137.55 35.7893 137.373 35.0333 137.018 34.492C136.664 33.9507 136.01 33.68 135.058 33.68H133.434V39.952ZM150.901 53.336C149.333 53.336 148.091 53.0093 147.177 52.356C146.281 51.7027 145.637 50.788 145.245 49.612C144.871 48.4173 144.685 47.0453 144.685 45.496V37.88C144.685 36.2747 144.89 34.884 145.301 33.708C145.711 32.532 146.411 31.6267 147.401 30.992C148.409 30.3387 149.771 30.012 151.489 30.012C153.169 30.012 154.485 30.292 155.437 30.852C156.407 31.412 157.098 32.1867 157.509 33.176C157.919 34.1653 158.125 35.3227 158.125 36.648V38.104H153.225V36.256C153.225 35.7707 153.187 35.3227 153.113 34.912C153.057 34.5013 152.907 34.1747 152.665 33.932C152.441 33.6707 152.067 33.54 151.544 33.54C151.003 33.54 150.611 33.6893 150.369 33.988C150.126 34.268 149.967 34.6227 149.893 35.052C149.837 35.4813 149.809 35.9293 149.809 36.396V46.896C149.809 47.4 149.855 47.876 149.949 48.324C150.061 48.7533 150.247 49.108 150.508 49.388C150.789 49.6493 151.181 49.78 151.685 49.78C152.207 49.78 152.609 49.64 152.889 49.36C153.169 49.08 153.365 48.716 153.477 48.268C153.589 47.82 153.645 47.344 153.645 46.84V44.18H151.601V41.24H158.153V53H154.849L154.569 51.124C154.27 51.7587 153.831 52.2907 153.253 52.72C152.674 53.1307 151.89 53.336 150.901 53.336ZM167.785 53.336C166.087 53.336 164.743 53.0373 163.753 52.44C162.764 51.8427 162.055 50.984 161.625 49.864C161.196 48.744 160.981 47.4093 160.981 45.86V37.432C160.981 35.864 161.196 34.5293 161.625 33.428C162.055 32.3267 162.764 31.4867 163.753 30.908C164.743 30.3107 166.087 30.012 167.785 30.012C169.503 30.012 170.856 30.3107 171.845 30.908C172.853 31.4867 173.572 32.3267 174.001 33.428C174.431 34.5293 174.645 35.864 174.645 37.432V45.86C174.645 47.4093 174.431 48.744 174.001 49.864C173.572 50.984 172.853 51.8427 171.845 52.44C170.856 53.0373 169.503 53.336 167.785 53.336ZM167.785 49.78C168.308 49.78 168.691 49.6493 168.933 49.388C169.176 49.1267 169.335 48.7907 169.409 48.38C169.484 47.9693 169.521 47.5493 169.521 47.12V36.2C169.521 35.752 169.484 35.332 169.409 34.94C169.335 34.5293 169.176 34.1933 168.933 33.932C168.691 33.6707 168.308 33.54 167.785 33.54C167.3 33.54 166.936 33.6707 166.693 33.932C166.451 34.1933 166.292 34.5293 166.217 34.94C166.143 35.332 166.105 35.752 166.105 36.2V47.12C166.105 47.5493 166.133 47.9693 166.189 48.38C166.264 48.7907 166.413 49.1267 166.637 49.388C166.88 49.6493 167.263 49.78 167.785 49.78ZM179.521 53V34.044H176.105V30.32H187.949V34.044H184.561V53H179.521ZM189.946 53V30.32H196.19C197.72 30.32 199.046 30.488 200.166 30.824C201.286 31.16 202.154 31.7667 202.77 32.644C203.404 33.5027 203.722 34.7253 203.722 36.312C203.722 37.2453 203.647 38.076 203.498 38.804C203.348 39.532 203.068 40.1667 202.658 40.708C202.266 41.2307 201.696 41.6693 200.95 42.024L204.058 53H198.878L196.386 42.836H194.958V53H189.946ZM194.958 39.952H196.358C197.067 39.952 197.618 39.8307 198.01 39.588C198.402 39.3267 198.672 38.9627 198.822 38.496C198.99 38.0107 199.074 37.432 199.074 36.76C199.074 35.7893 198.896 35.0333 198.542 34.492C198.187 33.9507 197.534 33.68 196.582 33.68H194.958V39.952ZM205.643 53L209.927 30.32H215.639L219.867 53H215.247L214.491 48.212H211.159L210.375 53H205.643ZM211.607 45.216H214.015L212.811 36.368L211.607 45.216ZM222.157 53V30.32H225.685L230.333 41.24V30.32H234.477V53H231.089L226.441 41.24V53H222.157ZM243.872 53.336C242.453 53.336 241.268 53.084 240.316 52.58C239.364 52.076 238.645 51.3013 238.16 50.256C237.675 49.192 237.404 47.82 237.348 46.14L241.632 45.496C241.651 46.4667 241.735 47.2507 241.884 47.848C242.052 48.4453 242.276 48.8747 242.556 49.136C242.855 49.3973 243.209 49.528 243.62 49.528C244.143 49.528 244.479 49.3507 244.628 48.996C244.796 48.6413 244.88 48.268 244.88 47.876C244.88 46.9427 244.656 46.1587 244.208 45.524C243.76 44.8707 243.153 44.2173 242.388 43.564L240.428 41.856C239.569 41.128 238.841 40.3067 238.244 39.392C237.665 38.4587 237.376 37.3107 237.376 35.948C237.376 34.0253 237.945 32.56 239.084 31.552C240.223 30.5253 241.772 30.012 243.732 30.012C244.945 30.012 245.916 30.2173 246.644 30.628C247.391 31.0387 247.951 31.58 248.324 32.252C248.716 32.9053 248.977 33.6053 249.108 34.352C249.257 35.08 249.341 35.78 249.36 36.452L245.048 36.984C245.029 36.312 244.983 35.7333 244.908 35.248C244.852 34.744 244.721 34.3613 244.516 34.1C244.311 33.82 243.993 33.68 243.564 33.68C243.097 33.68 242.752 33.876 242.528 34.268C242.323 34.66 242.22 35.052 242.22 35.444C242.22 36.284 242.416 36.9747 242.808 37.516C243.219 38.0387 243.751 38.5893 244.404 39.168L246.28 40.82C247.269 41.66 248.1 42.612 248.772 43.676C249.463 44.74 249.808 46.056 249.808 47.624C249.808 48.688 249.565 49.6587 249.08 50.536C248.595 51.3947 247.904 52.076 247.008 52.58C246.131 53.084 245.085 53.336 243.872 53.336Z" fill="#E9D758"/>
<path d="M90.3213 67.1465C89.7695 67.1465 89.269 67.0537 88.8198 66.8682C88.3755 66.6777 87.9922 66.4116 87.6699 66.0698C87.3525 65.728 87.1084 65.3228 86.9375 64.854C86.7666 64.3853 86.6812 63.8726 86.6812 63.3159V63.0083C86.6812 62.3638 86.7764 61.79 86.9668 61.2871C87.1572 60.7793 87.416 60.3496 87.7432 59.998C88.0703 59.6465 88.4414 59.3804 88.8564 59.1997C89.2715 59.019 89.7012 58.9287 90.1455 58.9287C90.7119 58.9287 91.2002 59.0264 91.6104 59.2217C92.0254 59.417 92.3647 59.6904 92.6284 60.042C92.8921 60.3887 93.0874 60.7988 93.2144 61.2725C93.3413 61.7412 93.4048 62.2539 93.4048 62.8105V63.4185H87.4868V62.3125H92.0498V62.21C92.0303 61.8584 91.957 61.5166 91.8301 61.1846C91.708 60.8525 91.5127 60.5791 91.2441 60.3643C90.9756 60.1494 90.6094 60.042 90.1455 60.042C89.8379 60.042 89.5547 60.1079 89.2959 60.2397C89.0371 60.3667 88.8149 60.5571 88.6294 60.811C88.4438 61.0649 88.2998 61.375 88.1973 61.7412C88.0947 62.1074 88.0435 62.5298 88.0435 63.0083V63.3159C88.0435 63.6919 88.0947 64.0459 88.1973 64.3779C88.3047 64.7051 88.4585 64.9932 88.6587 65.2422C88.8638 65.4912 89.1104 65.6865 89.3984 65.8281C89.6914 65.9697 90.0234 66.0405 90.3945 66.0405C90.873 66.0405 91.2783 65.9429 91.6104 65.7476C91.9424 65.5522 92.2329 65.291 92.4819 64.9639L93.3022 65.6157C93.1313 65.8745 92.9141 66.1211 92.6504 66.3555C92.3867 66.5898 92.062 66.7803 91.6763 66.9268C91.2954 67.0732 90.8438 67.1465 90.3213 67.1465ZM96.459 55.75V67H95.0967V55.75H96.459ZM101.923 67.1465C101.371 67.1465 100.871 67.0537 100.421 66.8682C99.9771 66.6777 99.5938 66.4116 99.2715 66.0698C98.9541 65.728 98.71 65.3228 98.5391 64.854C98.3682 64.3853 98.2827 63.8726 98.2827 63.3159V63.0083C98.2827 62.3638 98.3779 61.79 98.5684 61.2871C98.7588 60.7793 99.0176 60.3496 99.3447 59.998C99.6719 59.6465 100.043 59.3804 100.458 59.1997C100.873 59.019 101.303 58.9287 101.747 58.9287C102.313 58.9287 102.802 59.0264 103.212 59.2217C103.627 59.417 103.966 59.6904 104.23 60.042C104.494 60.3887 104.689 60.7988 104.816 61.2725C104.943 61.7412 105.006 62.2539 105.006 62.8105V63.4185H99.0884V62.3125H103.651V62.21C103.632 61.8584 103.559 61.5166 103.432 61.1846C103.31 60.8525 103.114 60.5791 102.846 60.3643C102.577 60.1494 102.211 60.042 101.747 60.042C101.439 60.042 101.156 60.1079 100.897 60.2397C100.639 60.3667 100.417 60.5571 100.231 60.811C100.045 61.0649 99.9014 61.375 99.7988 61.7412C99.6963 62.1074 99.645 62.5298 99.645 63.0083V63.3159C99.645 63.6919 99.6963 64.0459 99.7988 64.3779C99.9062 64.7051 100.06 64.9932 100.26 65.2422C100.465 65.4912 100.712 65.6865 101 65.8281C101.293 65.9697 101.625 66.0405 101.996 66.0405C102.475 66.0405 102.88 65.9429 103.212 65.7476C103.544 65.5522 103.834 65.291 104.083 64.9639L104.904 65.6157C104.733 65.8745 104.516 66.1211 104.252 66.3555C103.988 66.5898 103.664 66.7803 103.278 66.9268C102.897 67.0732 102.445 67.1465 101.923 67.1465ZM109.76 66.0332C110.082 66.0332 110.38 65.9673 110.653 65.8354C110.927 65.7036 111.151 65.5229 111.327 65.2935C111.503 65.0591 111.603 64.793 111.627 64.4951H112.917C112.892 64.9639 112.733 65.4009 112.44 65.8062C112.152 66.2065 111.774 66.5312 111.305 66.7803C110.836 67.0244 110.321 67.1465 109.76 67.1465C109.164 67.1465 108.644 67.0415 108.2 66.8315C107.76 66.6216 107.394 66.3335 107.101 65.9673C106.813 65.6011 106.596 65.1812 106.449 64.7075C106.308 64.229 106.237 63.7236 106.237 63.1914V62.8838C106.237 62.3516 106.308 61.8486 106.449 61.375C106.596 60.8965 106.813 60.4741 107.101 60.1079C107.394 59.7417 107.76 59.4536 108.2 59.2437C108.644 59.0337 109.164 58.9287 109.76 58.9287C110.38 58.9287 110.922 59.0557 111.386 59.3096C111.85 59.5586 112.213 59.9004 112.477 60.335C112.746 60.7646 112.892 61.2529 112.917 61.7998H111.627C111.603 61.4727 111.51 61.1772 111.349 60.9136C111.193 60.6499 110.978 60.4399 110.705 60.2837C110.436 60.1226 110.121 60.042 109.76 60.042C109.345 60.042 108.996 60.125 108.712 60.291C108.434 60.4521 108.212 60.6719 108.046 60.9502C107.885 61.2236 107.768 61.5288 107.694 61.8657C107.626 62.1978 107.592 62.5371 107.592 62.8838V63.1914C107.592 63.5381 107.626 63.8799 107.694 64.2168C107.763 64.5537 107.877 64.8589 108.039 65.1323C108.205 65.4058 108.427 65.6255 108.705 65.7915C108.988 65.9526 109.34 66.0332 109.76 66.0332ZM117.758 59.0752V60.1152H113.473V59.0752H117.758ZM114.923 57.1489H116.278V65.0371C116.278 65.3057 116.32 65.5083 116.403 65.645C116.486 65.7817 116.593 65.8721 116.725 65.916C116.857 65.96 116.999 65.9819 117.15 65.9819C117.262 65.9819 117.379 65.9722 117.501 65.9526C117.628 65.9282 117.724 65.9087 117.787 65.894L117.794 67C117.687 67.0342 117.545 67.0659 117.37 67.0952C117.199 67.1294 116.991 67.1465 116.747 67.1465C116.415 67.1465 116.11 67.0806 115.832 66.9487C115.553 66.8169 115.331 66.5972 115.165 66.2896C115.004 65.9771 114.923 65.5571 114.923 65.0298V57.1489ZM120.702 60.3203V67H119.347V59.0752H120.666L120.702 60.3203ZM123.178 59.0312L123.17 60.291C123.058 60.2666 122.951 60.252 122.848 60.2471C122.75 60.2373 122.638 60.2324 122.511 60.2324C122.199 60.2324 121.923 60.2812 121.684 60.3789C121.444 60.4766 121.242 60.6133 121.076 60.7891C120.91 60.9648 120.778 61.1748 120.68 61.4189C120.587 61.6582 120.526 61.9219 120.497 62.21L120.116 62.4297C120.116 61.9512 120.163 61.502 120.255 61.082C120.353 60.6621 120.502 60.291 120.702 59.9688C120.902 59.6416 121.156 59.3877 121.464 59.207C121.776 59.0215 122.147 58.9287 122.577 58.9287C122.675 58.9287 122.787 58.9409 122.914 58.9653C123.041 58.9849 123.129 59.0068 123.178 59.0312ZM123.925 63.1255V62.957C123.925 62.3857 124.008 61.856 124.174 61.3677C124.34 60.8745 124.579 60.4473 124.892 60.0859C125.204 59.7197 125.583 59.4365 126.027 59.2363C126.471 59.0312 126.969 58.9287 127.521 58.9287C128.078 58.9287 128.578 59.0312 129.022 59.2363C129.472 59.4365 129.853 59.7197 130.165 60.0859C130.482 60.4473 130.724 60.8745 130.89 61.3677C131.056 61.856 131.139 62.3857 131.139 62.957V63.1255C131.139 63.6968 131.056 64.2266 130.89 64.7148C130.724 65.2031 130.482 65.6304 130.165 65.9966C129.853 66.3579 129.474 66.6411 129.03 66.8462C128.59 67.0464 128.092 67.1465 127.536 67.1465C126.979 67.1465 126.479 67.0464 126.034 66.8462C125.59 66.6411 125.209 66.3579 124.892 65.9966C124.579 65.6304 124.34 65.2031 124.174 64.7148C124.008 64.2266 123.925 63.6968 123.925 63.1255ZM125.28 62.957V63.1255C125.28 63.521 125.326 63.8945 125.419 64.2461C125.512 64.5928 125.651 64.9004 125.836 65.1689C126.027 65.4375 126.264 65.6499 126.547 65.8062C126.83 65.9575 127.16 66.0332 127.536 66.0332C127.907 66.0332 128.231 65.9575 128.51 65.8062C128.793 65.6499 129.027 65.4375 129.213 65.1689C129.398 64.9004 129.538 64.5928 129.63 64.2461C129.728 63.8945 129.777 63.521 129.777 63.1255V62.957C129.777 62.5664 129.728 62.1978 129.63 61.8511C129.538 61.4995 129.396 61.1895 129.206 60.9209C129.02 60.6475 128.786 60.4326 128.502 60.2764C128.224 60.1201 127.897 60.042 127.521 60.042C127.15 60.042 126.823 60.1201 126.54 60.2764C126.261 60.4326 126.027 60.6475 125.836 60.9209C125.651 61.1895 125.512 61.4995 125.419 61.8511C125.326 62.1978 125.28 62.5664 125.28 62.957ZM136.156 59.0752V60.1152H131.872V59.0752H136.156ZM133.322 57.1489H134.677V65.0371C134.677 65.3057 134.718 65.5083 134.801 65.645C134.884 65.7817 134.992 65.8721 135.124 65.916C135.255 65.96 135.397 65.9819 135.548 65.9819C135.661 65.9819 135.778 65.9722 135.9 65.9526C136.027 65.9282 136.122 65.9087 136.186 65.894L136.193 67C136.085 67.0342 135.944 67.0659 135.768 67.0952C135.597 67.1294 135.39 67.1465 135.146 67.1465C134.813 67.1465 134.508 67.0806 134.23 66.9487C133.952 66.8169 133.729 66.5972 133.563 66.2896C133.402 65.9771 133.322 65.5571 133.322 65.0298V57.1489ZM141.034 67.1465C140.482 67.1465 139.982 67.0537 139.533 66.8682C139.088 66.6777 138.705 66.4116 138.383 66.0698C138.065 65.728 137.821 65.3228 137.65 64.854C137.479 64.3853 137.394 63.8726 137.394 63.3159V63.0083C137.394 62.3638 137.489 61.79 137.68 61.2871C137.87 60.7793 138.129 60.3496 138.456 59.998C138.783 59.6465 139.154 59.3804 139.569 59.1997C139.984 59.019 140.414 58.9287 140.858 58.9287C141.425 58.9287 141.913 59.0264 142.323 59.2217C142.738 59.417 143.078 59.6904 143.341 60.042C143.605 60.3887 143.8 60.7988 143.927 61.2725C144.054 61.7412 144.118 62.2539 144.118 62.8105V63.4185H138.2V62.3125H142.763V62.21C142.743 61.8584 142.67 61.5166 142.543 61.1846C142.421 60.8525 142.226 60.5791 141.957 60.3643C141.688 60.1494 141.322 60.042 140.858 60.042C140.551 60.042 140.268 60.1079 140.009 60.2397C139.75 60.3667 139.528 60.5571 139.342 60.811C139.157 61.0649 139.013 61.375 138.91 61.7412C138.808 62.1074 138.756 62.5298 138.756 63.0083V63.3159C138.756 63.6919 138.808 64.0459 138.91 64.3779C139.018 64.7051 139.171 64.9932 139.372 65.2422C139.577 65.4912 139.823 65.6865 140.111 65.8281C140.404 65.9697 140.736 66.0405 141.107 66.0405C141.586 66.0405 141.991 65.9429 142.323 65.7476C142.655 65.5522 142.946 65.291 143.195 64.9639L144.015 65.6157C143.844 65.8745 143.627 66.1211 143.363 66.3555C143.1 66.5898 142.775 66.7803 142.389 66.9268C142.008 67.0732 141.557 67.1465 141.034 67.1465ZM148.871 66.0332C149.193 66.0332 149.491 65.9673 149.765 65.8354C150.038 65.7036 150.263 65.5229 150.438 65.2935C150.614 65.0591 150.714 64.793 150.739 64.4951H152.028C152.003 64.9639 151.845 65.4009 151.552 65.8062C151.264 66.2065 150.885 66.5312 150.417 66.7803C149.948 67.0244 149.433 67.1465 148.871 67.1465C148.275 67.1465 147.755 67.0415 147.311 66.8315C146.872 66.6216 146.505 66.3335 146.212 65.9673C145.924 65.6011 145.707 65.1812 145.561 64.7075C145.419 64.229 145.348 63.7236 145.348 63.1914V62.8838C145.348 62.3516 145.419 61.8486 145.561 61.375C145.707 60.8965 145.924 60.4741 146.212 60.1079C146.505 59.7417 146.872 59.4536 147.311 59.2437C147.755 59.0337 148.275 58.9287 148.871 58.9287C149.491 58.9287 150.033 59.0557 150.497 59.3096C150.961 59.5586 151.325 59.9004 151.588 60.335C151.857 60.7646 152.003 61.2529 152.028 61.7998H150.739C150.714 61.4727 150.622 61.1772 150.46 60.9136C150.304 60.6499 150.089 60.4399 149.816 60.2837C149.547 60.1226 149.232 60.042 148.871 60.042C148.456 60.042 148.107 60.125 147.824 60.291C147.545 60.4521 147.323 60.6719 147.157 60.9502C146.996 61.2236 146.879 61.5288 146.806 61.8657C146.737 62.1978 146.703 62.5371 146.703 62.8838V63.1914C146.703 63.5381 146.737 63.8799 146.806 64.2168C146.874 64.5537 146.989 64.8589 147.15 65.1323C147.316 65.4058 147.538 65.6255 147.816 65.7915C148.1 65.9526 148.451 66.0332 148.871 66.0332ZM154.906 55.75V67H153.551V55.75H154.906ZM154.584 62.7373L154.02 62.7153C154.025 62.1733 154.105 61.6729 154.262 61.2139C154.418 60.75 154.638 60.3472 154.921 60.0054C155.204 59.6636 155.541 59.3999 155.932 59.2144C156.327 59.0239 156.764 58.9287 157.243 58.9287C157.633 58.9287 157.985 58.9824 158.297 59.0898C158.61 59.1924 158.876 59.3584 159.096 59.5879C159.32 59.8174 159.491 60.1152 159.608 60.4814C159.726 60.8428 159.784 61.2847 159.784 61.8071V67H158.422V61.7925C158.422 61.3774 158.361 61.0454 158.239 60.7964C158.117 60.5425 157.938 60.3594 157.704 60.2471C157.47 60.1299 157.182 60.0713 156.84 60.0713C156.503 60.0713 156.195 60.1421 155.917 60.2837C155.644 60.4253 155.407 60.6206 155.207 60.8696C155.011 61.1187 154.857 61.4043 154.745 61.7266C154.638 62.0439 154.584 62.3809 154.584 62.7373ZM163.168 60.7671V67H161.813V59.0752H163.095L163.168 60.7671ZM162.846 62.7373L162.282 62.7153C162.287 62.1733 162.367 61.6729 162.523 61.2139C162.68 60.75 162.899 60.3472 163.183 60.0054C163.466 59.6636 163.803 59.3999 164.193 59.2144C164.589 59.0239 165.026 58.9287 165.504 58.9287C165.895 58.9287 166.247 58.9824 166.559 59.0898C166.872 59.1924 167.138 59.3584 167.357 59.5879C167.582 59.8174 167.753 60.1152 167.87 60.4814C167.987 60.8428 168.046 61.2847 168.046 61.8071V67H166.684V61.7925C166.684 61.3774 166.623 61.0454 166.5 60.7964C166.378 60.5425 166.2 60.3594 165.966 60.2471C165.731 60.1299 165.443 60.0713 165.102 60.0713C164.765 60.0713 164.457 60.1421 164.179 60.2837C163.905 60.4253 163.668 60.6206 163.468 60.8696C163.273 61.1187 163.119 61.4043 163.007 61.7266C162.899 62.0439 162.846 62.3809 162.846 62.7373ZM171.576 59.0752V67H170.214V59.0752H171.576ZM170.111 56.9731C170.111 56.7534 170.177 56.5679 170.309 56.4165C170.446 56.2651 170.646 56.1895 170.91 56.1895C171.168 56.1895 171.366 56.2651 171.503 56.4165C171.645 56.5679 171.715 56.7534 171.715 56.9731C171.715 57.1831 171.645 57.3638 171.503 57.5151C171.366 57.6616 171.168 57.7349 170.91 57.7349C170.646 57.7349 170.446 57.6616 170.309 57.5151C170.177 57.3638 170.111 57.1831 170.111 56.9731ZM176.923 66.0332C177.245 66.0332 177.543 65.9673 177.816 65.8354C178.09 65.7036 178.314 65.5229 178.49 65.2935C178.666 65.0591 178.766 64.793 178.791 64.4951H180.08C180.055 64.9639 179.896 65.4009 179.604 65.8062C179.315 66.2065 178.937 66.5312 178.468 66.7803C178 67.0244 177.484 67.1465 176.923 67.1465C176.327 67.1465 175.807 67.0415 175.363 66.8315C174.923 66.6216 174.557 66.3335 174.264 65.9673C173.976 65.6011 173.759 65.1812 173.612 64.7075C173.471 64.229 173.4 63.7236 173.4 63.1914V62.8838C173.4 62.3516 173.471 61.8486 173.612 61.375C173.759 60.8965 173.976 60.4741 174.264 60.1079C174.557 59.7417 174.923 59.4536 175.363 59.2437C175.807 59.0337 176.327 58.9287 176.923 58.9287C177.543 58.9287 178.085 59.0557 178.549 59.3096C179.013 59.5586 179.376 59.9004 179.64 60.335C179.909 60.7646 180.055 61.2529 180.08 61.7998H178.791C178.766 61.4727 178.673 61.1772 178.512 60.9136C178.356 60.6499 178.141 60.4399 177.868 60.2837C177.599 60.1226 177.284 60.042 176.923 60.042C176.508 60.042 176.159 60.125 175.875 60.291C175.597 60.4521 175.375 60.6719 175.209 60.9502C175.048 61.2236 174.931 61.5288 174.857 61.8657C174.789 62.1978 174.755 62.5371 174.755 62.8838V63.1914C174.755 63.5381 174.789 63.8799 174.857 64.2168C174.926 64.5537 175.041 64.8589 175.202 65.1323C175.368 65.4058 175.59 65.6255 175.868 65.7915C176.151 65.9526 176.503 66.0332 176.923 66.0332ZM186.276 65.645V61.5654C186.276 61.2529 186.212 60.9819 186.085 60.7524C185.963 60.5181 185.778 60.3374 185.529 60.2104C185.28 60.0835 184.972 60.02 184.606 60.02C184.264 60.02 183.964 60.0786 183.705 60.1958C183.451 60.313 183.251 60.4668 183.104 60.6572C182.963 60.8477 182.892 61.0527 182.892 61.2725H181.537C181.537 60.9893 181.61 60.7085 181.757 60.4302C181.903 60.1519 182.113 59.9004 182.387 59.6758C182.665 59.4463 182.997 59.2656 183.383 59.1338C183.773 58.9971 184.208 58.9287 184.687 58.9287C185.263 58.9287 185.771 59.0264 186.21 59.2217C186.654 59.417 187.001 59.7124 187.25 60.1079C187.504 60.4985 187.631 60.9893 187.631 61.5801V65.2715C187.631 65.5352 187.653 65.8159 187.697 66.1138C187.746 66.4116 187.816 66.668 187.909 66.8828V67H186.496C186.427 66.8438 186.374 66.6362 186.334 66.3774C186.295 66.1138 186.276 65.8696 186.276 65.645ZM186.51 62.1953L186.525 63.1475H185.155C184.77 63.1475 184.425 63.1792 184.123 63.2427C183.82 63.3013 183.566 63.3916 183.361 63.5137C183.156 63.6357 183 63.7896 182.892 63.9751C182.785 64.1558 182.731 64.3682 182.731 64.6123C182.731 64.8613 182.787 65.0884 182.899 65.2935C183.012 65.4985 183.18 65.6621 183.405 65.7842C183.634 65.9014 183.915 65.96 184.247 65.96C184.662 65.96 185.028 65.8721 185.346 65.6963C185.663 65.5205 185.915 65.3057 186.1 65.0518C186.291 64.7979 186.393 64.5513 186.408 64.312L186.986 64.9639C186.952 65.1689 186.859 65.396 186.708 65.645C186.557 65.894 186.354 66.1333 186.1 66.3628C185.851 66.5874 185.553 66.7754 185.207 66.9268C184.865 67.0732 184.479 67.1465 184.049 67.1465C183.512 67.1465 183.041 67.0415 182.636 66.8315C182.235 66.6216 181.923 66.3408 181.698 65.9893C181.479 65.6328 181.369 65.2349 181.369 64.7954C181.369 64.3706 181.452 63.9971 181.618 63.6748C181.784 63.3477 182.023 63.0767 182.335 62.8618C182.648 62.6421 183.024 62.4761 183.463 62.3638C183.903 62.2515 184.394 62.1953 184.936 62.1953H186.51ZM191.234 55.75V67H189.872V55.75H191.234ZM200.302 66.0332C200.624 66.0332 200.922 65.9673 201.195 65.8354C201.469 65.7036 201.693 65.5229 201.869 65.2935C202.045 65.0591 202.145 64.793 202.169 64.4951H203.458C203.434 64.9639 203.275 65.4009 202.982 65.8062C202.694 66.2065 202.316 66.5312 201.847 66.7803C201.378 67.0244 200.863 67.1465 200.302 67.1465C199.706 67.1465 199.186 67.0415 198.742 66.8315C198.302 66.6216 197.936 66.3335 197.643 65.9673C197.355 65.6011 197.138 65.1812 196.991 64.7075C196.85 64.229 196.779 63.7236 196.779 63.1914V62.8838C196.779 62.3516 196.85 61.8486 196.991 61.375C197.138 60.8965 197.355 60.4741 197.643 60.1079C197.936 59.7417 198.302 59.4536 198.742 59.2437C199.186 59.0337 199.706 58.9287 200.302 58.9287C200.922 58.9287 201.464 59.0557 201.928 59.3096C202.392 59.5586 202.755 59.9004 203.019 60.335C203.288 60.7646 203.434 61.2529 203.458 61.7998H202.169C202.145 61.4727 202.052 61.1772 201.891 60.9136C201.735 60.6499 201.52 60.4399 201.247 60.2837C200.978 60.1226 200.663 60.042 200.302 60.042C199.887 60.042 199.538 60.125 199.254 60.291C198.976 60.4521 198.754 60.6719 198.588 60.9502C198.427 61.2236 198.31 61.5288 198.236 61.8657C198.168 62.1978 198.134 62.5371 198.134 62.8838V63.1914C198.134 63.5381 198.168 63.8799 198.236 64.2168C198.305 64.5537 198.419 64.8589 198.581 65.1323C198.747 65.4058 198.969 65.6255 199.247 65.7915C199.53 65.9526 199.882 66.0332 200.302 66.0332ZM204.623 63.1255V62.957C204.623 62.3857 204.706 61.856 204.872 61.3677C205.038 60.8745 205.277 60.4473 205.59 60.0859C205.902 59.7197 206.281 59.4365 206.725 59.2363C207.169 59.0312 207.667 58.9287 208.219 58.9287C208.776 58.9287 209.276 59.0312 209.721 59.2363C210.17 59.4365 210.551 59.7197 210.863 60.0859C211.181 60.4473 211.422 60.8745 211.588 61.3677C211.754 61.856 211.837 62.3857 211.837 62.957V63.1255C211.837 63.6968 211.754 64.2266 211.588 64.7148C211.422 65.2031 211.181 65.6304 210.863 65.9966C210.551 66.3579 210.172 66.6411 209.728 66.8462C209.289 67.0464 208.791 67.1465 208.234 67.1465C207.677 67.1465 207.177 67.0464 206.732 66.8462C206.288 66.6411 205.907 66.3579 205.59 65.9966C205.277 65.6304 205.038 65.2031 204.872 64.7148C204.706 64.2266 204.623 63.6968 204.623 63.1255ZM205.978 62.957V63.1255C205.978 63.521 206.024 63.8945 206.117 64.2461C206.21 64.5928 206.349 64.9004 206.535 65.1689C206.725 65.4375 206.962 65.6499 207.245 65.8062C207.528 65.9575 207.858 66.0332 208.234 66.0332C208.605 66.0332 208.93 65.9575 209.208 65.8062C209.491 65.6499 209.726 65.4375 209.911 65.1689C210.097 64.9004 210.236 64.5928 210.329 64.2461C210.426 63.8945 210.475 63.521 210.475 63.1255V62.957C210.475 62.5664 210.426 62.1978 210.329 61.8511C210.236 61.4995 210.094 61.1895 209.904 60.9209C209.718 60.6475 209.484 60.4326 209.201 60.2764C208.922 60.1201 208.595 60.042 208.219 60.042C207.848 60.042 207.521 60.1201 207.238 60.2764C206.959 60.4326 206.725 60.6475 206.535 60.9209C206.349 61.1895 206.21 61.4995 206.117 61.8511C206.024 62.1978 205.978 62.5664 205.978 62.957ZM214.884 60.6499V67H213.522V59.0752H214.811L214.884 60.6499ZM214.606 62.7373L213.976 62.7153C213.981 62.1733 214.052 61.6729 214.188 61.2139C214.325 60.75 214.528 60.3472 214.796 60.0054C215.065 59.6636 215.399 59.3999 215.8 59.2144C216.2 59.0239 216.664 58.9287 217.191 58.9287C217.562 58.9287 217.904 58.9824 218.217 59.0898C218.529 59.1924 218.8 59.356 219.03 59.5806C219.259 59.8052 219.438 60.0933 219.564 60.4448C219.691 60.7964 219.755 61.2212 219.755 61.7192V67H218.4V61.7852C218.4 61.3701 218.329 61.0381 218.188 60.7891C218.051 60.54 217.855 60.3594 217.602 60.2471C217.348 60.1299 217.05 60.0713 216.708 60.0713C216.308 60.0713 215.973 60.1421 215.705 60.2837C215.436 60.4253 215.221 60.6206 215.06 60.8696C214.899 61.1187 214.782 61.4043 214.708 61.7266C214.64 62.0439 214.606 62.3809 214.606 62.7373ZM219.74 61.9902L218.832 62.2686C218.837 61.834 218.908 61.4165 219.044 61.0161C219.186 60.6157 219.389 60.2593 219.652 59.9468C219.921 59.6343 220.25 59.3877 220.641 59.207C221.032 59.0215 221.479 58.9287 221.981 58.9287C222.406 58.9287 222.782 58.9849 223.109 59.0972C223.441 59.2095 223.72 59.3828 223.944 59.6172C224.174 59.8467 224.347 60.1421 224.464 60.5034C224.582 60.8647 224.64 61.2944 224.64 61.7925V67H223.278V61.7778C223.278 61.3335 223.207 60.9893 223.065 60.7451C222.929 60.4961 222.733 60.3228 222.479 60.2251C222.23 60.1226 221.933 60.0713 221.586 60.0713C221.288 60.0713 221.024 60.1226 220.795 60.2251C220.565 60.3276 220.373 60.4692 220.216 60.6499C220.06 60.8257 219.94 61.0283 219.857 61.2578C219.779 61.4873 219.74 61.7314 219.74 61.9902ZM228.046 60.5986V70.0469H226.684V59.0752H227.929L228.046 60.5986ZM233.385 62.9717V63.1255C233.385 63.7017 233.317 64.2363 233.18 64.7295C233.043 65.2178 232.843 65.6426 232.58 66.0039C232.321 66.3652 232.001 66.646 231.62 66.8462C231.239 67.0464 230.802 67.1465 230.309 67.1465C229.806 67.1465 229.362 67.0635 228.976 66.8975C228.59 66.7314 228.263 66.4897 227.995 66.1724C227.726 65.855 227.511 65.4741 227.35 65.0298C227.194 64.5854 227.086 64.085 227.028 63.5283V62.708C227.086 62.1221 227.196 61.5972 227.357 61.1333C227.519 60.6694 227.731 60.2739 227.995 59.9468C228.263 59.6147 228.588 59.3633 228.969 59.1924C229.35 59.0166 229.789 58.9287 230.287 58.9287C230.785 58.9287 231.227 59.0264 231.613 59.2217C231.999 59.4121 232.323 59.6855 232.587 60.042C232.851 60.3984 233.048 60.8257 233.18 61.3237C233.317 61.8169 233.385 62.3662 233.385 62.9717ZM232.023 63.1255V62.9717C232.023 62.5762 231.981 62.2051 231.898 61.8584C231.815 61.5068 231.686 61.1992 231.51 60.9355C231.339 60.667 231.12 60.457 230.851 60.3057C230.583 60.1494 230.263 60.0713 229.892 60.0713C229.55 60.0713 229.252 60.1299 228.998 60.2471C228.749 60.3643 228.537 60.5229 228.361 60.7231C228.185 60.9185 228.041 61.1431 227.929 61.397C227.821 61.646 227.741 61.9048 227.687 62.1733V64.0703C227.785 64.4121 227.921 64.7344 228.097 65.0371C228.273 65.335 228.507 65.5767 228.8 65.7622C229.093 65.9429 229.462 66.0332 229.906 66.0332C230.272 66.0332 230.587 65.9575 230.851 65.8062C231.12 65.6499 231.339 65.4375 231.51 65.1689C231.686 64.9004 231.815 64.5928 231.898 64.2461C231.981 63.8945 232.023 63.521 232.023 63.1255ZM239.787 65.645V61.5654C239.787 61.2529 239.723 60.9819 239.596 60.7524C239.474 60.5181 239.289 60.3374 239.04 60.2104C238.791 60.0835 238.483 60.02 238.117 60.02C237.775 60.02 237.475 60.0786 237.216 60.1958C236.962 60.313 236.762 60.4668 236.615 60.6572C236.474 60.8477 236.403 61.0527 236.403 61.2725H235.048C235.048 60.9893 235.121 60.7085 235.268 60.4302C235.414 60.1519 235.624 59.9004 235.897 59.6758C236.176 59.4463 236.508 59.2656 236.894 59.1338C237.284 58.9971 237.719 58.9287 238.197 58.9287C238.773 58.9287 239.281 59.0264 239.721 59.2217C240.165 59.417 240.512 59.7124 240.761 60.1079C241.015 60.4985 241.142 60.9893 241.142 61.5801V65.2715C241.142 65.5352 241.164 65.8159 241.208 66.1138C241.256 66.4116 241.327 66.668 241.42 66.8828V67H240.006C239.938 66.8438 239.884 66.6362 239.845 66.3774C239.806 66.1138 239.787 65.8696 239.787 65.645ZM240.021 62.1953L240.036 63.1475H238.666C238.28 63.1475 237.936 63.1792 237.633 63.2427C237.331 63.3013 237.077 63.3916 236.872 63.5137C236.667 63.6357 236.51 63.7896 236.403 63.9751C236.295 64.1558 236.242 64.3682 236.242 64.6123C236.242 64.8613 236.298 65.0884 236.41 65.2935C236.522 65.4985 236.691 65.6621 236.916 65.7842C237.145 65.9014 237.426 65.96 237.758 65.96C238.173 65.96 238.539 65.8721 238.856 65.6963C239.174 65.5205 239.425 65.3057 239.611 65.0518C239.801 64.7979 239.904 64.5513 239.918 64.312L240.497 64.9639C240.463 65.1689 240.37 65.396 240.219 65.645C240.067 65.894 239.865 66.1333 239.611 66.3628C239.362 66.5874 239.064 66.7754 238.717 66.9268C238.375 67.0732 237.99 67.1465 237.56 67.1465C237.023 67.1465 236.552 67.0415 236.146 66.8315C235.746 66.6216 235.434 66.3408 235.209 65.9893C234.989 65.6328 234.879 65.2349 234.879 64.7954C234.879 64.3706 234.962 63.9971 235.128 63.6748C235.294 63.3477 235.534 63.0767 235.846 62.8618C236.159 62.6421 236.535 62.4761 236.974 62.3638C237.414 62.2515 237.904 62.1953 238.446 62.1953H240.021ZM244.628 60.7671V67H243.273V59.0752H244.555L244.628 60.7671ZM244.306 62.7373L243.742 62.7153C243.747 62.1733 243.827 61.6729 243.983 61.2139C244.14 60.75 244.359 60.3472 244.643 60.0054C244.926 59.6636 245.263 59.3999 245.653 59.2144C246.049 59.0239 246.486 58.9287 246.964 58.9287C247.355 58.9287 247.707 58.9824 248.019 59.0898C248.332 59.1924 248.598 59.3584 248.817 59.5879C249.042 59.8174 249.213 60.1152 249.33 60.4814C249.447 60.8428 249.506 61.2847 249.506 61.8071V67H248.144V61.7925C248.144 61.3774 248.083 61.0454 247.96 60.7964C247.838 60.5425 247.66 60.3594 247.426 60.2471C247.191 60.1299 246.903 60.0713 246.562 60.0713C246.225 60.0713 245.917 60.1421 245.639 60.2837C245.365 60.4253 245.128 60.6206 244.928 60.8696C244.733 61.1187 244.579 61.4043 244.467 61.7266C244.359 62.0439 244.306 62.3809 244.306 62.7373ZM253.791 66.1797L255.995 59.0752H257.445L254.267 68.2231C254.193 68.4185 254.096 68.6284 253.974 68.853C253.856 69.0825 253.705 69.2998 253.52 69.5049C253.334 69.71 253.109 69.876 252.846 70.0029C252.587 70.1348 252.277 70.2007 251.916 70.2007C251.808 70.2007 251.671 70.186 251.505 70.1567C251.339 70.1274 251.222 70.103 251.154 70.0835L251.146 68.9849C251.186 68.9897 251.247 68.9946 251.33 68.9995C251.417 69.0093 251.479 69.0142 251.513 69.0142C251.82 69.0142 252.082 68.9727 252.296 68.8896C252.511 68.8115 252.692 68.6772 252.838 68.4868C252.99 68.3013 253.119 68.0449 253.227 67.7178L253.791 66.1797ZM252.172 59.0752L254.23 65.2275L254.582 66.6558L253.607 67.1538L250.692 59.0752H252.172Z" fill="#E9D758"/>
</g>
<defs>
<clipPath id="clip0_128_345">
<rect width="301" height="120" fill="white" transform="translate(-4 -18)"/>
</clipPath>
</defs>
</svg>
