<svg width="276" height="97" viewBox="0 0 276 97" fill="none" xmlns="http://www.w3.org/2000/svg">
<g clip-path="url(#clip0_214_55)">
<path d="M93.4064 43.28C91.7451 43.28 90.4384 43 89.4864 42.44C88.5344 41.88 87.8624 41.1053 87.4704 40.116C87.0784 39.1267 86.8824 37.9973 86.8824 36.728V35.524H91.7824V37.008C91.7824 37.456 91.8011 37.8947 91.8384 38.324C91.8944 38.7347 92.0344 39.0707 92.2584 39.332C92.5011 39.5933 92.8838 39.724 93.4064 39.724C93.9291 39.724 94.3118 39.5933 94.5544 39.332C94.7971 39.052 94.9464 38.6973 95.0024 38.268C95.0771 37.82 95.1144 37.3627 95.1144 36.896V32.92H91.3624V30.4H95.1144V26.256C95.1144 25.7333 95.0678 25.2667 94.9744 24.856C94.8998 24.4267 94.7411 24.0907 94.4984 23.848C94.2558 23.6053 93.8918 23.484 93.4064 23.484C92.8838 23.484 92.5104 23.624 92.2864 23.904C92.0624 24.1653 91.9224 24.5107 91.8664 24.94C91.8104 25.3507 91.7824 25.7893 91.7824 26.256V27.824H86.8824V26.704C86.8824 25.416 87.0691 24.2587 87.4424 23.232C87.8344 22.2053 88.5064 21.4027 89.4584 20.824C90.4104 20.2267 91.7264 19.928 93.4064 19.928C95.1424 19.928 96.5051 20.2453 97.4944 20.88C98.4838 21.496 99.1838 22.3733 99.5944 23.512C100.005 24.632 100.21 25.9667 100.21 27.516V35.664C100.21 37.232 100.005 38.5853 99.5944 39.724C99.1838 40.8627 98.4838 41.74 97.4944 42.356C96.5051 42.972 95.1424 43.28 93.4064 43.28ZM103.352 43V20.32H108.364V29.504H111.864V20.32H116.904V43H111.864V33.088H108.364V43H103.352ZM120.358 43V20.32H130.55V23.736H125.37V29.364H129.318V32.836H125.37V39.612H130.606V43H120.358ZM132.881 43V20.32H140.497C141.86 20.32 142.98 20.5813 143.857 21.104C144.735 21.608 145.388 22.3547 145.817 23.344C146.247 24.3147 146.461 25.5 146.461 26.9C146.461 28.6547 146.172 29.9987 145.593 30.932C145.015 31.8467 144.231 32.4813 143.241 32.836C142.252 33.1907 141.141 33.368 139.909 33.368H137.893V43H132.881ZM137.893 29.868H139.573C140.189 29.868 140.656 29.756 140.973 29.532C141.291 29.308 141.496 28.972 141.589 28.524C141.701 28.076 141.757 27.5067 141.757 26.816C141.757 26.2373 141.711 25.7333 141.617 25.304C141.543 24.856 141.347 24.5013 141.029 24.24C140.712 23.9787 140.217 23.848 139.545 23.848H137.893V29.868ZM148.961 43V20.32H159.461V24.044H153.973V43H148.961ZM168.334 43.336C166.636 43.336 165.292 43.0373 164.302 42.44C163.313 41.8427 162.604 40.984 162.174 39.864C161.745 38.744 161.53 37.4093 161.53 35.86V27.432C161.53 25.864 161.745 24.5293 162.174 23.428C162.604 22.3267 163.313 21.4867 164.302 20.908C165.292 20.3107 166.636 20.012 168.334 20.012C170.052 20.012 171.405 20.3107 172.394 20.908C173.402 21.4867 174.121 22.3267 174.55 23.428C174.98 24.5293 175.194 25.864 175.194 27.432V35.86C175.194 37.4093 174.98 38.744 174.55 39.864C174.121 40.984 173.402 41.8427 172.394 42.44C171.405 43.0373 170.052 43.336 168.334 43.336ZM168.334 39.78C168.857 39.78 169.24 39.6493 169.482 39.388C169.725 39.1267 169.884 38.7907 169.958 38.38C170.033 37.9693 170.07 37.5493 170.07 37.12V26.2C170.07 25.752 170.033 25.332 169.958 24.94C169.884 24.5293 169.725 24.1933 169.482 23.932C169.24 23.6707 168.857 23.54 168.334 23.54C167.849 23.54 167.485 23.6707 167.242 23.932C167 24.1933 166.841 24.5293 166.766 24.94C166.692 25.332 166.654 25.752 166.654 26.2V37.12C166.654 37.5493 166.682 37.9693 166.738 38.38C166.813 38.7907 166.962 39.1267 167.186 39.388C167.429 39.6493 167.812 39.78 168.334 39.78ZM180.288 43V24.044H176.872V20.32H188.716V24.044H185.328V43H180.288ZM190.713 43V20.32H198.329C199.692 20.32 200.812 20.5813 201.689 21.104C202.567 21.608 203.22 22.3547 203.649 23.344C204.079 24.3147 204.293 25.5 204.293 26.9C204.293 28.6547 204.004 29.9987 203.425 30.932C202.847 31.8467 202.063 32.4813 201.073 32.836C200.084 33.1907 198.973 33.368 197.741 33.368H195.725V43H190.713ZM195.725 29.868H197.405C198.021 29.868 198.488 29.756 198.805 29.532C199.123 29.308 199.328 28.972 199.421 28.524C199.533 28.076 199.589 27.5067 199.589 26.816C199.589 26.2373 199.543 25.7333 199.449 25.304C199.375 24.856 199.179 24.5013 198.861 24.24C198.544 23.9787 198.049 23.848 197.377 23.848H195.725V29.868ZM205.152 43L209.436 20.32H215.148L219.376 43H214.756L214 38.212H210.668L209.884 43H205.152ZM211.116 35.216H213.524L212.32 26.368L211.116 35.216ZM221.75 43V20.32H226.762V29.504H230.262V20.32H235.302V43H230.262V33.088H226.762V43H221.75ZM245.252 43.336C243.535 43.336 242.172 43.028 241.164 42.412C240.175 41.7773 239.475 40.9 239.064 39.78C238.654 38.6413 238.448 37.3067 238.448 35.776V27.6C238.448 26.032 238.654 24.688 239.064 23.568C239.475 22.4293 240.175 21.552 241.164 20.936C242.172 20.32 243.535 20.012 245.252 20.012C246.932 20.012 248.239 20.292 249.172 20.852C250.124 21.3933 250.796 22.1587 251.188 23.148C251.58 24.1373 251.776 25.276 251.776 26.564V28.524H246.876V26.256C246.876 25.808 246.848 25.3787 246.792 24.968C246.755 24.5573 246.624 24.2213 246.4 23.96C246.176 23.68 245.794 23.54 245.252 23.54C244.73 23.54 244.338 23.68 244.076 23.96C243.834 24.24 243.675 24.5947 243.6 25.024C243.544 25.4347 243.516 25.8733 243.516 26.34V37.008C243.516 37.512 243.554 37.9787 243.628 38.408C243.722 38.8187 243.89 39.1547 244.132 39.416C244.394 39.6587 244.767 39.78 245.252 39.78C245.775 39.78 246.148 39.6493 246.372 39.388C246.596 39.108 246.736 38.7533 246.792 38.324C246.848 37.8947 246.876 37.456 246.876 37.008V34.628H251.776V36.588C251.776 37.876 251.58 39.0333 251.188 40.06C250.815 41.068 250.152 41.8707 249.2 42.468C248.267 43.0467 246.951 43.336 245.252 43.336Z" fill="#E9D758"/>
<path d="M89.5396 48.2826C89.3123 48.2855 89.0836 48.3437 88.8535 48.4574C88.6262 48.571 88.4359 48.7216 88.2825 48.9091C88.1319 49.0937 88.0566 49.2997 88.0566 49.527H87.068C87.068 49.2429 87.1362 48.9701 87.2725 48.7088C87.4089 48.4474 87.5921 48.2145 87.8222 48.0099C88.0552 47.8054 88.3194 47.6434 88.6149 47.5241C88.9132 47.4048 89.2214 47.3451 89.5396 47.3451C90.1362 47.3451 90.6418 47.4957 91.0566 47.7969C91.4742 48.098 91.791 48.4957 92.0069 48.99C92.2257 49.4844 92.335 50.0213 92.335 50.6008V50.8395C92.335 51.4162 92.2257 51.9531 92.0069 52.4503C91.791 52.9446 91.4742 53.3423 91.0566 53.6434C90.6418 53.9446 90.1362 54.0951 89.5396 54.0951C89.0623 54.0951 88.6376 53.99 88.2654 53.7798C87.8933 53.5667 87.6007 53.2826 87.3876 52.9275C87.1745 52.5724 87.068 52.1775 87.068 51.7429H88.0566C88.0566 51.99 88.1262 52.2216 88.2654 52.4375C88.4075 52.6505 88.5907 52.8238 88.8151 52.9574C89.0424 53.088 89.2839 53.1548 89.5396 53.1576C89.9203 53.1548 90.2441 53.0355 90.5112 52.7997C90.7782 52.5639 90.9813 52.2684 91.1205 51.9133C91.2597 51.5582 91.3293 51.2003 91.3293 50.8395V50.6008C91.3293 50.2315 91.2597 49.8707 91.1205 49.5184C90.9842 49.1633 90.7825 48.8693 90.5154 48.6363C90.2512 48.4034 89.9259 48.2855 89.5396 48.2826ZM91.7384 50.2088V51.1463H88.8748V50.2088H91.7384ZM93.2874 53.9758V53.0383H93.5261C93.7221 53.0383 93.8855 53 94.0161 52.9233C94.1468 52.8437 94.2519 52.7059 94.3315 52.5099C94.4139 52.3111 94.4764 52.0355 94.519 51.6832C94.5644 51.3281 94.5971 50.8764 94.617 50.3281L94.7363 47.4304H99.0999V53.9758H98.0943V48.3679H95.6909L95.5886 50.7031C95.5659 51.24 95.5176 51.713 95.4437 52.1221C95.3727 52.5284 95.2633 52.8693 95.1156 53.1449C94.9707 53.4204 94.7775 53.6278 94.536 53.767C94.2945 53.9062 93.992 53.9758 93.6284 53.9758H93.2874ZM103.689 54.1122C103.059 54.1122 102.515 53.973 102.057 53.6946C101.603 53.4133 101.252 53.0213 101.005 52.5184C100.76 52.0128 100.638 51.4247 100.638 50.7542C100.638 50.0838 100.76 49.4929 101.005 48.9815C101.252 48.4673 101.596 48.0667 102.036 47.7798C102.479 47.49 102.996 47.3451 103.587 47.3451C103.928 47.3451 104.265 47.402 104.597 47.5156C104.929 47.6292 105.232 47.8139 105.505 48.0696C105.777 48.3224 105.995 48.6576 106.157 49.0753C106.319 49.4929 106.4 50.0071 106.4 50.6179V51.044H101.354V50.1747H105.377C105.377 49.8054 105.303 49.4758 105.155 49.1861C105.01 48.8963 104.803 48.6676 104.533 48.5C104.266 48.3324 103.951 48.2486 103.587 48.2486C103.187 48.2486 102.84 48.348 102.547 48.5469C102.258 48.7429 102.035 48.9986 101.878 49.3139C101.722 49.6292 101.644 49.9673 101.644 50.3281V50.9076C101.644 51.402 101.729 51.821 101.9 52.1648C102.073 52.5057 102.313 52.7656 102.62 52.9446C102.927 53.1207 103.283 53.2088 103.689 53.2088C103.954 53.2088 104.192 53.1719 104.405 53.098C104.621 53.0213 104.807 52.9076 104.964 52.7571C105.12 52.6037 105.241 52.4133 105.326 52.1861L106.297 52.4588C106.195 52.7883 106.023 53.0781 105.782 53.3281C105.54 53.5753 105.242 53.7684 104.887 53.9076C104.532 54.044 104.133 54.1122 103.689 54.1122ZM107.929 53.9758V47.4304H108.935V50.277H109.6L111.952 47.4304H113.248L110.606 50.5838L113.282 53.9758H111.986L109.839 51.2145H108.935V53.9758H107.929ZM114 48.3679V47.4304H119.318V48.3679H117.17V53.9758H116.165V48.3679H114ZM120.785 56.4304V47.4304H121.757V48.4701H121.876C121.95 48.3565 122.052 48.2116 122.183 48.0355C122.316 47.8565 122.507 47.6974 122.754 47.5582C123.004 47.4162 123.342 47.3451 123.768 47.3451C124.319 47.3451 124.805 47.4829 125.225 47.7585C125.646 48.0341 125.974 48.4247 126.21 48.9304C126.445 49.4361 126.563 50.0326 126.563 50.7201C126.563 51.4133 126.445 52.0142 126.21 52.5227C125.974 53.0284 125.647 53.4204 125.23 53.6988C124.812 53.9744 124.33 54.1122 123.785 54.1122C123.365 54.1122 123.028 54.0426 122.775 53.9034C122.522 53.7613 122.328 53.6008 122.191 53.4219C122.055 53.24 121.95 53.0895 121.876 52.9701H121.791V56.4304H120.785ZM121.774 50.7031C121.774 51.1974 121.846 51.6335 121.991 52.0113C122.136 52.3863 122.347 52.6804 122.626 52.8934C122.904 53.1037 123.245 53.2088 123.649 53.2088C124.069 53.2088 124.42 53.098 124.701 52.8764C124.985 52.652 125.198 52.3508 125.34 51.973C125.485 51.5923 125.558 51.169 125.558 50.7031C125.558 50.2429 125.487 49.8281 125.345 49.4588C125.205 49.0866 124.994 48.7926 124.71 48.5767C124.428 48.3579 124.075 48.2486 123.649 48.2486C123.24 48.2486 122.896 48.3523 122.617 48.5596C122.339 48.7642 122.129 49.0511 121.987 49.4204C121.845 49.7869 121.774 50.2145 121.774 50.7031ZM130.757 54.1122C130.166 54.1122 129.647 53.9716 129.201 53.6903C128.758 53.4091 128.411 53.0156 128.161 52.5099C127.914 52.0042 127.791 51.4133 127.791 50.7372C127.791 50.0554 127.914 49.4602 128.161 48.9517C128.411 48.4432 128.758 48.0483 129.201 47.767C129.647 47.4858 130.166 47.3451 130.757 47.3451C131.347 47.3451 131.865 47.4858 132.308 47.767C132.754 48.0483 133.1 48.4432 133.347 48.9517C133.597 49.4602 133.722 50.0554 133.722 50.7372C133.722 51.4133 133.597 52.0042 133.347 52.5099C133.1 53.0156 132.754 53.4091 132.308 53.6903C131.865 53.9716 131.347 54.1122 130.757 54.1122ZM130.757 53.2088C131.205 53.2088 131.575 53.0937 131.865 52.8636C132.154 52.6335 132.369 52.3309 132.508 51.9559C132.647 51.5809 132.717 51.1747 132.717 50.7372C132.717 50.2997 132.647 49.892 132.508 49.5142C132.369 49.1363 132.154 48.8309 131.865 48.598C131.575 48.365 131.205 48.2486 130.757 48.2486C130.308 48.2486 129.938 48.365 129.649 48.598C129.359 48.8309 129.144 49.1363 129.005 49.5142C128.866 49.892 128.796 50.2997 128.796 50.7372C128.796 51.1747 128.866 51.5809 129.005 51.9559C129.144 52.3309 129.359 52.6335 129.649 52.8636C129.938 53.0937 130.308 53.2088 130.757 53.2088ZM134.402 48.3679V47.4304H139.72V48.3679H137.573V53.9758H136.567V48.3679H134.402ZM143.592 54.1122C142.961 54.1122 142.417 53.973 141.96 53.6946C141.505 53.4133 141.154 53.0213 140.907 52.5184C140.663 52.0128 140.541 51.4247 140.541 50.7542C140.541 50.0838 140.663 49.4929 140.907 48.9815C141.154 48.4673 141.498 48.0667 141.938 47.7798C142.382 47.49 142.899 47.3451 143.49 47.3451C143.83 47.3451 144.167 47.402 144.499 47.5156C144.832 47.6292 145.134 47.8139 145.407 48.0696C145.68 48.3224 145.897 48.6576 146.059 49.0753C146.221 49.4929 146.302 50.0071 146.302 50.6179V51.044H141.257V50.1747H145.279C145.279 49.8054 145.205 49.4758 145.058 49.1861C144.913 48.8963 144.705 48.6676 144.436 48.5C144.168 48.3324 143.853 48.2486 143.49 48.2486C143.089 48.2486 142.742 48.348 142.45 48.5469C142.16 48.7429 141.937 48.9986 141.781 49.3139C141.624 49.6292 141.546 49.9673 141.546 50.3281V50.9076C141.546 51.402 141.632 51.821 141.802 52.1648C141.975 52.5057 142.215 52.7656 142.522 52.9446C142.829 53.1207 143.186 53.2088 143.592 53.2088C143.856 53.2088 144.095 53.1719 144.308 53.098C144.524 53.0213 144.71 52.9076 144.866 52.7571C145.022 52.6037 145.143 52.4133 145.228 52.1861L146.2 52.4588C146.097 52.7883 145.926 53.0781 145.684 53.3281C145.443 53.5753 145.144 53.7684 144.789 53.9076C144.434 54.044 144.035 54.1122 143.592 54.1122ZM148.406 47.4304L149.974 50.1065L151.542 47.4304H152.702L150.588 50.7031L152.702 53.9758H151.542L149.974 51.4361L148.406 53.9758H147.247L149.327 50.7031L147.247 47.4304H148.406ZM158.517 50.2429V51.1804H154.904V50.2429H158.517ZM155.142 47.4304V53.9758H154.137V47.4304H155.142ZM159.284 47.4304V53.9758H158.279V47.4304H159.284ZM162.127 52.4929L165.28 47.4304H166.439V53.9758H165.433V48.9133L162.297 53.9758H161.121V47.4304H162.127V52.4929ZM173.327 47.4304V53.9758H172.321V47.4304H173.327ZM172.934 50.5497V51.4872C172.707 51.5724 172.481 51.6477 172.257 51.713C172.032 51.7755 171.797 51.8253 171.55 51.8622C171.302 51.8963 171.031 51.9133 170.736 51.9133C169.994 51.9133 169.399 51.713 168.95 51.3125C168.504 50.9119 168.281 50.3111 168.281 49.5099V47.4133H169.287V49.5099C169.287 49.8451 169.351 50.1207 169.478 50.3366C169.606 50.5525 169.78 50.713 169.998 50.8182C170.217 50.9233 170.463 50.9758 170.736 50.9758C171.162 50.9758 171.547 50.9375 171.89 50.8608C172.237 50.7812 172.585 50.6775 172.934 50.5497ZM177.916 54.1122C177.285 54.1122 176.741 53.973 176.284 53.6946C175.829 53.4133 175.478 53.0213 175.231 52.5184C174.987 52.0128 174.865 51.4247 174.865 50.7542C174.865 50.0838 174.987 49.4929 175.231 48.9815C175.478 48.4673 175.822 48.0667 176.263 47.7798C176.706 47.49 177.223 47.3451 177.814 47.3451C178.155 47.3451 178.491 47.402 178.824 47.5156C179.156 47.6292 179.459 47.8139 179.731 48.0696C180.004 48.3224 180.221 48.6576 180.383 49.0753C180.545 49.4929 180.626 50.0071 180.626 50.6179V51.044H175.581V50.1747H179.603C179.603 49.8054 179.53 49.4758 179.382 49.1861C179.237 48.8963 179.03 48.6676 178.76 48.5C178.493 48.3324 178.177 48.2486 177.814 48.2486C177.413 48.2486 177.067 48.348 176.774 48.5469C176.484 48.7429 176.261 48.9986 176.105 49.3139C175.949 49.6292 175.871 49.9673 175.871 50.3281V50.9076C175.871 51.402 175.956 51.821 176.126 52.1648C176.3 52.5057 176.54 52.7656 176.846 52.9446C177.153 53.1207 177.51 53.2088 177.916 53.2088C178.18 53.2088 178.419 53.1719 178.632 53.098C178.848 53.0213 179.034 52.9076 179.19 52.7571C179.346 52.6037 179.467 52.4133 179.552 52.1861L180.524 52.4588C180.422 52.7883 180.25 53.0781 180.008 53.3281C179.767 53.5753 179.469 53.7684 179.113 53.9076C178.758 54.044 178.359 54.1122 177.916 54.1122ZM184.815 54.1122C184.202 54.1122 183.673 53.9673 183.23 53.6775C182.787 53.3878 182.446 52.9886 182.207 52.4801C181.969 51.9716 181.849 51.3906 181.849 50.7372C181.849 50.0724 181.971 49.4858 182.216 48.9773C182.463 48.4659 182.807 48.0667 183.247 47.7798C183.69 47.49 184.207 47.3451 184.798 47.3451C185.258 47.3451 185.673 47.4304 186.042 47.6008C186.412 47.7713 186.714 48.0099 186.95 48.3167C187.186 48.6236 187.332 48.9815 187.389 49.3906H186.383C186.307 49.0923 186.136 48.8281 185.872 48.598C185.611 48.365 185.258 48.2486 184.815 48.2486C184.423 48.2486 184.079 48.3508 183.784 48.5554C183.491 48.7571 183.263 49.0426 183.098 49.4119C182.936 49.7784 182.855 50.2088 182.855 50.7031C182.855 51.2088 182.934 51.6491 183.094 52.0241C183.255 52.3991 183.483 52.6903 183.775 52.8977C184.071 53.1051 184.417 53.2088 184.815 53.2088C185.077 53.2088 185.314 53.1633 185.527 53.0724C185.74 52.9815 185.92 52.8508 186.068 52.6804C186.216 52.5099 186.321 52.3054 186.383 52.0667H187.389C187.332 52.4531 187.192 52.8011 186.967 53.1108C186.746 53.4176 186.452 53.6619 186.085 53.8437C185.721 54.0227 185.298 54.1122 184.815 54.1122ZM188.859 53.9758V47.4304H189.865V50.277H190.53L192.882 47.4304H194.177L191.535 50.5838L194.211 53.9758H192.916L190.768 51.2145H189.865V53.9758H188.859ZM197.231 54.1292C196.816 54.1292 196.439 54.0511 196.101 53.8949C195.763 53.7358 195.495 53.5071 195.296 53.2088C195.097 52.9076 194.998 52.544 194.998 52.1179C194.998 51.7429 195.072 51.4389 195.219 51.2059C195.367 50.9701 195.564 50.7855 195.812 50.652C196.059 50.5184 196.331 50.419 196.63 50.3537C196.931 50.2855 197.233 50.2315 197.537 50.1917C197.935 50.1406 198.258 50.1023 198.505 50.0767C198.755 50.0483 198.937 50.0014 199.05 49.9361C199.167 49.8707 199.225 49.7571 199.225 49.5951V49.5611C199.225 49.1406 199.11 48.8139 198.88 48.5809C198.652 48.348 198.307 48.2315 197.844 48.2315C197.364 48.2315 196.988 48.3366 196.715 48.5469C196.442 48.7571 196.251 48.9815 196.14 49.2201L195.185 48.8792C195.356 48.4815 195.583 48.1719 195.867 47.9503C196.154 47.7258 196.466 47.5696 196.804 47.4815C197.145 47.3906 197.481 47.3451 197.81 47.3451C198.02 47.3451 198.262 47.3707 198.535 47.4219C198.81 47.4701 199.076 47.571 199.331 47.7244C199.59 47.8778 199.804 48.1094 199.975 48.419C200.145 48.7287 200.231 49.1434 200.231 49.6633V53.9758H199.225V53.0895H199.174C199.106 53.2315 198.992 53.3835 198.833 53.5454C198.674 53.7074 198.462 53.8451 198.198 53.9588C197.934 54.0724 197.611 54.1292 197.231 54.1292ZM197.384 53.2258C197.782 53.2258 198.117 53.1477 198.39 52.9915C198.665 52.8352 198.873 52.6335 199.012 52.3863C199.154 52.1392 199.225 51.8792 199.225 51.6065V50.6861C199.182 50.7372 199.089 50.7841 198.944 50.8267C198.802 50.8665 198.637 50.902 198.449 50.9332C198.265 50.9616 198.084 50.9872 197.908 51.0099C197.735 51.0298 197.594 51.0469 197.486 51.0611C197.225 51.0951 196.981 51.1505 196.753 51.2273C196.529 51.3011 196.347 51.4133 196.208 51.5639C196.072 51.7116 196.003 51.9133 196.003 52.169C196.003 52.5184 196.133 52.7826 196.391 52.9616C196.652 53.1378 196.983 53.2258 197.384 53.2258ZM206.004 53.9758V48.3508H204.265C203.873 48.3508 203.565 48.4417 203.34 48.6236C203.116 48.8054 203.004 49.0554 203.004 49.3736C203.004 49.6861 203.105 49.9318 203.306 50.1108C203.511 50.2898 203.791 50.3792 204.146 50.3792H206.259V51.3167H204.146C203.703 51.3167 203.32 51.2386 202.999 51.0824C202.678 50.9261 202.431 50.7031 202.258 50.4133C202.085 50.1207 201.998 49.7741 201.998 49.3736C201.998 48.9701 202.089 48.6236 202.271 48.3338C202.453 48.044 202.713 47.821 203.051 47.6648C203.391 47.5085 203.796 47.4304 204.265 47.4304H206.958V53.9758H206.004ZM201.64 53.9758L203.498 50.7201H204.589L202.731 53.9758H201.64ZM212.179 53.9758V47.4304H213.185V50.277H213.85L216.202 47.4304H217.498L214.856 50.5838L217.532 53.9758H216.236L214.089 51.2145H213.185V53.9758H212.179ZM221.014 54.1122C220.423 54.1122 219.905 53.9716 219.459 53.6903C219.016 53.4091 218.669 53.0156 218.419 52.5099C218.172 52.0042 218.048 51.4133 218.048 50.7372C218.048 50.0554 218.172 49.4602 218.419 48.9517C218.669 48.4432 219.016 48.0483 219.459 47.767C219.905 47.4858 220.423 47.3451 221.014 47.3451C221.605 47.3451 222.122 47.4858 222.565 47.767C223.012 48.0483 223.358 48.4432 223.605 48.9517C223.855 49.4602 223.98 50.0554 223.98 50.7372C223.98 51.4133 223.855 52.0042 223.605 52.5099C223.358 53.0156 223.012 53.4091 222.565 53.6903C222.122 53.9716 221.605 54.1122 221.014 54.1122ZM221.014 53.2088C221.463 53.2088 221.833 53.0937 222.122 52.8636C222.412 52.6335 222.627 52.3309 222.766 51.9559C222.905 51.5809 222.975 51.1747 222.975 50.7372C222.975 50.2997 222.905 49.892 222.766 49.5142C222.627 49.1363 222.412 48.8309 222.122 48.598C221.833 48.365 221.463 48.2486 221.014 48.2486C220.565 48.2486 220.196 48.365 219.906 48.598C219.617 48.8309 219.402 49.1363 219.263 49.5142C219.124 49.892 219.054 50.2997 219.054 50.7372C219.054 51.1747 219.124 51.5809 219.263 51.9559C219.402 52.3309 219.617 52.6335 219.906 52.8636C220.196 53.0937 220.565 53.2088 221.014 53.2088ZM229.095 52.6122L231.379 47.4304H232.334L229.504 53.9758H228.686L225.907 47.4304H226.845L229.095 52.6122ZM226.521 47.4304V53.9758H225.515V47.4304H226.521ZM231.669 53.9758V47.4304H232.675V53.9758H231.669ZM234.515 53.9758V47.4304H239.663V53.9758H238.657V48.3679H235.521V53.9758H234.515ZM243.426 54.1292C243.011 54.1292 242.635 54.0511 242.297 53.8949C241.959 53.7358 241.69 53.5071 241.491 53.2088C241.292 52.9076 241.193 52.544 241.193 52.1179C241.193 51.7429 241.267 51.4389 241.415 51.2059C241.562 50.9701 241.76 50.7855 242.007 50.652C242.254 50.5184 242.527 50.419 242.825 50.3537C243.126 50.2855 243.429 50.2315 243.733 50.1917C244.13 50.1406 244.453 50.1023 244.7 50.0767C244.95 50.0483 245.132 50.0014 245.246 49.9361C245.362 49.8707 245.42 49.7571 245.42 49.5951V49.5611C245.42 49.1406 245.305 48.8139 245.075 48.5809C244.848 48.348 244.503 48.2315 244.04 48.2315C243.559 48.2315 243.183 48.3366 242.91 48.5469C242.638 48.7571 242.446 48.9815 242.335 49.2201L241.38 48.8792C241.551 48.4815 241.778 48.1719 242.062 47.9503C242.349 47.7258 242.662 47.5696 243 47.4815C243.341 47.3906 243.676 47.3451 244.005 47.3451C244.216 47.3451 244.457 47.3707 244.73 47.4219C245.005 47.4701 245.271 47.571 245.527 47.7244C245.785 47.8778 246 48.1094 246.17 48.419C246.341 48.7287 246.426 49.1434 246.426 49.6633V53.9758H245.42V53.0895H245.369C245.301 53.2315 245.187 53.3835 245.028 53.5454C244.869 53.7074 244.657 53.8451 244.393 53.9588C244.129 54.0724 243.807 54.1292 243.426 54.1292ZM243.579 53.2258C243.977 53.2258 244.312 53.1477 244.585 52.9915C244.861 52.8352 245.068 52.6335 245.207 52.3863C245.349 52.1392 245.42 51.8792 245.42 51.6065V50.6861C245.378 50.7372 245.284 50.7841 245.139 50.8267C244.997 50.8665 244.832 50.902 244.645 50.9332C244.46 50.9616 244.28 50.9872 244.103 51.0099C243.93 51.0298 243.79 51.0469 243.682 51.0611C243.42 51.0951 243.176 51.1505 242.949 51.2273C242.724 51.3011 242.542 51.4133 242.403 51.5639C242.267 51.7116 242.199 51.9133 242.199 52.169C242.199 52.5184 242.328 52.7826 242.586 52.9616C242.848 53.1378 243.179 53.2258 243.579 53.2258ZM252.642 50.2429V51.1804H249.029V50.2429H252.642ZM249.267 47.4304V53.9758H248.262V47.4304H249.267ZM253.409 47.4304V53.9758H252.404V47.4304H253.409ZM256.252 52.4929L259.405 47.4304H260.564V53.9758H259.558V48.9133L256.422 53.9758H255.246V47.4304H256.252V52.4929ZM266.344 53.9758V48.3508H264.605C264.213 48.3508 263.905 48.4417 263.68 48.6236C263.456 48.8054 263.344 49.0554 263.344 49.3736C263.344 49.6861 263.444 49.9318 263.646 50.1108C263.851 50.2898 264.13 50.3792 264.486 50.3792H266.599V51.3167H264.486C264.042 51.3167 263.66 51.2386 263.339 51.0824C263.018 50.9261 262.771 50.7031 262.598 50.4133C262.425 50.1207 262.338 49.7741 262.338 49.3736C262.338 48.9701 262.429 48.6236 262.611 48.3338C262.792 48.044 263.052 47.821 263.39 47.6648C263.731 47.5085 264.136 47.4304 264.605 47.4304H267.298V53.9758H266.344ZM261.98 53.9758L263.838 50.7201H264.929L263.071 53.9758H261.98Z" fill="#E9D758"/>
<path d="M56.2795 16.458H74.2085V21.496H68.1449V51.68H62.3432V21.496H56.2795V16.458Z" fill="#E9D758"/>
<path d="M70.8443 14.588H69.2932C68.6702 14.588 68.165 15.1396 68.165 15.82V18.328C68.165 19.0084 68.6702 19.56 69.2932 19.56H70.8443C71.4674 19.56 71.9725 19.0084 71.9725 18.328V15.82C71.9725 15.1396 71.4674 14.588 70.8443 14.588Z" fill="#E9D758"/>
<path d="M61.2144 14.588H59.6633C59.0402 14.588 58.5352 15.1396 58.5352 15.82V18.328C58.5352 19.0084 59.0402 19.56 59.6633 19.56H61.2144C61.8375 19.56 62.3425 19.0084 62.3425 18.328V15.82C62.3425 15.1396 61.8375 14.588 61.2144 14.588Z" fill="#E9D758"/>
<path d="M47.9598 14.588H46.4086C45.7856 14.588 45.2805 15.1396 45.2805 15.82V18.328C45.2805 19.0084 45.7856 19.56 46.4086 19.56H47.9598C48.5828 19.56 49.0879 19.0084 49.0879 18.328V15.82C49.0879 15.1396 48.5828 14.588 47.9598 14.588Z" fill="#E9D758"/>
<path d="M38.3302 14.588H36.779C36.1559 14.588 35.6509 15.1396 35.6509 15.82V18.328C35.6509 19.0084 36.1559 19.56 36.779 19.56H38.3302C38.9532 19.56 39.4583 19.0084 39.4583 18.328V15.82C39.4583 15.1396 38.9532 14.588 38.3302 14.588Z" fill="#E9D758"/>
<path d="M46.9728 17.074C46.6706 17.074 53.1573 24.796 60.4498 17.074" stroke="#E9D758" stroke-miterlimit="10"/>
<path d="M33.1731 41.78V39.976H39.9418V42.22C39.9418 44.244 39.9821 46.312 42.1778 46.312C44.3736 46.312 44.5348 44.2 44.5348 42.044V36.06H39.3576V32.254H44.5348V26.006C44.5348 23.652 44.1923 21.826 42.1778 21.826C40.0223 21.826 39.9418 23.938 39.9418 26.006V28.36H33.1731V26.666C33.1731 20.836 35.1876 16.458 42.1778 16.458C49.1681 16.458 51.5654 20.924 51.5654 27.898V40.174C51.5654 47.258 49.3293 51.658 42.1778 51.658C35.0264 51.658 33.1731 47.566 33.1731 41.78Z" fill="#E9D758"/>
<path d="M37.5442 17.074C39.0953 24.246 59.6633 36.566 70.0581 17.074" stroke="#E9D758" stroke-miterlimit="10"/>
</g>
<defs>
<clipPath id="clip0_214_55">
<rect width="278" height="121" fill="white" transform="translate(-2 -24)"/>
</clipPath>
</defs>
</svg>
