<svg width="350" height="350" viewBox="0 0 350 350" fill="none" xmlns="http://www.w3.org/2000/svg">
<path d="M177.451 51.1797C177.158 51.2969 177.07 53.4648 177.07 60.6719V70.0176H180.878H184.687V60.6719C184.687 52.4102 184.628 51.2969 184.218 51.1504C183.662 50.9453 177.978 50.9453 177.451 51.1797Z" fill="#FEFDFD" fill-opacity="0.52"/>
<path d="M170.742 53.4355C165.732 56.1016 161.63 60.4668 158.818 66.0625C157.207 69.3145 155.39 75.9062 155.39 78.543C155.39 79.0703 156.181 79.0996 180.878 79.0996C205.576 79.0996 206.367 79.0703 206.367 78.543C206.367 77.3418 205.458 72.8301 204.726 70.5449C202.763 64.334 198.808 58.7383 193.916 55.2227C192.128 53.9629 189.345 52.4395 188.789 52.4395C188.583 52.4395 188.496 55.9844 188.496 63.1328V73.8262H180.878H173.261V63.1328C173.261 54.7832 173.173 52.4395 172.91 52.4395C172.705 52.4395 171.708 52.8789 170.742 53.4355Z" fill="#FEFDFD" fill-opacity="0.52"/>
<path d="M157.324 84.4316C157.91 88.6503 159.99 93.3085 162.685 96.5605C165.703 100.193 170.244 103.064 174.931 104.353C178.154 105.203 183.603 105.203 186.855 104.324C196.113 101.834 202.968 94.1289 204.462 84.4316L204.667 83.2011H180.908H157.148L157.324 84.4316Z" fill="#FEFDFD" fill-opacity="0.52"/>
<path d="M169.248 106.551L167.402 106.961V146.805V186.619H180.732H194.062V146.805V106.99L192.597 106.668C191.777 106.492 190.839 106.346 190.517 106.346C190.166 106.346 188.642 107.576 186.796 109.334C185.068 110.975 183.134 112.82 182.46 113.436L181.289 114.549L176.777 110.301C173.818 107.488 172.089 106.053 171.679 106.082C171.328 106.082 170.244 106.287 169.248 106.551Z" fill="#FEFDFD" fill-opacity="0.52"/>
<path d="M197.871 147.361V186.619H199.482H201.093V147.947C201.093 126.678 201.035 109.275 200.947 109.275C200.888 109.275 200.156 109.012 199.335 108.689L197.871 108.104V147.361Z" fill="#FEFDFD" fill-opacity="0.52"/>
<path d="M161.777 109.158L160.371 109.861V148.24V186.619H161.982H163.593V147.508C163.593 126.004 163.505 108.396 163.388 108.396C163.242 108.426 162.539 108.748 161.777 109.158Z" fill="#FEFDFD" fill-opacity="0.52"/>
<path d="M204.902 149.119V186.619H209.443H213.984L214.042 170.564L214.13 154.539L215.361 157.762C218.261 165.291 219.96 172.645 221.22 183.25C221.572 186.385 221.718 190.574 221.777 201.063C221.865 216.766 221.865 216.619 224.238 219.256C227.636 222.947 233.437 223.709 238.388 221.102C241.406 219.52 243.31 216.707 243.896 212.928C244.306 210.291 244.072 189.197 243.574 184.422C242.138 170.418 239.414 158.875 235.048 148.152C230.039 135.965 221.982 124.539 213.251 117.244C210.673 115.076 205.693 111.619 205.166 111.619C205.019 111.619 204.902 127.381 204.902 149.119Z" fill="#FEFDFD" fill-opacity="0.52"/>
<path d="M155.39 112.117C152.373 112.615 147.861 114.725 144.404 117.186C143.115 118.123 140.888 119.617 139.453 120.555L136.875 122.225L137.724 122.723C140.185 124.246 142.88 128.816 144.082 133.621C144.873 136.668 145.429 140.77 145.429 143.318C145.429 145.721 145.576 145.984 146.601 145.457C147.07 145.223 147.509 145.018 147.626 145.018C147.714 145.018 147.773 154.363 147.773 165.818V186.619H152.167H156.562V149.266C156.562 128.729 156.474 111.941 156.357 111.941C156.21 111.971 155.8 112.059 155.39 112.117Z" fill="#FEFDFD" fill-opacity="0.52"/>
<path d="M108.222 121.961C106.406 122.459 104.941 123.396 103.593 124.978C102.451 126.238 100.546 129.812 100.166 131.336L99.9604 132.127H101.718H103.505L104.238 130.516C105.322 128.113 106.347 126.941 108.105 126.092C109.511 125.418 109.804 125.359 110.566 125.682C111.884 126.209 114.023 128.728 114.96 130.75C117.128 135.555 118.007 140.887 117.978 149.119C117.978 157.527 117.07 162.596 114.726 167.576C113.847 169.451 111.796 171.766 110.566 172.264C109.804 172.586 109.511 172.527 108.076 171.824C105.351 170.506 104.003 167.957 102.539 161.336C102.363 160.574 102.275 160.545 100.546 160.545H98.7593L98.9351 174.373C99.1108 188.084 99.1108 188.23 99.7554 188.758C100.605 189.461 101.367 189.373 102.216 188.523L102.949 187.82V180.027V172.264L104.003 173.436C104.589 174.08 105.791 174.959 106.699 175.398L108.369 176.219L120.615 176.307C133.974 176.394 134.794 176.336 137.255 174.695C140.566 172.498 143.115 166.727 144.111 159.168C144.697 154.803 144.697 143.113 144.14 138.865C142.968 130.164 140.039 124.305 135.849 122.371C134.472 121.756 134.15 121.727 121.992 121.668C112.792 121.609 109.189 121.697 108.222 121.961ZM134.208 125.857C137.226 126.941 139.16 130.75 140.332 137.869C141.005 141.853 141.093 155.037 140.507 159.227C139.541 166.082 137.578 170.418 134.824 171.853C134.062 172.234 131.367 172.908 131.367 172.674C131.367 172.644 131.806 171.824 132.363 170.887C133.71 168.631 134.736 165.467 135.527 161.219C136.083 158.172 136.171 156.736 136.171 148.973C136.171 141.209 136.083 139.773 135.527 136.756C134.736 132.508 133.623 129.08 132.333 126.941C131.806 126.062 131.367 125.271 131.367 125.213C131.367 125.037 132.802 125.359 134.208 125.857ZM119.208 125.945C122.314 127.381 124.277 131.746 125.244 139.451C125.712 143.084 125.712 155.213 125.244 158.787C124.453 164.822 122.841 169.129 120.761 170.916C119.677 171.853 117.978 172.557 116.777 172.557C116.191 172.557 116.22 172.41 117.304 170.418C119.97 165.496 120.937 159.666 120.937 148.973C120.937 138.279 119.97 132.449 117.304 127.498L116.162 125.389H117.099C117.626 125.389 118.564 125.652 119.208 125.945ZM126.269 125.857C129.14 127.234 131.601 132.596 132.89 140.33C133.476 143.816 133.359 155.037 132.714 158.641C131.455 165.555 129.257 170.242 126.503 171.853C125.273 172.586 124.335 172.762 124.335 172.293C124.335 172.117 124.482 171.912 124.658 171.795C125.244 171.443 127.207 166.902 127.822 164.5C128.964 159.959 129.169 157.469 129.169 148.973C129.169 137.898 128.437 133.416 125.8 128.143C124.335 125.213 124.365 124.949 126.269 125.857Z" fill="#FEFDFD" fill-opacity="0.52"/>
<path d="M133.417 126.941C133.417 127.029 133.769 127.85 134.179 128.787C135.878 132.625 137.197 139.803 137.255 145.545C137.285 147.098 137.373 148.738 137.49 149.178L137.666 149.969L138.896 149.412L140.156 148.855L139.98 145.691C139.511 136.609 138.281 131.365 136.054 128.787C135.234 127.85 133.417 126.59 133.417 126.941Z" fill="#FEFDFD" fill-opacity="0.52"/>
<path d="M120.175 129.988C119.531 130.135 119.531 130.398 120.117 132.273C121.259 136.082 121.757 140.359 121.904 148.006C121.992 152.166 122.138 155.564 122.226 155.564C122.285 155.564 122.9 155.418 123.515 155.213L124.687 154.861L124.541 147.391C124.365 138.719 123.837 134.969 122.226 131.16C121.64 129.813 121.406 129.666 120.175 129.988Z" fill="#FEFDFD" fill-opacity="0.52"/>
<path d="M126.679 127.791C126.679 127.879 127.031 128.729 127.441 129.637C129.228 133.68 130.195 140.037 130.253 148.035C130.253 150.73 130.341 152.928 130.4 152.928C130.458 152.928 130.957 152.723 131.513 152.518L132.539 152.078V149.471C132.539 142.615 131.25 135.613 129.199 131.424C128.496 129.959 127.617 128.494 127.294 128.201C126.943 127.879 126.679 127.703 126.679 127.791Z" fill="#FEFDFD" fill-opacity="0.52"/>
<path d="M112.47 132.303C110.068 132.947 106.113 133.562 101.953 133.914C97.2359 134.295 92.2554 133.943 86.8648 132.83C80.8296 131.57 77.5484 132.156 74.4136 135.057C67.7339 141.209 68.8179 152.254 76.4351 155.74C78.3687 156.648 83.1734 157.732 88.0074 158.377C92.4312 158.992 102.246 159.051 106.757 158.523C109.951 158.143 116.484 157.059 116.66 156.883C116.718 156.824 116.865 155.184 117.011 153.191C117.304 149.061 116.953 142.527 116.279 138.895C115.722 136.053 114.462 131.834 114.14 131.863C114.023 131.863 113.291 132.068 112.47 132.303Z" fill="#FEFDFD" fill-opacity="0.52"/>
<path d="M147.773 192.771V195.115H180.849C199.072 195.115 214.013 194.998 214.101 194.881C214.189 194.734 214.16 193.68 214.072 192.537L213.896 190.428H180.849H147.773V192.771Z" fill="#FEFDFD" fill-opacity="0.52"/>
<path d="M147.48 208.211C147.48 227.664 148.798 248.172 152.167 281.219C153.164 290.828 153.164 290.828 154.101 292.732C155.068 294.607 156.65 296.102 158.906 297.186C160.693 298.035 161.044 298.094 164.033 298.094C167.05 298.094 167.373 298.035 169.16 297.186C172.558 295.545 174.462 292.938 174.99 289.246C175.136 288.162 175.341 278.494 175.429 267.771C175.634 243.865 176.455 212.752 176.953 209.383L177.128 208.299H180.878H184.628L184.804 209.236C185.302 212.107 186.123 243.543 186.328 267.479C186.416 278.201 186.621 287.928 186.767 289.1C187.236 292.85 189.287 295.662 192.744 297.273C194.326 298.006 194.794 298.094 197.724 298.094C200.712 298.094 201.093 298.035 202.88 297.186C206.22 295.604 208.095 293.084 208.71 289.422C208.974 287.811 209.472 282.654 211.347 263.084C213.222 243.602 214.277 223.738 214.277 208.211V198.924H180.878H147.48V208.211Z" fill="#FEFDFD" fill-opacity="0.52"/>
<path d="M216.943 214.422C216.621 214.627 216.474 216.238 216.298 222.42C216.181 226.639 216.005 231.297 215.917 232.762C215.302 242.283 215.068 245.564 214.57 252.098C214.248 256.111 213.925 259.861 213.867 260.389L213.72 261.326H221.191H228.632V258.396C228.632 254.002 227.988 254.295 238.007 254.295C248.027 254.295 247.382 254.002 247.382 258.396V261.326H263.789H280.195V250.984C280.195 238.826 280.107 238.27 277.88 236.131C276.035 234.314 275.039 234.08 269.414 234.08H264.726L264.609 226.961C264.521 220.311 264.492 219.783 263.876 218.67C262.851 216.736 261.708 215.594 260.126 214.861C258.75 214.188 258.339 214.158 252.451 214.158H246.24L245.888 215.389C245.449 217.117 244.277 219.432 243.369 220.369L242.607 221.189L249.902 221.248L257.197 221.336L257.285 227.693L257.343 234.08H238.007H218.671L218.73 227.693L218.818 221.336L220.957 221.248L223.066 221.16L222.333 220.223C221.455 219.021 220.81 217.527 220.4 215.623L220.078 214.158H218.73C217.968 214.158 217.177 214.275 216.943 214.422Z" fill="#FEFDFD" fill-opacity="0.52"/>
<path d="M233.496 260.037C233.144 260.916 233.291 268.211 233.671 268.592C234.169 269.09 241.845 269.09 242.343 268.592C242.578 268.357 242.695 266.951 242.695 264.256C242.695 261.561 242.578 260.154 242.343 259.92C242.109 259.686 240.673 259.568 237.832 259.568C234.316 259.568 233.642 259.627 233.496 260.037Z" fill="#FEFDFD" fill-opacity="0.52"/>
<path d="M213.105 266.6C213.105 266.922 212.578 272.4 211.933 278.816C210.791 290.037 210.38 292.498 209.355 294.051L208.945 294.725H241.699H274.482L275.947 294.021C276.767 293.67 277.851 292.879 278.349 292.293C280.078 290.301 280.195 289.393 280.195 277.088V266.014H263.789H247.382V268.943C247.382 273.338 248.027 273.045 238.007 273.045C227.988 273.045 228.632 273.338 228.632 268.943V266.014H220.869C213.339 266.014 213.105 266.043 213.105 266.6Z" fill="#FEFDFD" fill-opacity="0.52"/>
</svg>
