<svg width="211" height="248" viewBox="0 0 211 248" fill="none" xmlns="http://www.w3.org/2000/svg">
<path d="M107.451 0.179686C107.158 0.296874 107.07 2.46484 107.07 9.67187V19.0176H110.878H114.687V9.67187C114.687 1.41016 114.628 0.296874 114.218 0.150389C113.662 -0.0546887 107.978 -0.0546887 107.451 0.179686Z" fill="#FEFDFD" fill-opacity="0.52"/>
<path d="M100.742 2.43555C95.7319 5.10156 91.6304 9.4668 88.8179 15.0625C87.2065 18.3145 85.3901 24.9062 85.3901 27.543C85.3901 28.0703 86.1812 28.0996 110.878 28.0996C135.576 28.0996 136.367 28.0703 136.367 27.543C136.367 26.3418 135.458 21.8301 134.726 19.5449C132.763 13.334 128.808 7.73828 123.916 4.22266C122.128 2.96289 119.345 1.43945 118.789 1.43945C118.583 1.43945 118.496 4.98438 118.496 12.1328V22.8262H110.878H103.261V12.1328C103.261 3.7832 103.173 1.43945 102.91 1.43945C102.705 1.43945 101.708 1.87891 100.742 2.43555Z" fill="#FEFDFD" fill-opacity="0.52"/>
<path d="M87.3237 33.4316C87.9097 37.6503 89.9897 42.3085 92.6851 45.5605C95.7026 49.1933 100.244 52.0644 104.931 53.3535C108.154 54.2031 113.603 54.2031 116.855 53.3242C126.113 50.8339 132.968 43.1289 134.462 33.4316L134.667 32.2011H110.908H87.1479L87.3237 33.4316Z" fill="#FEFDFD" fill-opacity="0.52"/>
<path d="M99.2476 55.5508L97.4019 55.9609V95.8047V135.619H110.732H124.062V95.8047V55.9902L122.597 55.668C121.777 55.4922 120.839 55.3457 120.517 55.3457C120.166 55.3457 118.642 56.5762 116.796 58.334C115.068 59.9746 113.134 61.8203 112.46 62.4355L111.289 63.5488L106.777 59.3008C103.818 56.4883 102.089 55.0527 101.679 55.082C101.328 55.082 100.244 55.2871 99.2476 55.5508Z" fill="#FEFDFD" fill-opacity="0.52"/>
<path d="M127.871 96.3613V135.619H129.482H131.093V96.9473C131.093 75.6777 131.035 58.2754 130.947 58.2754C130.888 58.2754 130.156 58.0117 129.335 57.6895L127.871 57.1035V96.3613Z" fill="#FEFDFD" fill-opacity="0.52"/>
<path d="M91.7769 58.1582L90.3706 58.8613V97.2402V135.619H91.9819H93.5933V96.5078C93.5933 75.0039 93.5054 57.3965 93.3882 57.3965C93.2417 57.4258 92.5386 57.748 91.7769 58.1582Z" fill="#FEFDFD" fill-opacity="0.52"/>
<path d="M134.902 98.1191V135.619H139.443H143.984L144.042 119.564L144.13 103.539L145.361 106.762C148.261 114.291 149.96 121.645 151.22 132.25C151.572 135.385 151.718 139.574 151.777 150.063C151.865 165.766 151.865 165.619 154.238 168.256C157.636 171.947 163.437 172.709 168.388 170.102C171.406 168.52 173.31 165.707 173.896 161.928C174.306 159.291 174.072 138.197 173.574 133.422C172.138 119.418 169.414 107.875 165.048 97.1523C160.039 84.9648 151.982 73.5391 143.251 66.2441C140.673 64.0762 135.693 60.6191 135.166 60.6191C135.019 60.6191 134.902 76.3809 134.902 98.1191Z" fill="#FEFDFD" fill-opacity="0.52"/>
<path d="M85.3901 61.1172C82.3726 61.6152 77.8608 63.7246 74.4038 66.1855C73.1147 67.123 70.8882 68.6172 69.4526 69.5547L66.8745 71.2246L67.7241 71.7227C70.1851 73.2461 72.8804 77.8164 74.0815 82.6211C74.8726 85.668 75.4292 89.7695 75.4292 92.3184C75.4292 94.7207 75.5757 94.9844 76.6011 94.457C77.0698 94.2227 77.5093 94.0176 77.6265 94.0176C77.7144 94.0176 77.7729 103.363 77.7729 114.818V135.619H82.1675H86.562V98.2656C86.562 77.7285 86.4741 60.9414 86.3569 60.9414C86.2104 60.9707 85.8003 61.0586 85.3901 61.1172Z" fill="#FEFDFD" fill-opacity="0.52"/>
<path d="M38.2222 70.9609C36.4058 71.4589 34.9409 72.3964 33.5933 73.9785C32.4507 75.2382 30.5464 78.8125 30.1655 80.3359L29.9604 81.1269H31.7183H33.5054L34.2378 79.5156C35.3218 77.1132 36.3472 75.9414 38.105 75.0918C39.5112 74.4179 39.8042 74.3593 40.5659 74.6816C41.8843 75.2089 44.0229 77.7285 44.9604 79.75C47.1284 84.5546 48.0073 89.8867 47.978 98.1191C47.978 106.527 47.0698 111.596 44.7261 116.576C43.8472 118.451 41.7964 120.766 40.5659 121.264C39.8042 121.586 39.5112 121.527 38.0757 120.824C35.3511 119.506 34.0034 116.957 32.5386 110.336C32.3628 109.574 32.2749 109.545 30.5464 109.545H28.7593L28.9351 123.373C29.1108 137.084 29.1108 137.23 29.7554 137.758C30.605 138.461 31.3667 138.373 32.2163 137.523L32.9487 136.82V129.027V121.264L34.0034 122.436C34.5894 123.08 35.7905 123.959 36.6987 124.398L38.3687 125.219L50.6147 125.307C63.9741 125.394 64.7944 125.336 67.2554 123.695C70.5659 121.498 73.1147 115.727 74.1108 108.168C74.6968 103.803 74.6968 92.1132 74.1401 87.8652C72.9683 79.164 70.0386 73.3046 65.8491 71.371C64.4722 70.7558 64.1499 70.7265 51.9917 70.6679C42.7925 70.6093 39.189 70.6972 38.2222 70.9609ZM64.2085 74.8574C67.2261 75.9414 69.1597 79.75 70.3315 86.8691C71.0054 90.8535 71.0933 104.037 70.5073 108.227C69.5405 115.082 67.5776 119.418 64.8237 120.853C64.062 121.234 61.3667 121.908 61.3667 121.674C61.3667 121.644 61.8062 120.824 62.3628 119.887C63.7104 117.631 64.7358 114.467 65.5269 110.219C66.0835 107.172 66.1714 105.736 66.1714 97.9726C66.1714 90.2089 66.0835 88.7734 65.5269 85.7558C64.7358 81.5078 63.6226 78.08 62.3335 75.9414C61.8062 75.0625 61.3667 74.2714 61.3667 74.2128C61.3667 74.0371 62.8022 74.3593 64.2085 74.8574ZM49.2085 74.9453C52.314 76.3808 54.2769 80.7461 55.2437 88.4511C55.7124 92.0839 55.7124 104.213 55.2437 107.787C54.4526 113.822 52.8413 118.129 50.7612 119.916C49.6772 120.853 47.978 121.557 46.7769 121.557C46.1909 121.557 46.2202 121.41 47.3042 119.418C49.9702 114.496 50.937 108.666 50.937 97.9726C50.937 87.2793 49.9702 81.4492 47.3042 76.498L46.1616 74.3886H47.0991C47.6265 74.3886 48.564 74.6523 49.2085 74.9453ZM56.269 74.8574C59.1401 76.2343 61.6011 81.5957 62.8901 89.33C63.4761 92.8164 63.3589 104.037 62.7144 107.641C61.4546 114.555 59.2573 119.242 56.5034 120.853C55.2729 121.586 54.3354 121.762 54.3354 121.293C54.3354 121.117 54.4819 120.912 54.6577 120.795C55.2437 120.443 57.2065 115.902 57.8218 113.5C58.9644 108.959 59.1694 106.469 59.1694 97.9726C59.1694 86.8984 58.437 82.416 55.8003 77.1425C54.3354 74.2128 54.3647 73.9492 56.269 74.8574Z" fill="#FEFDFD" fill-opacity="0.52"/>
<path d="M63.4175 75.9414C63.4175 76.0293 63.769 76.8496 64.1792 77.7871C65.8784 81.625 67.1968 88.8027 67.2554 94.5449C67.2847 96.0977 67.3726 97.7383 67.4897 98.1777L67.6655 98.9688L68.896 98.4121L70.1558 97.8555L69.98 94.6914C69.5112 85.6094 68.2808 80.3652 66.0542 77.7871C65.2339 76.8496 63.4175 75.5898 63.4175 75.9414Z" fill="#FEFDFD" fill-opacity="0.52"/>
<path d="M50.1753 78.9883C49.5308 79.1348 49.5308 79.3984 50.1167 81.2734C51.2593 85.082 51.7573 89.3594 51.9038 97.0059C51.9917 101.166 52.1382 104.564 52.2261 104.564C52.2847 104.564 52.8999 104.418 53.5152 104.213L54.687 103.861L54.5405 96.3906C54.3648 87.7188 53.8374 83.9688 52.2261 80.1602C51.6402 78.8125 51.4058 78.666 50.1753 78.9883Z" fill="#FEFDFD" fill-opacity="0.52"/>
<path d="M56.6792 76.791C56.6792 76.8789 57.0308 77.7285 57.4409 78.6367C59.228 82.6797 60.1948 89.0371 60.2534 97.0352C60.2534 99.7305 60.3413 101.928 60.3999 101.928C60.4585 101.928 60.9565 101.723 61.5132 101.518L62.5386 101.078V98.4707C62.5386 91.6152 61.2495 84.6133 59.1987 80.4238C58.4956 78.959 57.6167 77.4941 57.2944 77.2012C56.9429 76.8789 56.6792 76.7031 56.6792 76.791Z" fill="#FEFDFD" fill-opacity="0.52"/>
<path d="M42.4703 81.3027C40.0679 81.9472 36.1128 82.5625 31.9527 82.914C27.2359 83.2949 22.2554 82.9433 16.8648 81.83C10.8296 80.5703 7.54839 81.1562 4.41363 84.0566C-2.26606 90.209 -1.18207 101.254 6.43511 104.74C8.36871 105.648 13.1734 106.732 18.0074 107.377C22.4312 107.992 32.2457 108.051 36.7574 107.523C39.9507 107.143 46.4839 106.059 46.6597 105.883C46.7183 105.824 46.8648 104.184 47.0113 102.191C47.3043 98.0605 46.9527 91.5273 46.2789 87.8945C45.7222 85.0527 44.4625 80.834 44.1402 80.8633C44.023 80.8633 43.2906 81.0683 42.4703 81.3027Z" fill="#FEFDFD" fill-opacity="0.52"/>
<path d="M77.7729 141.771V144.115H110.849C129.072 144.115 144.013 143.998 144.101 143.881C144.189 143.734 144.16 142.68 144.072 141.537L143.896 139.428H110.849H77.7729V141.771Z" fill="#FEFDFD" fill-opacity="0.52"/>
<path d="M77.48 157.211C77.48 176.664 78.7983 197.172 82.1675 230.219C83.1636 239.828 83.1636 239.828 84.1011 241.732C85.0679 243.607 86.6499 245.102 88.9058 246.186C90.6929 247.035 91.0444 247.094 94.0327 247.094C97.0503 247.094 97.3726 247.035 99.1597 246.186C102.558 244.545 104.462 241.938 104.99 238.246C105.136 237.162 105.341 227.494 105.429 216.771C105.634 192.865 106.455 161.752 106.953 158.383L107.128 157.299H110.878H114.628L114.804 158.236C115.302 161.107 116.123 192.543 116.328 216.479C116.416 227.201 116.621 236.928 116.767 238.1C117.236 241.85 119.287 244.662 122.744 246.273C124.326 247.006 124.794 247.094 127.724 247.094C130.712 247.094 131.093 247.035 132.88 246.186C136.22 244.604 138.095 242.084 138.71 238.422C138.974 236.811 139.472 231.654 141.347 212.084C143.222 192.602 144.277 172.738 144.277 157.211V147.924H110.878H77.48V157.211Z" fill="#FEFDFD" fill-opacity="0.52"/>
<path d="M146.943 163.422C146.621 163.627 146.474 165.238 146.298 171.42C146.181 175.639 146.005 180.297 145.917 181.762C145.302 191.283 145.068 194.564 144.57 201.098C144.248 205.111 143.925 208.861 143.867 209.389L143.72 210.326H151.191H158.632V207.396C158.632 203.002 157.988 203.295 168.007 203.295C178.027 203.295 177.382 203.002 177.382 207.396V210.326H193.789H210.195V199.984C210.195 187.826 210.107 187.27 207.88 185.131C206.035 183.314 205.039 183.08 199.414 183.08H194.726L194.609 175.961C194.521 169.311 194.492 168.783 193.876 167.67C192.851 165.736 191.708 164.594 190.126 163.861C188.75 163.188 188.339 163.158 182.451 163.158H176.24L175.888 164.389C175.449 166.117 174.277 168.432 173.369 169.369L172.607 170.189L179.902 170.248L187.197 170.336L187.285 176.693L187.343 183.08H168.007H148.671L148.73 176.693L148.818 170.336L150.957 170.248L153.066 170.16L152.333 169.223C151.455 168.021 150.81 166.527 150.4 164.623L150.078 163.158H148.73C147.968 163.158 147.177 163.275 146.943 163.422Z" fill="#FEFDFD" fill-opacity="0.52"/>
<path d="M163.496 209.037C163.144 209.916 163.291 217.211 163.671 217.592C164.169 218.09 171.845 218.09 172.343 217.592C172.578 217.357 172.695 215.951 172.695 213.256C172.695 210.561 172.578 209.154 172.343 208.92C172.109 208.686 170.673 208.568 167.832 208.568C164.316 208.568 163.642 208.627 163.496 209.037Z" fill="#FEFDFD" fill-opacity="0.52"/>
<path d="M143.105 215.6C143.105 215.922 142.578 221.4 141.933 227.816C140.791 239.037 140.38 241.498 139.355 243.051L138.945 243.725H171.699H204.482L205.947 243.021C206.767 242.67 207.851 241.879 208.349 241.293C210.078 239.301 210.195 238.393 210.195 226.088V215.014H193.789H177.382V217.943C177.382 222.338 178.027 222.045 168.007 222.045C157.988 222.045 158.632 222.338 158.632 217.943V215.014H150.869C143.339 215.014 143.105 215.043 143.105 215.6Z" fill="#FEFDFD" fill-opacity="0.52"/>
</svg>
