<svg width="351" height="340" viewBox="0 0 351 340" fill="none" xmlns="http://www.w3.org/2000/svg">
<g clip-path="url(#clip0_167_99)">
<path d="M108 62.5333C108 64.6666 107.067 67.0666 106 68C104.933 68.9333 104 70.5333 104 71.6C104 72.5333 103.067 73.7333 102 74.1333C99.3333 75.2 99.4667 78.6666 102.267 78.6666C104.267 78.6666 104.133 78.9333 101.867 80.6666C99.4667 82.5333 99.4667 82.8 101.733 84.5333C103.733 86.1333 103.867 86.4 102 87.2C99.4667 88.1333 99.3333 90.6666 102 90.6666C103.067 90.6666 104 91.2 104 91.8666C104 92.5333 103.067 93.3333 102 93.8666C100.933 94.2666 100 95.2 100 96C100 96.6666 100.933 97.3333 102 97.3333C104.267 97.3333 104.667 101.467 102.8 105.067C102.133 106.267 101.2 108.4 100.8 109.6C100.267 111.6 98.5333 112 91.4667 112H82.8L82.4 106.933L82 102L74.4 101.6L66.6667 101.2V106C66.6667 108.933 65.8667 111.067 64.6667 111.467C63.2 112 62.6667 114.267 62.6667 118.8C62.6667 124.933 62.9333 125.333 66 125.333C68.1333 125.333 69.3333 126.133 69.3333 127.333C69.3333 129.067 66.1333 129.333 48.6667 129.333H28V193.333V257.333H48.6667H69.3333V260.667C69.3333 262.667 70.1333 264 71.2 264C72.2667 264 73.3333 264.933 73.8667 266C74.2667 267.333 76.4 268 80 268H85.3333V273.867V279.867L79.7333 280.267C74.6667 280.667 74 281.067 74 284C74 287.2 74.4 287.333 83.7333 287.733L93.3333 288.133V282.8C93.3333 278.4 94.4 276.267 99.0667 270.8L104.667 264.133H173.333L242 264L247.733 270.8C252.267 276.267 253.333 278.667 253.333 282.8V288.133L263.067 287.733C272.267 287.333 272.667 287.2 272.667 284C272.667 281.067 272 280.667 267.067 280.267L261.333 279.867V273.867V268H267.333C271.733 268 273.333 267.467 273.333 266C273.333 264.933 274.267 264 275.333 264C276.533 264 277.333 262.8 277.333 260.667V257.333H298H318.667V193.333V129.333H298C280.533 129.333 277.333 129.067 277.333 127.333C277.333 126.133 278.533 125.333 280.667 125.333C283.733 125.333 284 124.933 284 118.8C284 114.267 283.467 112 282 111.467C280.8 111.067 280 108.933 280 106V101.2L272.4 101.6L264.667 102L264.267 106.933L263.867 112H255.2C248.133 112 246.4 111.6 245.867 109.6C245.467 108.4 244.533 106.267 243.867 105.067C242 101.467 242.4 97.3333 244.667 97.3333C247.2 97.3333 247.2 96.1333 244.4 93.0666C242.4 90.8 242.4 90.6666 244.4 90.6666C247.2 90.6666 247.333 88.1333 244.667 87.2C243.6 86.6666 242.667 85.8666 242.667 85.0666C242.667 84.4 243.2 84.1333 243.867 84.6666C246.4 86.1333 247.067 82.2666 244.667 80.4C242.4 78.8 242.4 78.6666 244.4 78.6666C247.2 78.6666 247.467 74.8 244.667 73.8666C243.6 73.3333 242.667 72.2666 242.667 71.3333C242.667 70.4 241.733 68.9333 240.667 68C239.6 67.0666 238.667 64.6666 238.667 62.5333C238.667 59.6 238 58.6666 236 58.6666C234 58.6666 233.333 59.6 233.333 62.5333C233.333 64.6666 232.4 67.0666 231.333 68C230.267 68.9333 229.333 70.4 229.333 71.4666C229.333 72.4 228.267 73.8666 227.067 74.5333C224.8 75.8666 224.8 76.1333 227.067 77.8666C229.2 79.4666 229.2 79.7333 227.2 80.5333C224.933 81.4666 225.467 84.9333 227.867 84.4C230.133 83.8666 229.6 86.2666 227.333 87.2C224.667 88.1333 224.8 90.6666 227.6 90.6666C229.6 90.6666 229.6 90.8 227.6 93.0666C224.8 96.1333 224.8 97.3333 227.333 97.3333C229.6 97.3333 230 101.467 228.133 105.067C227.467 106.267 226.533 108.4 226.133 109.733C224.933 113.467 220.8 112 220.267 107.6C220 105.6 219.2 104 218.533 104C217.867 104 217.333 102.533 217.333 100.667C217.333 98.5333 218.133 97.3333 219.333 97.3333C222 97.3333 221.867 94.6666 219.067 92.5333C216.8 90.8 216.8 90.8 219.067 90.6666C221.867 90.6666 222.133 88.2666 219.333 87.2C218.267 86.6666 217.333 85.8666 217.333 85.0666C217.333 84.4 217.867 84.1333 218.533 84.6666C221.067 86.1333 221.733 82.2666 219.333 80.4C217.067 78.8 217.067 78.6666 219.067 78.6666C221.733 78.6666 222.133 75.3333 219.733 73.7333C216.933 72 214.667 66.9333 214.667 62.6666C214.667 59.3333 214.133 58.6666 211.333 58.6666C208.4 58.6666 208 59.2 208 63.3333C208 65.8666 207.467 68 206.667 68C206 68 205.333 68.6666 205.333 69.6C205.333 70.4 204 72.5333 202.533 74.2666C199.867 76.9333 199.867 77.3333 201.867 78.1333C204 78.9333 204 79.0666 201.867 80.6666C199.6 82.2666 200.4 86 202.8 84.6666C203.467 84.1333 204 84.4 204 85.0666C204 85.8666 203.067 86.6666 202 87.2C200.933 87.6 200 88.5333 200 89.3333C200 90 200.933 90.6666 202 90.6666C203.067 90.6666 204 91.2 204 91.8666C204 92.5333 203.067 93.3333 202 93.8666C199.467 94.8 199.333 97.3333 201.867 97.3333C205.067 97.3333 205.733 99.8666 203.467 103.333C202.267 105.067 201.333 107.733 201.333 109.333C201.333 111.067 200.4 112 198.667 112C196.933 112 196 111.067 196 109.467C196 108 195.067 106 194 104.8C192.933 103.733 192 101.6 192 100.133C192 98.5333 192.8 97.3333 194 97.3333C196.667 97.3333 196.533 94.6666 193.733 92.5333C191.467 90.8 191.467 90.8 193.733 90.6666C196.667 90.6666 196.8 86.6666 193.733 86.6666C191.733 86.6666 191.867 86.4 194.133 84.6666C196.667 82.6666 196.667 82.6666 194.133 80.6666C191.867 78.9333 191.733 78.6666 193.733 78.6666C196.4 78.6666 196.8 75.3333 194.4 73.7333C191.6 72 189.333 66.9333 189.333 62.6666C189.333 59.3333 188.8 58.6666 186 58.6666C183.067 58.6666 182.667 59.2 182.667 63.3333C182.667 65.8666 182.133 68 181.333 68C180.667 68 180 68.6666 180 69.6C180 70.4 178.667 72.5333 177.2 74.2666C174.667 76.9333 174.533 77.3333 176.4 78.1333C178.4 78.8 178.4 79.2 176.667 80.9333C174.533 82.9333 175.2 86 177.467 84.6666C178.133 84.1333 178.667 84.4 178.667 85.0666C178.667 85.8666 177.733 86.6666 176.667 87.2C175.6 87.6 174.667 88.5333 174.667 89.3333C174.667 90 175.6 90.6666 176.667 90.6666C179.333 90.6666 179.2 92 176.4 94.1333C174.133 95.8666 174.133 96 177.067 96.8C180.533 97.7333 180.8 99.7333 178 103.467C176.933 104.8 176 107.333 176 108.933C176 111.067 175.2 112 173.333 112C171.467 112 170.667 111.067 170.667 108.8C170.667 107.067 169.733 104.933 168.667 104C167.6 103.067 166.667 101.2 166.667 99.8666C166.667 98.4 167.6 97.3333 168.667 97.3333C171.067 97.3333 171.333 93.8666 169.067 92.8C167.733 92.1333 167.733 91.8666 169.067 91.2C170.933 90.2666 171.2 86.6666 169.333 86.6666C168.667 86.6666 168 86 168 85.2C168 84.5333 168.667 84.2666 169.333 84.6666C171.2 85.8666 170.933 82.1333 169.067 80.2666C167.867 79.0666 167.867 78.6666 169.067 78.6666C171.333 78.6666 171.067 74.6666 168.667 73.8666C167.6 73.3333 166.667 71.8666 166.667 70.5333C166.667 69.2 166.133 68 165.333 68C164.667 68 164 65.8666 164 63.3333C164 59.2 163.6 58.6666 160.667 58.6666C157.867 58.6666 157.333 59.3333 157.333 62.6666C157.333 66.9333 155.067 72 152.4 73.7333C149.867 75.3333 150.267 78.6666 153.067 78.6666C155.2 78.8 155.2 78.8 153.067 80.1333C150.267 81.7333 149.867 84.8 152.4 85.7333C153.733 86.2666 153.733 86.5333 152.4 86.5333C149.733 86.6666 150.4 90.6666 153.067 90.6666C155.2 90.8 155.2 90.8 153.067 92.5333C150.133 94.6666 150 97.3333 152.667 97.3333C153.733 97.3333 154.667 98.4 154.667 99.8666C154.667 101.2 153.733 103.067 152.667 104C151.6 104.933 150.667 107.067 150.667 108.8C150.667 111.067 149.867 112 148 112C146.267 112 145.333 111.067 145.333 109.467C145.333 108.133 144.4 105.333 143.467 103.2C141.333 99.2 141.733 97.3333 144.8 97.3333C147.333 97.3333 147.2 94.8 144.667 93.8666C143.6 93.3333 142.667 92.5333 142.667 91.8666C142.667 91.2 143.6 90.6666 144.667 90.6666C145.733 90.6666 146.667 90 146.667 89.3333C146.667 88.5333 145.733 87.6 144.667 87.2C142.4 86.2666 141.867 83.8666 144.133 84.4C146.533 84.9333 147.067 81.4666 144.8 80.5333C142.8 79.7333 142.8 79.4666 144.933 77.8666C147.2 76.2666 147.2 76 144.4 74C142.667 72.8 141.333 70.9333 141.333 69.8666C141.333 68.8 140.8 68 140 68C139.333 68 138.667 65.8666 138.667 63.3333C138.667 59.2 138.267 58.6666 135.333 58.6666C132.533 58.6666 132 59.3333 132 62.6666C132 66.9333 129.733 72 127.067 73.7333C124.533 75.3333 124.933 78.6666 127.6 78.6666C129.6 78.6666 129.467 78.9333 127.2 80.6666C124.8 82.5333 124.8 82.8 127.067 84.5333C129.067 86.1333 129.2 86.4 127.333 87.2C124.533 88.2666 124.8 90.6666 127.733 90.6666C129.867 90.8 129.867 90.8 127.733 92.5333C124.8 94.6666 124.667 97.3333 127.333 97.3333C128.533 97.3333 129.333 98.5333 129.333 100.667C129.333 102.533 128.8 104 128.133 104C127.467 104 126.667 105.6 126.4 107.6C125.867 112 121.733 113.467 120.533 109.733C120.133 108.4 119.2 106.267 118.533 105.067C116.667 101.467 117.067 97.3333 119.333 97.3333C120.4 97.3333 121.333 96.6666 121.333 96C121.333 95.2 120.4 94.2666 119.333 93.8666C118.267 93.3333 117.333 92.5333 117.333 91.8666C117.333 91.2 118.267 90.6666 119.333 90.6666C122 90.6666 121.867 88.1333 119.333 87.2C117.467 86.4 117.6 86.1333 119.6 84.5333C121.867 82.8 121.867 82.5333 119.467 80.6666C117.2 78.9333 117.067 78.6666 119.067 78.6666C121.867 78.6666 122 75.2 119.333 74.1333C118.267 73.7333 117.333 72.5333 117.333 71.6C117.333 70.5333 116.4 68.9333 115.333 68C114.267 67.0666 113.333 64.6666 113.333 62.5333C113.333 59.6 112.667 58.6666 110.667 58.6666C108.667 58.6666 108 59.6 108 62.5333ZM137.333 65.2C137.333 67.2 138 69.4666 138.933 70.4C139.733 71.2 140.4 73.8666 140.267 76.2666C140.267 78.6666 140.933 81.0666 141.733 81.6C142.933 82.4 142.933 82.6666 141.733 82.6666C140.8 82.6666 140 83.8666 140 85.3333C140 86.8 140.8 88 141.733 88C142.8 88 142.933 88.2666 141.867 89.0666C140.267 90 140.267 101.867 142 108.267C142.933 112 142.933 112 136.133 112C128.4 112 126.133 109.6 129.867 105.467C132.267 102.933 132.8 96 130.667 96C129.867 96 130 94.8 130.933 93.2C132.267 90.9333 132.267 90.1333 131.067 89.7333C129.733 89.3333 129.733 88.5333 131.067 86.5333C132.4 84.4 132.267 83.7333 130.667 82.6666C129.333 81.8666 129.2 81.3333 130.4 81.3333C131.2 81.3333 132 80.1333 132 78.6666C132 77.2 131.2 76 130.4 75.8666C129.067 75.8666 129.067 75.6 130.4 75.0666C131.2 74.8 132 73.3333 132 71.8666C132 70.5333 132.667 69.3333 133.333 69.3333C134.133 69.3333 134.667 67.2 134.667 64.5333C134.667 61.7333 135.2 60.1333 136 60.6666C136.8 61.0666 137.333 63.2 137.333 65.2ZM163.733 69.7333C165.333 71.6 165.733 75.2 165.6 88.6666C165.6 97.7333 166 105.6 166.8 106C167.467 106.533 168 108 168 109.467C168 111.6 167.067 112 161.333 112C153.6 112 152.267 110.4 155.333 104.533C157.6 100.133 158 96 156 96C155.2 96 155.333 94.8 156.267 93.2C157.733 90.8 157.733 90.1333 156.267 89.7333C154.933 89.2 154.933 88.6666 156.133 87.2C157.2 85.8666 157.2 84.8 156.133 83.6C155.067 82.2666 155.2 81.3333 156.267 80.2666C157.333 79.2 157.333 78.2666 156 76.6666C154.933 75.3333 154.8 74.6666 155.867 74.6666C156.667 74.6666 157.333 73.4666 157.333 72.1333C157.333 70.6666 158 69.0666 158.667 68.6666C159.467 68.2666 160.133 65.8666 160.133 63.6L160.4 59.3333L160.933 63.3333C161.333 65.4666 162.533 68.4 163.733 69.7333ZM188.133 68.5333C188.8 69.3333 189.333 70.9333 189.333 72.2666C189.333 73.6 190 74.6666 190.8 74.6666C191.867 74.6666 191.867 75.3333 190.667 76.6666C189.333 78.1333 189.333 79.0666 190.533 80.5333C191.733 82 191.733 82.5333 190.4 83.0666C189.067 83.4666 188.933 84.2666 190.267 86.4C191.6 88.5333 191.6 89.3333 190.267 89.7333C189.067 90.1333 189.067 90.9333 190.4 93.2C191.333 94.8 191.467 96 190.667 96C188.667 96 189.067 101.733 191.467 105.067C194.8 109.867 193.067 112 185.333 112C179.6 112 178.667 111.6 178.667 109.467C178.667 108 179.2 106.533 179.867 106.133C180.533 105.6 181.067 97.8666 180.933 88.9333C180.933 75.6 181.333 71.8666 183.067 69.2C184.267 67.4666 185.467 64.5333 185.467 62.6666C185.733 59.7333 185.867 59.8666 186.267 63.3333C186.667 65.4666 187.467 67.8666 188.133 68.5333ZM213.467 69.3333C214.133 69.3333 214.667 70.5333 214.667 72C214.667 73.4666 215.467 74.6666 216.4 74.8C217.733 74.8 217.733 75.0666 216.4 75.6C215.467 75.8666 214.667 77.3333 214.667 78.8C214.667 80.1333 215.467 81.3333 216.4 81.3333C217.467 81.3333 217.333 81.8666 216 82.6666C214.4 83.7333 214.267 84.4 215.6 86.5333C216.933 88.5333 216.933 89.3333 215.6 89.7333C214.4 90.1333 214.4 90.9333 215.733 93.2C216.667 94.8 216.8 96 216 96C214 96 214.4 101.733 216.8 105.067C220.133 109.867 218.4 112 210.667 112C204.933 112 204 111.6 204 109.467C204 108 204.667 106.4 205.333 106C207.067 104.933 206.533 90.2666 204.8 89.0666C203.867 88.4 203.867 88 205.067 88C205.867 88 206.667 86.8 206.667 85.3333C206.667 83.8666 205.867 82.6666 205.067 82.6666C203.733 82.6666 203.733 82.4 204.933 81.6C205.733 81.0666 206.4 78.6666 206.4 76.2666C206.267 73.8666 206.933 71.2 207.733 70.4C208.667 69.4666 209.333 67.2 209.333 65.3333C209.333 59.7333 211.333 59.2 211.733 64.5333C212 67.2 212.667 69.3333 213.467 69.3333ZM112 65.0666C112 67.0666 112.667 69.4666 113.6 70.4C114.4 71.2 115.067 73.8666 114.933 76.2666C114.933 78.6666 115.6 81.0666 116.4 81.6C117.6 82.4 117.6 82.6666 116.4 82.6666C115.467 82.6666 114.667 83.8666 114.667 85.3333C114.667 86.8 115.467 88 116.4 88C117.467 88 117.333 88.5333 116 89.3333C114.4 90.4 114.267 91.0666 115.733 93.3333C116.667 94.9333 116.8 96 116 96C113.867 96 114.4 103.6 116.8 106C120.533 109.6 118.133 112 110.667 112C103.2 112 100.8 109.6 104.533 106C106.933 103.6 107.467 96 105.333 96C104.533 96 104.667 94.9333 105.6 93.3333C107.067 91.0666 106.933 90.4 105.333 89.3333C104 88.5333 103.867 88 105.067 88C105.867 88 106.667 86.8 106.667 85.3333C106.667 83.8666 105.867 82.6666 105.067 82.5333C103.733 82.5333 103.733 82.2666 105.067 81.7333C105.867 81.4666 106.667 80 106.667 78.5333C106.667 77.2 105.867 76 105.067 76C104 76 103.867 75.6 104.667 74.9333C107.067 73.2 109.333 68.1333 109.333 64.6666C109.333 62.8 110 61.3333 110.667 61.3333C111.467 61.3333 112 63.0666 112 65.0666ZM237.333 64.6666C237.333 68.1333 239.6 73.2 242 74.9333C242.8 75.6 242.667 76 241.733 76C240.8 76 240 77.2 240 78.6666C240 80.1333 240.8 81.3333 241.733 81.3333C242.8 81.3333 242.667 81.8666 241.333 82.6666C239.733 83.7333 239.6 84.4 240.933 86.5333C242.267 88.5333 242.267 89.3333 240.933 89.7333C239.733 90.1333 239.733 90.9333 241.067 93.2C242 94.8 242.133 96 241.333 96C239.2 96 239.733 102.933 242.133 105.467C245.867 109.6 243.6 112 236 112C228.533 112 226.133 109.6 229.867 106C232.267 103.467 232.4 90.6666 230.133 89.0666C229.2 88.4 229.2 88 230.4 88C231.2 88 232 86.8 232 85.3333C232 83.8666 231.2 82.6666 230.4 82.5333C229.067 82.5333 229.067 82.2666 230.4 81.7333C231.2 81.4666 232 80 232 78.5333C232 77.2 231.2 76 230.4 76C229.333 76 229.2 75.6 230 74.9333C232.4 73.2 234.667 68.1333 234.667 64.6666C234.667 62.8 235.333 61.3333 236 61.3333C236.8 61.3333 237.333 62.8 237.333 64.6666ZM80 108.133C80 112 79.8667 112.133 74.4 111.733C69.2 111.333 68.6667 110.933 68.2667 107.6C67.8667 104.133 68 104 73.8667 104C79.8667 104 80 104.133 80 108.133ZM278.4 107.6C278 110.933 277.467 111.333 272.4 111.733C266.8 112.133 266.667 112 266.667 108.133C266.667 104.133 266.8 104 272.8 104C278.667 104 278.8 104.133 278.4 107.6ZM282 118V122L173.733 122.4L65.3333 122.667V118V113.333L173.733 113.6L282 114V118ZM274.667 193.333V261.333H173.333H72V193.333V125.333H173.333H274.667V193.333ZM69.3333 194V256H50H30.6667V194V132H50H69.3333V194ZM316.667 194V255.333L297.067 255.733L277.333 256.133V194V131.867L297.067 132.267L316.667 132.667V194ZM91.7333 274.933L91.3333 286L83.7333 286.4C77.4667 286.667 76 286.4 76 284.667C76 283.2 77.4667 282.667 82 282.667H88V274.667V266.667H82C78.6667 266.667 76 266 76 265.333C76 264.533 79.6 264 84 264H92.1333L91.7333 274.933ZM98.6667 268C94.5333 273.867 93.3333 274 93.3333 268.8C93.3333 264.4 93.6 264 97.4667 264H101.467L98.6667 268ZM253.333 268.667C253.333 271.2 253.067 273.333 252.8 273.333C252.533 273.333 250.667 271.2 248.8 268.667L245.2 264H249.2C253.067 264 253.333 264.4 253.333 268.667ZM270.667 265.333C270.667 266 268 266.667 264.667 266.667H258.667V274.667V282.667H264.667C269.2 282.667 270.667 283.2 270.667 284.667C270.667 286.4 269.2 286.667 263.067 286.4L255.333 286L255.2 276C255.067 270.533 255.2 265.6 255.6 264.933C256.4 263.467 270.667 263.867 270.667 265.333Z" fill="white" fill-opacity="0.52"/>
<path d="M84 194C84 232.667 84.4 253.333 85.3333 253.333C86.2667 253.333 86.6667 232.667 86.6667 194C86.6667 155.333 86.2667 134.667 85.3333 134.667C84.4 134.667 84 155.333 84 194Z" fill="white" fill-opacity="0.52"/>
<path d="M90.6668 192.667C90.6668 224.533 90.6668 251.067 90.5334 251.6C90.5334 252.133 91.0668 252.8 91.8668 253.067C92.9334 253.467 93.3334 235.867 93.3334 194.133C93.3334 155.333 92.9334 134.667 92.0001 134.667C91.0668 134.667 90.6668 154.933 90.6668 192.667Z" fill="white" fill-opacity="0.52"/>
<path d="M96 194.133C96 241.067 96.4 253.467 97.7333 253.067C98.9333 252.533 99.4667 239.2 99.7333 193.6C100 141.733 99.7333 134.667 98 134.667C96.2667 134.667 96 142 96 194.133Z" fill="white" fill-opacity="0.52"/>
<path d="M102.667 194C102.667 232.667 103.067 253.333 104 253.333C104.933 253.333 105.333 232.667 105.333 194C105.333 155.333 104.933 134.667 104 134.667C103.067 134.667 102.667 155.333 102.667 194Z" fill="white" fill-opacity="0.52"/>
<path d="M109.333 194C109.333 232.667 109.733 253.333 110.667 253.333C111.6 253.333 112 232.667 112 194C112 155.333 111.6 134.667 110.667 134.667C109.733 134.667 109.333 155.333 109.333 194Z" fill="white" fill-opacity="0.52"/>
<path d="M114.933 193.6C115.2 239.2 115.733 252.533 117.067 253.067C118.267 253.467 118.667 241.067 118.667 194.133C118.667 142 118.4 134.667 116.667 134.667C114.933 134.667 114.667 141.733 114.933 193.6Z" fill="white" fill-opacity="0.52"/>
<path d="M121.333 194C121.333 232.667 121.733 253.333 122.667 253.333C123.6 253.333 124 232.667 124 194C124 155.333 123.6 134.667 122.667 134.667C121.733 134.667 121.333 155.333 121.333 194Z" fill="white" fill-opacity="0.52"/>
<path d="M128 194C128 232.667 128.4 253.333 129.333 253.333C130.267 253.333 130.667 232.667 130.667 194C130.667 155.333 130.267 134.667 129.333 134.667C128.4 134.667 128 155.333 128 194Z" fill="white" fill-opacity="0.52"/>
<path d="M134.667 194C134.667 232.667 135.067 253.333 136 253.333C136.933 253.333 137.333 232.667 137.333 194C137.333 155.333 136.933 134.667 136 134.667C135.067 134.667 134.667 155.333 134.667 194Z" fill="white" fill-opacity="0.52"/>
<path d="M140 194.133C140 241.067 140.4 253.467 141.733 253.067C142.933 252.533 143.467 242.667 143.733 210.933C143.867 184.667 144.533 169.333 145.333 169.333C146.133 169.333 146.667 184.667 146.667 211.333C146.667 238 147.2 253.333 148 253.333C148.8 253.333 149.467 238 149.6 212C149.867 185.6 150.533 170.667 151.333 170.667C152.133 170.667 152.8 185.6 153.067 212C153.2 238 153.867 253.333 154.667 253.333C155.467 253.333 156 238 156 211.333C156 184.667 156.533 169.333 157.333 169.333C158.133 169.333 158.8 184.667 158.933 210.933C159.2 242.667 159.733 252.533 161.067 253.067C162.267 253.467 162.667 244.533 162.667 211.467C162.667 184.267 163.2 169.333 164 169.333C164.8 169.333 165.333 184.267 165.333 211.333C165.333 238 165.867 253.333 166.667 253.333C167.467 253.333 168.133 238 168.267 212C168.533 185.6 169.2 170.667 170 170.667C170.8 170.667 171.467 185.6 171.733 212C171.867 237.6 172.533 253.333 173.333 253.333C174.133 253.333 174.8 237.6 174.933 212C175.2 185.6 175.867 170.667 176.667 170.667C177.467 170.667 178.133 185.6 178.4 212C178.533 238 179.2 253.333 180 253.333C180.8 253.333 181.333 238 181.333 211.333C181.333 184.267 181.867 169.333 182.667 169.333C183.467 169.333 184 184.267 184 211.467C184 244.533 184.4 253.467 185.733 253.067C186.933 252.533 187.467 242.667 187.733 210.933C187.867 184.667 188.533 169.333 189.333 169.333C190.133 169.333 190.667 184.667 190.667 211.333C190.667 238 191.2 253.333 192 253.333C192.8 253.333 193.467 238 193.6 212C193.867 185.6 194.533 170.667 195.333 170.667C196.133 170.667 196.8 185.6 197.067 212C197.2 238 197.867 253.333 198.667 253.333C199.467 253.333 200 238 200 211.333C200 184.667 200.533 169.333 201.333 169.333C202.133 169.333 202.8 184.667 202.933 210.933C203.2 242.667 203.733 252.533 205.067 253.067C206.267 253.467 206.667 241.067 206.667 194.133C206.667 142.133 206.4 134.667 204.667 134.667C203.2 134.667 202.667 136.133 202.667 140.133C202.667 143.333 202.133 145.2 201.333 144.667C200.667 144.267 200 141.733 200 139.2C200 133.2 197.6 133.333 197.067 139.333C196.8 142 196.133 144 195.333 144C194.667 144 193.867 142 193.6 139.333C193.067 132.933 190.667 133.467 190.667 140C190.667 142.933 190.133 145.333 189.333 145.333C188.667 145.333 188 142.933 188 140C188 136.133 187.467 134.667 186 134.667C184.533 134.667 184 136.133 184 140C184 142.933 183.467 145.333 182.667 145.333C182 145.333 181.333 142.933 181.333 140C181.333 133.467 178.933 132.933 178.4 139.333C178.133 142 177.467 144 176.667 144C176 144 175.2 142 174.933 139.333C174.667 136.8 174 134.667 173.333 134.667C172.667 134.667 172 136.8 171.733 139.333C171.467 142 170.8 144 170 144C169.333 144 168.533 142 168.267 139.333C167.733 132.933 165.333 133.467 165.333 140C165.333 142.933 164.8 145.333 164 145.333C163.333 145.333 162.667 142.933 162.667 140C162.667 136.133 162.133 134.667 160.667 134.667C159.2 134.667 158.667 136.133 158.667 140C158.667 142.933 158.133 145.333 157.333 145.333C156.667 145.333 156 142.933 156 140C156 133.467 153.6 132.933 153.067 139.333C152.533 145.733 150.133 145.867 149.6 139.6C149.067 132.933 146.667 133.2 146.667 140C146.667 142.933 146.133 145.333 145.333 145.333C144.667 145.333 144 142.933 144 140C144 136.133 143.467 134.667 142 134.667C140.267 134.667 140 142.133 140 194.133ZM204 157.333V168L173.733 167.733L143.333 167.333L142.933 158.8C142.667 154.133 142.8 149.467 143.2 148.533C143.733 147.067 149.867 146.667 174 146.667H204V157.333Z" fill="white" fill-opacity="0.52"/>
<path d="M153.067 148.933C157.6 149.2 165.067 149.2 169.733 148.933C174.267 148.667 170.533 148.533 161.333 148.533C152.133 148.533 148.4 148.667 153.067 148.933Z" fill="white" fill-opacity="0.52"/>
<path d="M188 153.2C186.133 156.8 186.267 158.667 188.533 158.667C189.733 158.667 190.133 159.6 189.733 161.6C189.2 164.267 189.467 164 191.867 160.667C194.267 157.333 194.267 156.533 192.667 156.267C191.2 155.867 190.8 154.933 191.333 153.2C192.4 149.867 189.867 149.867 188 153.2Z" fill="white" fill-opacity="0.52"/>
<path d="M153.733 152.933C158.667 153.2 166.533 153.2 171.067 152.933C175.6 152.667 171.6 152.533 162 152.533C152.533 152.533 148.8 152.667 153.733 152.933Z" fill="white" fill-opacity="0.52"/>
<path d="M153.733 155.6C158.667 155.866 166.533 155.866 171.067 155.6C175.6 155.333 171.6 155.2 162 155.2C152.533 155.2 148.8 155.333 153.733 155.6Z" fill="white" fill-opacity="0.52"/>
<path d="M153.733 159.6C158.667 159.866 166.533 159.866 171.067 159.6C175.6 159.333 171.6 159.2 162 159.2C152.533 159.2 148.8 159.333 153.733 159.6Z" fill="white" fill-opacity="0.52"/>
<path d="M153.733 162.267C158.667 162.533 166.533 162.533 171.067 162.267C175.6 162 171.6 161.867 162 161.867C152.533 161.867 148.8 162 153.733 162.267Z" fill="white" fill-opacity="0.52"/>
<path d="M153.067 166.267C157.6 166.533 165.067 166.533 169.733 166.267C174.267 166 170.533 165.867 161.333 165.867C152.133 165.867 148.4 166 153.067 166.267Z" fill="white" fill-opacity="0.52"/>
<path d="M209.333 194.133C209.333 241.067 209.733 253.467 211.067 253.067C212.267 252.533 212.8 239.867 213.067 196.533C213.467 141.067 213.2 134.667 210.667 134.667C209.867 134.667 209.333 156.133 209.333 194.133Z" fill="white" fill-opacity="0.52"/>
<path d="M216 194C216 232.667 216.4 253.333 217.333 253.333C218.267 253.333 218.667 232.667 218.667 194C218.667 155.333 218.267 134.667 217.333 134.667C216.4 134.667 216 155.333 216 194Z" fill="white" fill-opacity="0.52"/>
<path d="M222.667 194C222.667 232.667 223.067 253.333 224 253.333C224.933 253.333 225.333 232.667 225.333 194C225.333 155.333 224.933 134.667 224 134.667C223.067 134.667 222.667 155.333 222.667 194Z" fill="white" fill-opacity="0.52"/>
<path d="M228.267 193.6C228.533 239.2 229.067 252.533 230.4 253.067C231.6 253.467 232 241.067 232 194.133C232 142 231.733 134.667 230 134.667C228.267 134.667 228 141.733 228.267 193.6Z" fill="white" fill-opacity="0.52"/>
<path d="M234.667 194C234.667 232.667 235.067 253.333 236 253.333C236.933 253.333 237.333 232.667 237.333 194C237.333 155.333 236.933 134.667 236 134.667C235.067 134.667 234.667 155.333 234.667 194Z" fill="white" fill-opacity="0.52"/>
<path d="M241.333 194C241.333 232.667 241.733 253.333 242.667 253.333C243.6 253.333 244 232.667 244 194C244 155.333 243.6 134.667 242.667 134.667C241.733 134.667 241.333 155.333 241.333 194Z" fill="white" fill-opacity="0.52"/>
<path d="M247.333 136.266C246.933 137.2 246.8 163.733 247.067 195.2C247.2 239.6 247.733 252.533 249.067 252.933C250.267 253.466 250.667 241.066 250.667 194.133C250.667 154.133 250.267 134.666 249.333 134.666C248.533 134.666 247.6 135.466 247.333 136.266Z" fill="white" fill-opacity="0.52"/>
<path d="M253.333 194.133C253.333 241.067 253.733 253.467 255.067 253.067C256.267 252.533 256.8 239.2 257.067 193.6C257.333 141.733 257.067 134.667 255.333 134.667C253.6 134.667 253.333 142 253.333 194.133Z" fill="white" fill-opacity="0.52"/>
<path d="M260 194C260 232.667 260.4 253.333 261.333 253.333C262.267 253.333 262.667 232.667 262.667 194C262.667 155.333 262.267 134.667 261.333 134.667C260.4 134.667 260 155.333 260 194Z" fill="white" fill-opacity="0.52"/>
</g>
<defs>
<clipPath id="clip0_167_99">
<rect width="351" height="340" fill="white"/>
</clipPath>
</defs>
</svg>
