<svg width="251" height="246" viewBox="0 0 251 246" fill="none" xmlns="http://www.w3.org/2000/svg">
<path d="M60.9778 4.37528C60.0444 6.55304 58.4889 8.88635 57.7111 9.50857C56.7778 9.97523 56 11.5308 56 12.9308C56 14.3307 54.7556 16.3529 53.3556 17.4418C50.7111 19.3085 50.7111 19.464 53.3556 20.3974C56.9333 21.7973 57.2444 35.175 53.6667 35.175C52.4222 35.175 51.3333 35.7972 51.3333 36.7305C51.3333 37.5083 52.4222 38.2861 53.6667 38.2861C55.3778 38.2861 56 40.1527 56 45.286C56 50.4193 55.3778 52.286 53.6667 52.286C52.4222 52.286 51.3333 52.9082 51.3333 53.8415C51.3333 54.6193 52.4222 55.397 53.6667 55.397C55.2222 55.397 56 56.9526 56 60.0637C56 64.7303 56 64.7303 46.9778 64.7303C37.8 64.7303 32.6667 67.5303 32.6667 72.1969C32.6667 73.4413 28.1556 74.0635 18.2 74.0635C9.02222 74.0635 3.11111 74.6858 1.86667 75.9302C0.466667 77.3302 0 93.6634 0 139.552V201.462L3.42222 203.796C5.91111 205.507 10.5778 206.285 19.7556 206.285H32.6667V213.129C32.6667 220.596 35.6222 224.951 40.6 224.951C43.2444 224.951 43.5556 226.04 43.5556 235.062V245.173H57.5556H71.5556V235.062V224.951H125.222H178.889V235.062V245.173H192.889H206.889V235.062C206.889 226.04 207.2 224.951 209.844 224.951C214.822 224.951 217.778 220.596 217.778 213.129V206.285H230.689C239.867 206.285 244.533 205.507 247.022 203.796L250.444 201.462V139.552C250.444 93.6634 249.978 77.3302 248.578 75.9302C247.333 74.6858 241.422 74.0635 232.244 74.0635C221.2 74.0635 217.778 73.5969 217.778 72.0413C217.778 67.5303 212.178 64.7303 203.311 64.7303C194.444 64.7303 194.444 64.7303 194.444 60.0637C194.444 56.9526 195.222 55.397 196.778 55.397C198.022 55.397 199.111 54.6193 199.111 53.8415C199.111 52.9082 198.022 52.286 196.778 52.286C195.067 52.286 194.444 50.4193 194.444 45.286C194.444 40.1527 195.067 38.2861 196.778 38.2861C198.022 38.2861 199.111 37.5083 199.111 36.7305C199.111 35.7972 198.022 35.175 196.778 35.175C193.356 35.175 193.667 22.8862 197.244 20.2418C199.733 18.3752 199.733 18.2196 197.244 17.2863C195.689 16.6641 194.444 14.953 194.444 13.3974C194.444 11.6863 193.667 9.97523 192.733 9.50857C191.956 8.88635 190.4 6.55304 189.467 4.37528C187.756 0.330871 187.6 0.330871 187.133 3.59751C186.822 5.46416 185.422 7.79747 184.178 8.73079C182.933 9.81967 182 11.6863 182 13.0863C182 14.3307 180.756 16.3529 179.356 17.4418C176.711 19.3085 176.711 19.464 179.356 20.3974C182.778 21.7973 183.089 33.3083 179.667 34.5528C178.422 35.175 177.333 36.1083 177.333 36.8861C177.333 37.6639 178.422 38.2861 179.667 38.2861C181.378 38.2861 182 40.1527 182 45.286C182 50.4193 181.378 52.286 179.667 52.286C178.422 52.286 177.333 52.9082 177.333 53.6859C177.333 54.4637 178.422 55.397 179.667 56.0193C180.911 56.4859 182 58.6637 182 60.8414V64.7303H157.111H132.222V60.2192C132.222 57.7304 133.156 55.2415 134.244 54.7748C135.8 53.9971 135.8 53.6859 134.244 52.9082C133 52.4415 132.222 49.1749 132.222 45.286C132.222 41.3972 133 38.1305 134.244 37.6639C135.8 36.8861 135.8 36.575 134.244 35.7972C131.911 34.7083 131.444 21.1751 133.778 21.1751C135.644 21.1751 135.956 16.9752 134.244 16.1974C133.467 15.8863 131.444 12.4641 129.422 8.26413C127.4 4.21972 125.533 0.953087 125.222 0.953087C124.911 0.953087 123.044 4.21972 121.022 8.26413C119 12.4641 116.978 15.8863 116.356 16.1974C114.489 16.9752 114.8 21.1751 116.667 21.1751C119 21.1751 118.533 34.7083 116.356 35.7972C114.8 36.575 114.8 36.8861 116.356 37.6639C117.444 38.1305 118.222 41.3972 118.222 45.286C118.222 49.1749 117.444 52.4415 116.356 52.9082C114.8 53.6859 114.8 53.9971 116.356 54.7748C117.289 55.2415 118.222 57.7304 118.222 60.2192V64.7303H93.3333H68.4444V60.8414C68.4444 58.6637 69.5333 56.4859 70.7778 56.0193C72.0222 55.397 73.1111 54.4637 73.1111 53.6859C73.1111 52.9082 72.0222 52.286 70.7778 52.286C69.0667 52.286 68.4444 50.4193 68.4444 45.286C68.4444 40.1527 69.0667 38.2861 70.7778 38.2861C72.0222 38.2861 73.1111 37.6639 73.1111 36.8861C73.1111 36.1083 72.0222 35.175 70.7778 34.5528C67.3556 33.3083 67.6667 21.7973 71.2444 20.3974C73.7333 19.464 73.7333 19.3085 71.2444 17.4418C69.6889 16.3529 68.4444 14.3307 68.4444 13.0863C68.4444 11.6863 67.5111 9.81967 66.2667 8.73079C65.0222 7.79747 63.6222 5.46416 63.3111 3.59751C62.8444 0.330871 62.6889 0.330871 60.9778 4.37528ZM65.0222 13.8641C65.3333 15.7307 64.5556 16.5085 62.3778 16.5085C60.5111 16.5085 59.1111 15.5752 59.1111 14.4863C59.1111 9.66412 64.0889 9.19746 65.0222 13.8641ZM127.556 10.9086C127.556 11.2197 128.022 12.6196 128.489 14.0196C129.267 15.8863 128.489 16.5085 125.378 16.5085C121.022 16.5085 120.867 16.3529 122.267 12.7752C123.044 10.5974 127.556 9.0419 127.556 10.9086ZM191.022 13.8641C191.333 15.7307 190.556 16.5085 188.378 16.5085C186.511 16.5085 185.111 15.5752 185.111 14.4863C185.111 9.66412 190.089 9.19746 191.022 13.8641ZM65.3333 28.1751C65.3333 34.0861 64.8667 35.175 62.2222 35.175C59.5778 35.175 59.1111 34.0861 59.1111 28.1751C59.1111 22.264 59.5778 21.1751 62.2222 21.1751C64.8667 21.1751 65.3333 22.264 65.3333 28.1751ZM128.8 27.7084C128.489 33.1528 127.711 34.3972 125.222 34.3972C122.733 34.3972 121.956 33.1528 121.644 27.7084C121.178 21.6418 121.333 21.1751 125.222 21.1751C129.111 21.1751 129.267 21.6418 128.8 27.7084ZM191.333 28.1751C191.333 34.0861 190.867 35.175 188.222 35.175C185.578 35.175 185.111 34.0861 185.111 28.1751C185.111 22.264 185.578 21.1751 188.222 21.1751C190.867 21.1751 191.333 22.264 191.333 28.1751ZM65.3333 45.286C65.3333 51.1971 64.8667 52.286 62.2222 52.286C59.5778 52.286 59.1111 51.1971 59.1111 45.286C59.1111 39.375 59.5778 38.2861 62.2222 38.2861C64.8667 38.2861 65.3333 39.375 65.3333 45.286ZM129.111 45.286C129.111 51.6637 128.8 52.286 125.222 52.286C121.644 52.286 121.333 51.6637 121.333 45.286C121.333 38.9083 121.644 38.2861 125.222 38.2861C128.8 38.2861 129.111 38.9083 129.111 45.286ZM191.333 45.286C191.333 51.1971 190.867 52.286 188.222 52.286C185.578 52.286 185.111 51.1971 185.111 45.286C185.111 39.375 185.578 38.2861 188.222 38.2861C190.867 38.2861 191.333 39.375 191.333 45.286ZM65.3333 60.0637C65.3333 63.6414 64.7111 64.7303 62.2222 64.7303C59.7333 64.7303 59.1111 63.6414 59.1111 60.0637C59.1111 56.4859 59.7333 55.397 62.2222 55.397C64.7111 55.397 65.3333 56.4859 65.3333 60.0637ZM128.8 60.5303C129.267 64.1081 128.8 64.7303 125.378 64.7303C122.111 64.7303 121.333 63.9525 121.333 61.1525C121.333 59.1303 121.8 56.9526 122.422 56.3304C124.756 54.1526 128.333 56.3304 128.8 60.5303ZM191.333 60.0637C191.333 63.6414 190.711 64.7303 188.222 64.7303C185.733 64.7303 185.111 63.6414 185.111 60.0637C185.111 56.4859 185.733 55.397 188.222 55.397C190.711 55.397 191.333 56.4859 191.333 60.0637ZM211.711 69.3969C214.511 70.9525 214.667 73.4413 214.667 140.174V209.396H125.222H35.7778V140.174C35.7778 76.0857 35.9333 70.9525 38.5778 69.5525C42.3111 67.3747 207.511 67.2192 211.711 69.3969ZM32.6667 139.396V201.773L18.3556 201.307L3.88889 200.84L3.42222 140.952C3.26667 107.974 3.42222 80.1301 3.88889 79.1968C4.35556 77.7968 8.86667 77.1746 18.6667 77.1746H32.6667V139.396ZM246.556 139.396V200.84L232.244 201.307L217.778 201.773V139.396V77.0191L232.244 77.4857L246.556 77.9524V139.396ZM214.667 215.307C214.667 221.84 214.511 221.84 125.222 221.84C35.9333 221.84 35.7778 221.84 35.7778 215.307C35.7778 212.662 40.1333 212.507 125.222 212.507C210.311 212.507 214.667 212.662 214.667 215.307ZM68.4444 232.729V240.506H57.5556H46.6667V232.729V224.951H57.5556H68.4444V232.729ZM203.778 232.729V240.506H192.889H182V232.729V224.951H192.889H203.778V232.729Z" fill="#FFFCFC" fill-opacity="0.52"/>
<path d="M59.1111 139.241C59.1111 173.929 59.7333 193.996 60.6666 194.618C61.7555 195.24 62.2222 176.729 62.2222 140.329C62.2222 104.396 61.6 84.9522 60.6666 84.9522C59.7333 84.9522 59.1111 104.085 59.1111 139.241Z" fill="#FFFCFC" fill-opacity="0.52"/>
<path d="M80.8889 140.174C80.8889 175.951 81.5111 195.396 82.4445 195.396C83.3778 195.396 84 175.951 84 140.174C84 104.396 83.3778 84.9521 82.4445 84.9521C81.5111 84.9521 80.8889 104.396 80.8889 140.174Z" fill="#FFFCFC" fill-opacity="0.52"/>
<path d="M102.667 140.329C102.667 176.729 103.133 195.24 104.222 194.618C105.156 193.996 105.778 173.929 105.778 139.241C105.778 104.085 105.156 84.9522 104.222 84.9522C103.289 84.9522 102.667 104.396 102.667 140.329Z" fill="#FFFCFC" fill-opacity="0.52"/>
<path d="M123.667 86.6632C122.111 90.8632 123.511 194.618 125.222 194.307C127.4 193.684 128.178 88.0632 126 85.8854C125.067 84.9521 124.289 85.2632 123.667 86.6632Z" fill="#FFFCFC" fill-opacity="0.52"/>
<path d="M144.667 139.241C144.667 173.929 145.289 193.996 146.222 194.618C147.311 195.24 147.778 176.729 147.778 140.329C147.778 104.396 147.156 84.9522 146.222 84.9522C145.289 84.9522 144.667 104.085 144.667 139.241Z" fill="#FFFCFC" fill-opacity="0.52"/>
<path d="M166.444 140.174C166.444 175.951 167.067 195.396 168 195.396C168.933 195.396 169.556 175.951 169.556 140.174C169.556 104.396 168.933 84.9521 168 84.9521C167.067 84.9521 166.444 104.396 166.444 140.174Z" fill="#FFFCFC" fill-opacity="0.52"/>
<path d="M188.222 140.329C188.222 176.729 188.689 195.24 189.778 194.618C190.711 193.996 191.333 173.929 191.333 139.241C191.333 104.085 190.711 84.9522 189.778 84.9522C188.844 84.9522 188.222 104.396 188.222 140.329Z" fill="#FFFCFC" fill-opacity="0.52"/>
<path d="M15.7112 136.285C11.3556 142.352 7.77783 147.64 7.77783 147.952C7.77783 148.418 9.48894 148.729 11.6667 148.729C16.3334 148.729 16.3334 149.04 13.0667 158.685C11.6667 162.729 10.8889 166.307 11.2001 166.618C11.5112 166.929 15.7112 161.951 20.6889 155.574L29.7112 144.063H24.7334C21.1556 144.063 20.0667 143.44 20.6889 141.885C22.7112 136.752 25.0445 126.641 24.4223 126.018C24.1112 125.552 20.2223 130.218 15.7112 136.285ZM20.2223 137.218C17.8889 143.285 18.3556 145.307 22.4001 145.929C26.1334 146.396 26.1334 146.396 20.6889 152.618C15.4001 158.84 14.9334 158.063 18.2001 149.196C18.6667 148.107 17.1112 147.174 14.7778 146.863L10.7334 146.396L15.5556 139.707C21.1556 132.241 22.2445 131.618 20.2223 137.218Z" fill="#FFFCFC" fill-opacity="0.52"/>
<path d="M228.978 136.596L220.889 147.952L225.4 148.418L230.067 148.885L226.956 157.44C225.089 162.263 224 166.307 224.311 166.774C224.778 167.085 228.978 162.418 233.8 156.196C242.2 145.152 242.356 144.841 238.622 144.374C234.422 143.752 233.956 141.107 236.6 133.485C239.867 124.152 237.067 125.241 228.978 136.596ZM233.333 138.463C231.156 144.529 231.311 145.307 235.667 145.929L239.4 146.396L233.956 152.618C230.689 156.196 228.822 157.596 229.444 155.729C232.4 147.485 232.244 147.174 228.044 147.174H223.844L228.667 140.018C233.956 132.396 235.978 131.774 233.333 138.463Z" fill="#FFFCFC" fill-opacity="0.52"/>
</svg>
