<svg width="300" height="300" viewBox="0 0 300 300" fill="none" xmlns="http://www.w3.org/2000/svg">
<g clip-path="url(#clip0_177_214)">
<path d="M110.978 31.4222C110.044 33.6 108.489 35.9333 107.711 36.5555C106.778 37.0222 106 38.5777 106 39.9777C106 41.3777 104.756 43.4 103.356 44.4888C100.711 46.3555 100.711 46.5111 103.356 47.4444C106.933 48.8444 107.244 62.2222 103.667 62.2222C102.422 62.2222 101.333 62.8444 101.333 63.7777C101.333 64.5555 102.422 65.3333 103.667 65.3333C105.378 65.3333 106 67.2 106 72.3333C106 77.4666 105.378 79.3333 103.667 79.3333C102.422 79.3333 101.333 79.9555 101.333 80.8888C101.333 81.6666 102.422 82.4444 103.667 82.4444C105.222 82.4444 106 84 106 87.1111C106 91.7777 106 91.7777 96.9778 91.7777C87.8 91.7777 82.6667 94.5777 82.6667 99.2444C82.6667 100.489 78.1556 101.111 68.2 101.111C59.0222 101.111 53.1111 101.733 51.8667 102.978C50.4667 104.378 50 120.711 50 166.6V228.511L53.4222 230.844C55.9111 232.556 60.5778 233.333 69.7556 233.333H82.6667V240.178C82.6667 247.644 85.6222 252 90.6 252C93.2444 252 93.5556 253.089 93.5556 262.111V272.222H107.556H121.556V262.111V252H175.222H228.889V262.111V272.222H242.889H256.889V262.111C256.889 253.089 257.2 252 259.844 252C264.822 252 267.778 247.644 267.778 240.178V233.333H280.689C289.867 233.333 294.533 232.556 297.022 230.844L300.444 228.511V166.6C300.444 120.711 299.978 104.378 298.578 102.978C297.333 101.733 291.422 101.111 282.244 101.111C271.2 101.111 267.778 100.644 267.778 99.0889C267.778 94.5777 262.178 91.7777 253.311 91.7777C244.444 91.7777 244.444 91.7777 244.444 87.1111C244.444 84 245.222 82.4444 246.778 82.4444C248.022 82.4444 249.111 81.6666 249.111 80.8888C249.111 79.9555 248.022 79.3333 246.778 79.3333C245.067 79.3333 244.444 77.4666 244.444 72.3333C244.444 67.2 245.067 65.3333 246.778 65.3333C248.022 65.3333 249.111 64.5555 249.111 63.7777C249.111 62.8444 248.022 62.2222 246.778 62.2222C243.356 62.2222 243.667 49.9333 247.244 47.2888C249.733 45.4222 249.733 45.2666 247.244 44.3333C245.689 43.7111 244.444 42 244.444 40.4444C244.444 38.7333 243.667 37.0222 242.733 36.5555C241.956 35.9333 240.4 33.6 239.467 31.4222C237.756 27.3777 237.6 27.3777 237.133 30.6444C236.822 32.5111 235.422 34.8444 234.178 35.7777C232.933 36.8666 232 38.7333 232 40.1333C232 41.3777 230.756 43.4 229.356 44.4888C226.711 46.3555 226.711 46.5111 229.356 47.4444C232.778 48.8444 233.089 60.3555 229.667 61.6C228.422 62.2222 227.333 63.1555 227.333 63.9333C227.333 64.7111 228.422 65.3333 229.667 65.3333C231.378 65.3333 232 67.2 232 72.3333C232 77.4666 231.378 79.3333 229.667 79.3333C228.422 79.3333 227.333 79.9555 227.333 80.7333C227.333 81.5111 228.422 82.4444 229.667 83.0666C230.911 83.5333 232 85.7111 232 87.8888V91.7777H207.111H182.222V87.2666C182.222 84.7777 183.156 82.2888 184.244 81.8222C185.8 81.0444 185.8 80.7333 184.244 79.9555C183 79.4888 182.222 76.2222 182.222 72.3333C182.222 68.4444 183 65.1777 184.244 64.7111C185.8 63.9333 185.8 63.6222 184.244 62.8444C181.911 61.7555 181.444 48.2222 183.778 48.2222C185.644 48.2222 185.956 44.0222 184.244 43.2444C183.467 42.9333 181.444 39.5111 179.422 35.3111C177.4 31.2666 175.533 28 175.222 28C174.911 28 173.044 31.2666 171.022 35.3111C169 39.5111 166.978 42.9333 166.356 43.2444C164.489 44.0222 164.8 48.2222 166.667 48.2222C169 48.2222 168.533 61.7555 166.356 62.8444C164.8 63.6222 164.8 63.9333 166.356 64.7111C167.444 65.1777 168.222 68.4444 168.222 72.3333C168.222 76.2222 167.444 79.4888 166.356 79.9555C164.8 80.7333 164.8 81.0444 166.356 81.8222C167.289 82.2888 168.222 84.7777 168.222 87.2666V91.7777H143.333H118.444V87.8888C118.444 85.7111 119.533 83.5333 120.778 83.0666C122.022 82.4444 123.111 81.5111 123.111 80.7333C123.111 79.9555 122.022 79.3333 120.778 79.3333C119.067 79.3333 118.444 77.4666 118.444 72.3333C118.444 67.2 119.067 65.3333 120.778 65.3333C122.022 65.3333 123.111 64.7111 123.111 63.9333C123.111 63.1555 122.022 62.2222 120.778 61.6C117.356 60.3555 117.667 48.8444 121.244 47.4444C123.733 46.5111 123.733 46.3555 121.244 44.4888C119.689 43.4 118.444 41.3777 118.444 40.1333C118.444 38.7333 117.511 36.8666 116.267 35.7777C115.022 34.8444 113.622 32.5111 113.311 30.6444C112.844 27.3777 112.689 27.3777 110.978 31.4222ZM115.022 40.9111C115.333 42.7777 114.556 43.5555 112.378 43.5555C110.511 43.5555 109.111 42.6222 109.111 41.5333C109.111 36.7111 114.089 36.2444 115.022 40.9111ZM177.556 37.9555C177.556 38.2666 178.022 39.6666 178.489 41.0666C179.267 42.9333 178.489 43.5555 175.378 43.5555C171.022 43.5555 170.867 43.4 172.267 39.8222C173.044 37.6444 177.556 36.0889 177.556 37.9555ZM241.022 40.9111C241.333 42.7777 240.556 43.5555 238.378 43.5555C236.511 43.5555 235.111 42.6222 235.111 41.5333C235.111 36.7111 240.089 36.2444 241.022 40.9111ZM115.333 55.2222C115.333 61.1333 114.867 62.2222 112.222 62.2222C109.578 62.2222 109.111 61.1333 109.111 55.2222C109.111 49.3111 109.578 48.2222 112.222 48.2222C114.867 48.2222 115.333 49.3111 115.333 55.2222ZM178.8 54.7555C178.489 60.2 177.711 61.4444 175.222 61.4444C172.733 61.4444 171.956 60.2 171.644 54.7555C171.178 48.6888 171.333 48.2222 175.222 48.2222C179.111 48.2222 179.267 48.6888 178.8 54.7555ZM241.333 55.2222C241.333 61.1333 240.867 62.2222 238.222 62.2222C235.578 62.2222 235.111 61.1333 235.111 55.2222C235.111 49.3111 235.578 48.2222 238.222 48.2222C240.867 48.2222 241.333 49.3111 241.333 55.2222ZM115.333 72.3333C115.333 78.2444 114.867 79.3333 112.222 79.3333C109.578 79.3333 109.111 78.2444 109.111 72.3333C109.111 66.4222 109.578 65.3333 112.222 65.3333C114.867 65.3333 115.333 66.4222 115.333 72.3333ZM179.111 72.3333C179.111 78.7111 178.8 79.3333 175.222 79.3333C171.644 79.3333 171.333 78.7111 171.333 72.3333C171.333 65.9555 171.644 65.3333 175.222 65.3333C178.8 65.3333 179.111 65.9555 179.111 72.3333ZM241.333 72.3333C241.333 78.2444 240.867 79.3333 238.222 79.3333C235.578 79.3333 235.111 78.2444 235.111 72.3333C235.111 66.4222 235.578 65.3333 238.222 65.3333C240.867 65.3333 241.333 66.4222 241.333 72.3333ZM115.333 87.1111C115.333 90.6888 114.711 91.7777 112.222 91.7777C109.733 91.7777 109.111 90.6888 109.111 87.1111C109.111 83.5333 109.733 82.4444 112.222 82.4444C114.711 82.4444 115.333 83.5333 115.333 87.1111ZM178.8 87.5777C179.267 91.1555 178.8 91.7777 175.378 91.7777C172.111 91.7777 171.333 91 171.333 88.2C171.333 86.1777 171.8 84 172.422 83.3777C174.756 81.2 178.333 83.3777 178.8 87.5777ZM241.333 87.1111C241.333 90.6888 240.711 91.7777 238.222 91.7777C235.733 91.7777 235.111 90.6888 235.111 87.1111C235.111 83.5333 235.733 82.4444 238.222 82.4444C240.711 82.4444 241.333 83.5333 241.333 87.1111ZM261.711 96.4444C264.511 98 264.667 100.489 264.667 167.222V236.444H175.222H85.7778V167.222C85.7778 103.133 85.9333 98 88.5778 96.6C92.3111 94.4222 257.511 94.2666 261.711 96.4444ZM82.6667 166.444V228.822L68.3556 228.356L53.8889 227.889L53.4222 168C53.2667 135.022 53.4222 107.178 53.8889 106.244C54.3556 104.844 58.8667 104.222 68.6667 104.222H82.6667V166.444ZM296.556 166.444V227.889L282.244 228.356L267.778 228.822V166.444V104.067L282.244 104.533L296.556 105V166.444ZM264.667 242.356C264.667 248.889 264.511 248.889 175.222 248.889C85.9333 248.889 85.7778 248.889 85.7778 242.356C85.7778 239.711 90.1333 239.556 175.222 239.556C260.311 239.556 264.667 239.711 264.667 242.356ZM118.444 259.778V267.556H107.556H96.6667V259.778V252H107.556H118.444V259.778ZM253.778 259.778V267.556H242.889H232V259.778V252H242.889H253.778V259.778Z" fill="#FFFCFC" fill-opacity="0.52"/>
<path d="M109.111 166.289C109.111 200.978 109.733 221.044 110.667 221.667C111.756 222.289 112.222 203.778 112.222 167.378C112.222 131.444 111.6 112 110.667 112C109.733 112 109.111 131.133 109.111 166.289Z" fill="#FFFCFC" fill-opacity="0.52"/>
<path d="M130.889 167.222C130.889 203 131.511 222.444 132.444 222.444C133.378 222.444 134 203 134 167.222C134 131.444 133.378 112 132.444 112C131.511 112 130.889 131.444 130.889 167.222Z" fill="#FFFCFC" fill-opacity="0.52"/>
<path d="M152.667 167.378C152.667 203.778 153.133 222.289 154.222 221.667C155.156 221.044 155.778 200.978 155.778 166.289C155.778 131.133 155.156 112 154.222 112C153.289 112 152.667 131.444 152.667 167.378Z" fill="#FFFCFC" fill-opacity="0.52"/>
<path d="M173.667 113.711C172.111 117.911 173.511 221.667 175.222 221.355C177.4 220.733 178.178 115.111 176 112.933C175.067 112 174.289 112.311 173.667 113.711Z" fill="#FFFCFC" fill-opacity="0.52"/>
<path d="M194.667 166.289C194.667 200.978 195.289 221.044 196.222 221.667C197.311 222.289 197.778 203.778 197.778 167.378C197.778 131.444 197.156 112 196.222 112C195.289 112 194.667 131.133 194.667 166.289Z" fill="#FFFCFC" fill-opacity="0.52"/>
<path d="M216.444 167.222C216.444 203 217.067 222.444 218 222.444C218.933 222.444 219.556 203 219.556 167.222C219.556 131.444 218.933 112 218 112C217.067 112 216.444 131.444 216.444 167.222Z" fill="#FFFCFC" fill-opacity="0.52"/>
<path d="M238.222 167.378C238.222 203.778 238.689 222.289 239.778 221.667C240.711 221.044 241.333 200.978 241.333 166.289C241.333 131.133 240.711 112 239.778 112C238.844 112 238.222 131.444 238.222 167.378Z" fill="#FFFCFC" fill-opacity="0.52"/>
<path d="M65.7112 163.333C61.3556 169.4 57.7778 174.689 57.7778 175C57.7778 175.467 59.4889 175.778 61.6667 175.778C66.3334 175.778 66.3334 176.089 63.0667 185.733C61.6667 189.778 60.8889 193.355 61.2001 193.667C61.5112 193.978 65.7112 189 70.6889 182.622L79.7112 171.111H74.7334C71.1556 171.111 70.0667 170.489 70.6889 168.933C72.7112 163.8 75.0445 153.689 74.4223 153.067C74.1112 152.6 70.2223 157.267 65.7112 163.333ZM70.2223 164.267C67.8889 170.333 68.3556 172.355 72.4001 172.978C76.1334 173.444 76.1334 173.444 70.6889 179.667C65.4001 185.889 64.9334 185.111 68.2001 176.244C68.6667 175.155 67.1112 174.222 64.7778 173.911L60.7334 173.444L65.5556 166.755C71.1556 159.289 72.2445 158.667 70.2223 164.267Z" fill="#FFFCFC" fill-opacity="0.52"/>
<path d="M278.978 163.644L270.889 175L275.4 175.467L280.067 175.933L276.956 184.489C275.089 189.311 274 193.355 274.311 193.822C274.778 194.133 278.978 189.467 283.8 183.244C292.2 172.2 292.356 171.889 288.622 171.422C284.422 170.8 283.956 168.155 286.6 160.533C289.867 151.2 287.067 152.289 278.978 163.644ZM283.333 165.511C281.156 171.578 281.311 172.355 285.667 172.978L289.4 173.444L283.956 179.667C280.689 183.244 278.822 184.644 279.444 182.778C282.4 174.533 282.244 174.222 278.044 174.222H273.844L278.667 167.067C283.956 159.444 285.978 158.822 283.333 165.511Z" fill="#FFFCFC" fill-opacity="0.52"/>
</g>
<defs>
<clipPath id="clip0_177_214">
<rect width="300" height="300" fill="white"/>
</clipPath>
</defs>
</svg>
