<svg width="350" height="252" viewBox="0 0 350 252" fill="none" xmlns="http://www.w3.org/2000/svg">
<g clip-path="url(#clip0_167_2)">
<path d="M246.81 16.6044C246.193 16.7902 245.598 16.9295 245.53 16.9528C245.438 16.9528 244.753 17.3708 243.975 17.9049L242.581 18.857V25.3827V31.9316L243.266 33.9055C243.655 34.9738 243.952 35.9491 243.952 36.0653C243.952 36.1581 243.655 36.042 243.289 35.7866C242.626 35.2989 242.466 35.2989 222.827 35.2989H203.027V38.434V41.5691H248.982H294.938V38.434V35.2989H275.115H255.315L254.561 35.8795L253.806 36.46L254.584 34.2539L255.384 32.0245V25.4291V18.8338L254.309 18.0907C252.069 16.5115 249.097 15.931 246.81 16.6044Z" fill="#FFFEFE" fill-opacity="0.52"/>
<path d="M208.011 25.8007C207.462 26.1026 207.485 27.1012 208.034 27.4031C208.285 27.5192 208.971 27.6353 209.543 27.6353C210.892 27.6353 211.486 27.3102 211.486 26.5903C211.486 26.2652 211.303 25.9168 211.052 25.7775C210.48 25.4756 208.514 25.4756 208.011 25.8007Z" fill="#FFFEFE" fill-opacity="0.52"/>
<path d="M287.53 25.9168C286.615 26.8225 287.416 27.6353 289.199 27.6353C290.182 27.6353 290.617 27.5192 290.891 27.2173C291.394 26.66 291.371 26.4045 290.868 25.94C290.296 25.4059 288.033 25.4059 287.53 25.9168Z" fill="#FFFEFE" fill-opacity="0.52"/>
<path d="M206.548 28.1926C205.908 28.4945 205.542 28.959 205.542 29.5163C205.542 29.6324 207.257 29.7253 209.543 29.7253C213.956 29.7253 214.207 29.6324 212.835 28.4713C212.172 27.914 211.989 27.8675 209.703 27.8675C208.171 27.8907 206.982 28.0068 206.548 28.1926Z" fill="#FFFEFE" fill-opacity="0.52"/>
<path d="M286.112 28.1926C285.472 28.4945 285.106 28.959 285.106 29.5163C285.106 29.6324 286.821 29.7253 289.108 29.7253C293.429 29.7253 293.589 29.6789 292.674 28.541C292.263 28.0301 292.057 27.9836 289.519 27.914C287.599 27.8907 286.615 27.9604 286.112 28.1926Z" fill="#FFFEFE" fill-opacity="0.52"/>
<path d="M205.588 30.933C205.725 31.9316 206.937 32.3031 209.817 32.2335C212.149 32.1638 212.424 32.1174 212.95 31.6065C214.116 30.4918 213.887 30.4221 209.52 30.4221H205.519L205.588 30.933Z" fill="#FFFEFE" fill-opacity="0.52"/>
<path d="M285.106 30.7704C285.106 31.3278 285.93 32.0012 286.798 32.1638C287.233 32.2567 288.627 32.2799 289.908 32.2335C292.034 32.1638 292.263 32.1173 292.674 31.6064C293.589 30.4685 293.429 30.4221 289.108 30.4221C285.701 30.4221 285.106 30.4685 285.106 30.7704Z" fill="#FFFEFE" fill-opacity="0.52"/>
<path d="M207.874 32.7908C207.714 32.9534 207.6 33.2321 207.6 33.4411C207.6 34.1145 208.125 34.37 209.452 34.37C211.098 34.37 211.486 34.2074 211.486 33.5804C211.486 32.7676 211.029 32.5122 209.543 32.5122C208.766 32.5122 208.034 32.6283 207.874 32.7908Z" fill="#FFFEFE" fill-opacity="0.52"/>
<path d="M287.438 32.7908C287.278 32.9534 287.164 33.2321 287.164 33.4411C287.164 34.1378 287.69 34.37 289.267 34.37C290.548 34.37 290.845 34.3003 291.051 33.9288C291.348 33.3482 291.348 33.3017 290.914 32.8837C290.479 32.4425 287.85 32.3728 287.438 32.7908Z" fill="#FFFEFE" fill-opacity="0.52"/>
<path d="M231.675 54.5275L242.581 65.6049V66.6034V67.5788H222.804H203.027V70.7139V73.849H248.982H294.938V70.7139V67.5788H275.161H255.384V66.6034V65.6049L266.29 54.5275L277.219 43.4269H275.161H273.103L264.255 52.4142L255.384 61.4247V52.6464V43.8914H248.982H242.581V52.6464V61.4247L233.71 52.4142L224.861 43.4269H222.804H220.746L231.675 54.5275Z" fill="#FFFEFE" fill-opacity="0.52"/>
<path d="M154.031 48.3966C153.551 48.5824 152.75 49.0004 152.27 49.3256L151.356 49.9294V54.5275C151.356 58.8005 151.401 59.265 151.904 60.7977C152.476 62.4698 152.476 62.4698 151.973 62.1214C151.539 61.8195 149.618 61.7731 137.249 61.7731H123.005V63.9792V66.1854H156.043H189.08V63.9792V61.7731H174.699C162.102 61.7731 160.295 61.8195 160.044 62.1214C159.564 62.702 159.564 62.3769 160.044 60.9603C160.455 59.7759 160.501 59.0095 160.501 54.7133V49.8132L159.747 49.3023C158.055 48.118 155.791 47.7696 154.031 48.3966Z" fill="#FFFEFE" fill-opacity="0.52"/>
<path d="M126.366 54.9687C126.069 55.2474 126.206 55.9209 126.572 56.0602C127.875 56.5711 129.567 55.9209 128.95 55.1545C128.652 54.8062 126.663 54.6436 126.366 54.9687Z" fill="#FFFEFE" fill-opacity="0.52"/>
<path d="M183.684 55.1313C183.387 55.9441 183.753 56.2228 185.01 56.1531C186.131 56.0835 186.222 56.037 186.222 55.5029C186.222 54.9687 186.131 54.9223 185.01 54.8526C184.096 54.8062 183.776 54.8759 183.684 55.1313Z" fill="#FFFEFE" fill-opacity="0.52"/>
<path d="M125.223 56.7105C125.017 56.873 124.834 57.1517 124.788 57.3142C124.743 57.5697 125.291 57.6161 127.578 57.5929C129.133 57.5929 130.459 57.5233 130.504 57.4768C130.55 57.4304 130.367 57.1749 130.116 56.9195C129.704 56.5014 129.361 56.4318 127.624 56.4318C126.366 56.4318 125.474 56.5479 125.223 56.7105Z" fill="#FFFEFE" fill-opacity="0.52"/>
<path d="M182.336 56.9427L181.993 57.4768L184.782 57.5929C187.091 57.6858 187.617 57.6394 187.686 57.3839C187.846 56.7104 187 56.4318 184.828 56.4318C182.884 56.4318 182.679 56.4782 182.336 56.9427Z" fill="#FFFEFE" fill-opacity="0.52"/>
<path d="M208.011 58.0806C207.462 58.3825 207.485 59.3811 208.034 59.683C208.285 59.7991 208.971 59.9152 209.543 59.9152C210.115 59.9152 210.8 59.7991 211.052 59.683C211.532 59.4043 211.624 58.5218 211.212 58.1038C210.869 57.7555 208.56 57.7555 208.011 58.0806Z" fill="#FFFEFE" fill-opacity="0.52"/>
<path d="M287.576 58.0806C287.073 58.3593 287.05 59.056 287.53 59.5437C288.056 60.101 290.411 60.0546 290.891 59.4972C291.394 58.9399 291.371 58.6844 290.868 58.22C290.388 57.7787 288.216 57.6858 287.576 58.0806Z" fill="#FFFEFE" fill-opacity="0.52"/>
<path d="M124.88 58.8005C125.2 59.2882 125.451 59.3346 127.463 59.4043C129.293 59.4507 129.773 59.4043 130.116 59.0792C130.367 58.8702 130.55 58.5915 130.55 58.4754C130.55 58.3825 129.201 58.2896 127.555 58.2896H124.56L124.88 58.8005Z" fill="#FFFEFE" fill-opacity="0.52"/>
<path d="M181.993 58.4754C181.993 58.5915 182.176 58.847 182.404 59.056C182.747 59.3579 183.296 59.4508 184.988 59.4508C187.137 59.4508 187.709 59.265 187.709 58.5915C187.709 58.3593 187.045 58.2896 184.851 58.2896C183.273 58.2896 181.993 58.3825 181.993 58.4754Z" fill="#FFFEFE" fill-opacity="0.52"/>
<path d="M126.435 60.0313C125.909 60.6816 126.343 61.0764 127.532 61.0764C128.835 61.0764 129.43 60.6351 128.949 60.0313C128.584 59.5669 126.823 59.5669 126.435 60.0313Z" fill="#FFFEFE" fill-opacity="0.52"/>
<path d="M183.684 60.0313C183.387 60.8209 183.776 61.0996 185.01 61.0299C185.971 60.9835 186.245 60.8674 186.291 60.519C186.405 59.9385 185.971 59.683 184.782 59.683C184.119 59.683 183.776 59.7991 183.684 60.0313Z" fill="#FFFEFE" fill-opacity="0.52"/>
<path d="M206.525 60.3797C206.045 60.5887 205.542 61.2621 205.542 61.7498C205.542 61.9124 206.868 62.0053 209.543 62.0053C213.956 62.0053 214.207 61.9124 212.835 60.7512C212.172 60.1707 212.012 60.1474 209.589 60.1707C208.171 60.1707 206.799 60.2636 206.525 60.3797Z" fill="#FFFEFE" fill-opacity="0.52"/>
<path d="M286.135 60.4029C285.564 60.728 285.106 61.3086 285.106 61.7034C285.106 61.9356 285.952 62.0053 289.108 62.0053C293.429 62.0053 293.589 61.9588 292.674 60.8209C292.263 60.2868 292.057 60.2636 289.405 60.1939C287.621 60.1707 286.433 60.2403 286.135 60.4029Z" fill="#FFFEFE" fill-opacity="0.52"/>
<path d="M205.542 63.1664C205.542 64.1186 206.502 64.3972 209.566 64.3972C212.218 64.3972 212.447 64.374 212.973 63.8631C214.116 62.7716 213.864 62.702 209.543 62.702C205.702 62.702 205.542 62.7252 205.542 63.1664Z" fill="#FFFEFE" fill-opacity="0.52"/>
<path d="M285.106 62.9806C285.129 63.4451 285.678 64.0721 286.272 64.2811C286.57 64.374 288.056 64.4669 289.542 64.4437C292.08 64.3972 292.308 64.3508 292.697 63.8631C293.589 62.7484 293.429 62.7019 289.108 62.7019C286.044 62.7019 285.106 62.7716 285.106 62.9806Z" fill="#FFFEFE" fill-opacity="0.52"/>
<path d="M207.874 65.0707C207.508 65.4423 207.531 66.0693 207.92 66.3944C208.446 66.8356 211.029 66.6266 211.349 66.1157C211.532 65.8371 211.532 65.6048 211.349 65.3029C211.029 64.8152 208.331 64.6062 207.874 65.0707Z" fill="#FFFEFE" fill-opacity="0.52"/>
<path d="M287.438 65.0707C287.278 65.2332 287.164 65.5119 287.164 65.7209C287.164 66.4176 287.69 66.6498 289.245 66.6498C291.028 66.6498 291.508 66.3247 291.097 65.3726C290.845 64.8385 290.708 64.792 289.267 64.792C288.353 64.792 287.598 64.9081 287.438 65.0707Z" fill="#FFFEFE" fill-opacity="0.52"/>
<path d="M143.536 75.5443C150.601 82.7202 151.356 83.5562 151.356 84.2529V84.996H137.18H123.005V87.2022V89.4084H156.043H189.08V87.2022V84.996L174.859 84.9496L160.615 84.8799L160.547 84.3226C160.478 83.8581 161.781 82.4183 168.435 75.6604L176.391 67.5788H174.905H173.419L166.971 74.1277L160.501 80.6998V74.2438V67.811L155.997 67.8575L151.47 67.9272L151.356 74.1509L151.241 80.3514L144.954 73.9651L138.667 67.5788H137.18H135.694L143.536 75.5443Z" fill="#FFFEFE" fill-opacity="0.52"/>
<path d="M84.8917 69.0651L83.68 69.6456V73.222C83.68 75.8694 83.7714 77.077 84.0229 77.8201C84.2744 78.5168 84.2973 78.749 84.0915 78.54C83.8857 78.331 81.4165 78.2614 73.5743 78.2614H63.3315V79.887V81.5126L86.8351 81.4661L110.316 81.3965L110.384 79.8173L110.453 78.2614H100.187C92.3452 78.2614 89.8759 78.331 89.6702 78.54C89.4644 78.749 89.4873 78.5168 89.7388 77.8201C89.9903 77.077 90.0817 75.8694 90.0817 73.2916V69.7618L89.1672 69.2276C87.7496 68.4381 86.3092 68.3684 84.8917 69.0651Z" fill="#FFFEFE" fill-opacity="0.52"/>
<path d="M65.7323 73.6167C65.458 74.058 65.961 74.3599 66.7841 74.267C67.8815 74.1741 67.8358 73.5238 66.7155 73.431C66.2582 73.3845 65.8238 73.4774 65.7323 73.6167Z" fill="#FFFEFE" fill-opacity="0.52"/>
<path d="M106.475 73.5239C106.132 73.8954 106.658 74.3134 107.458 74.3134C107.984 74.3134 108.372 74.1973 108.441 73.9883C108.624 73.5239 108.395 73.3845 107.458 73.3845C107.001 73.3845 106.566 73.4542 106.475 73.5239Z" fill="#FFFEFE" fill-opacity="0.52"/>
<path d="M64.8634 74.685C64.772 74.7779 64.7034 74.9869 64.7034 75.1727C64.7034 75.4049 65.1835 75.4746 66.6696 75.4746C68.4072 75.4746 68.613 75.4282 68.5444 75.0566C68.4758 74.7315 68.1786 74.6618 66.7382 74.5921C65.8008 74.5689 64.9549 74.5921 64.8634 74.685Z" fill="#FFFEFE" fill-opacity="0.52"/>
<path d="M105.675 74.8244C105.149 75.3585 105.423 75.4746 107.458 75.4746C109.47 75.4746 109.516 75.4514 109.287 75.0102C109.081 74.6154 108.807 74.5457 107.504 74.5457C106.589 74.5457 105.835 74.6618 105.675 74.8244Z" fill="#FFFEFE" fill-opacity="0.52"/>
<path d="M231.675 86.8074L242.581 97.8847V166.578V235.249H248.982H255.384V166.578V97.8847L266.29 86.8074L277.219 75.7068H275.161H273.103L264.301 84.6477L255.498 93.5885L255.384 84.7173L255.27 75.8229H248.982H242.695L242.581 84.7173L242.466 93.5885L233.664 84.6477L224.862 75.7068H222.804H220.746L231.675 86.8074Z" fill="#FFFEFE" fill-opacity="0.52"/>
<path d="M64.772 76.2178C64.8177 76.4268 65.4122 76.5197 66.6468 76.5197C67.8814 76.5197 68.4759 76.4268 68.5445 76.2178C68.613 76.0087 68.1329 75.9391 66.6468 75.9391C65.1607 75.9391 64.6805 76.0087 64.772 76.2178Z" fill="#FFFEFE" fill-opacity="0.52"/>
<path d="M105.446 76.2177C105.606 76.6822 108.898 76.7518 109.287 76.2874C109.539 75.9855 109.333 75.939 107.458 75.939C105.88 75.939 105.377 76.0087 105.446 76.2177Z" fill="#FFFEFE" fill-opacity="0.52"/>
<path d="M65.7323 77.1002C65.458 77.5414 65.961 77.8433 66.7841 77.7504C67.8815 77.6575 67.8358 77.0073 66.7155 76.9144C66.2582 76.868 65.8238 76.9609 65.7323 77.1002Z" fill="#FFFEFE" fill-opacity="0.52"/>
<path d="M106.543 77.3324C106.543 77.7737 106.658 77.8201 107.527 77.7504C108.19 77.704 108.487 77.5647 108.487 77.3324C108.487 77.1002 108.19 76.9609 107.527 76.9144C106.658 76.8447 106.543 76.8912 106.543 77.3324Z" fill="#FFFEFE" fill-opacity="0.52"/>
<path d="M126.297 78.3775C126 79.1206 126.389 79.4225 127.555 79.4225C128.447 79.4225 128.767 79.3296 128.927 79.0045C129.27 78.3542 128.789 78.0291 127.532 78.0291C126.755 78.0291 126.389 78.1452 126.297 78.3775Z" fill="#FFFEFE" fill-opacity="0.52"/>
<path d="M183.684 78.3543C183.387 79.1671 183.753 79.4457 185.01 79.3761C186.131 79.3064 186.222 79.26 186.222 78.7258C186.222 78.1917 186.131 78.1453 185.01 78.0756C184.096 78.0291 183.776 78.0988 183.684 78.3543Z" fill="#FFFEFE" fill-opacity="0.52"/>
<path d="M125.223 79.9334C124.263 80.6998 124.651 80.8391 127.578 80.8391C129.796 80.8391 130.413 80.7694 130.367 80.5372C130.207 79.8637 129.521 79.6547 127.578 79.6547C126.343 79.6547 125.474 79.7709 125.223 79.9334Z" fill="#FFFEFE" fill-opacity="0.52"/>
<path d="M182.45 80.1192C182.175 80.3978 182.015 80.6765 182.084 80.7694C182.13 80.8623 183.41 80.9087 184.942 80.8623C187.137 80.7926 187.708 80.723 187.708 80.4675C187.708 79.8869 186.885 79.6547 184.873 79.6547C183.204 79.6547 182.838 79.7244 182.45 80.1192Z" fill="#FFFEFE" fill-opacity="0.52"/>
<path d="M124.88 82.0235C125.2 82.5111 125.451 82.5576 127.463 82.6273C129.293 82.6737 129.773 82.6273 130.116 82.3021C130.367 82.0931 130.55 81.8145 130.55 81.6983C130.55 81.6055 129.201 81.5126 127.555 81.5126H124.56L124.88 82.0235Z" fill="#FFFEFE" fill-opacity="0.52"/>
<path d="M181.993 81.6983C181.993 81.8145 182.176 82.0699 182.404 82.2789C182.747 82.5808 183.296 82.6737 184.988 82.6737C187.137 82.6737 187.709 82.4879 187.709 81.8145C187.709 81.5822 187.045 81.5126 184.851 81.5126C183.273 81.5126 181.993 81.6055 181.993 81.6983Z" fill="#FFFEFE" fill-opacity="0.52"/>
<path d="M78.0327 88.2008C81.1421 91.3591 83.68 94.1226 83.68 94.3549C83.68 94.7264 83.0169 94.7496 73.5057 94.7496H63.3315V96.3752V98.0009H86.8808H110.43V96.3752V94.7496H100.256C90.7447 94.7496 90.0817 94.7264 90.0817 94.3549C90.0817 94.1226 92.6195 91.3591 95.729 88.2008L101.399 82.4415H100.37H99.3414L94.883 86.97C92.4366 89.4548 90.3561 91.4984 90.2646 91.4984C90.1503 91.4984 90.0817 89.5013 90.0817 87.0861V82.6737H86.8808H83.68V87.0861C83.68 89.5013 83.6114 91.4984 83.497 91.4984C83.4056 91.4984 81.325 89.4548 78.8786 86.97L74.4203 82.4415H73.3914H72.3626L78.0327 88.2008Z" fill="#FFFEFE" fill-opacity="0.52"/>
<path d="M126.435 83.2543C125.909 83.9045 126.343 84.2993 127.532 84.2993C128.835 84.2993 129.43 83.8581 128.949 83.2543C128.584 82.7898 126.823 82.7898 126.435 83.2543Z" fill="#FFFEFE" fill-opacity="0.52"/>
<path d="M183.684 83.2543C183.387 84.0439 183.776 84.3226 185.01 84.2529C185.971 84.2064 186.245 84.0903 186.291 83.742C186.405 83.1614 185.971 82.906 184.782 82.906C184.119 82.906 183.776 83.0221 183.684 83.2543Z" fill="#FFFEFE" fill-opacity="0.52"/>
<path d="M65.7323 90.1051C65.458 90.5463 65.961 90.8482 66.7841 90.7553C67.8815 90.6624 67.8358 90.0122 66.7155 89.9193C66.2582 89.8728 65.8238 89.9657 65.7323 90.1051Z" fill="#FFFEFE" fill-opacity="0.52"/>
<path d="M106.452 90.2212C106.292 90.6856 106.703 90.8482 107.732 90.7553C108.212 90.7089 108.487 90.5695 108.487 90.3373C108.487 89.8264 106.658 89.7103 106.452 90.2212Z" fill="#FFFEFE" fill-opacity="0.52"/>
<path d="M143.536 98.7672L151.356 106.709V156.244V205.755H155.928H160.501V156.36V106.942L168.435 98.8833L176.391 90.8018H174.905H173.419L166.971 97.3506L160.501 103.923V97.3506V90.8018L155.997 90.8482L151.47 90.9179L151.356 97.2577L151.241 103.574L144.954 97.1881L138.667 90.8018H137.18H135.694L143.536 98.7672Z" fill="#FFFEFE" fill-opacity="0.52"/>
<path d="M65.0006 91.1965C64.8405 91.243 64.7034 91.452 64.7034 91.6378C64.7034 91.8932 65.1149 91.9629 66.6468 91.9629C68.1557 91.9629 68.5901 91.8932 68.5901 91.6378C68.5901 91.452 68.4301 91.243 68.2243 91.1733C67.8128 91.0107 65.4121 91.0107 65.0006 91.1965Z" fill="#FFFEFE" fill-opacity="0.52"/>
<path d="M105.675 91.3126C105.149 91.8468 105.423 91.9629 107.458 91.9629C109.47 91.9629 109.516 91.9397 109.287 91.4984C109.081 91.1036 108.807 91.034 107.504 91.034C106.589 91.034 105.835 91.1501 105.675 91.3126Z" fill="#FFFEFE" fill-opacity="0.52"/>
<path d="M64.7492 92.706C64.9093 93.1705 68.2016 93.2402 68.5903 92.7757C68.8418 92.4738 68.636 92.4273 66.7612 92.4273C65.1836 92.4273 64.6806 92.497 64.7492 92.706Z" fill="#FFFEFE" fill-opacity="0.52"/>
<path d="M105.446 92.706C105.606 93.1705 108.898 93.2402 109.287 92.7757C109.539 92.4738 109.333 92.4273 107.458 92.4273C105.88 92.4273 105.377 92.497 105.446 92.706Z" fill="#FFFEFE" fill-opacity="0.52"/>
<path d="M65.7323 93.5885C65.458 94.0297 65.961 94.3316 66.7841 94.2388C67.8815 94.1459 67.8358 93.4956 66.7155 93.4027C66.2582 93.3563 65.8238 93.4492 65.7323 93.5885Z" fill="#FFFEFE" fill-opacity="0.52"/>
<path d="M106.566 93.6582C106.223 94.0994 106.475 94.2852 107.458 94.2852C107.915 94.2852 108.373 94.2155 108.441 94.1227C108.716 93.844 108.098 93.3563 107.458 93.3563C107.115 93.3563 106.704 93.4956 106.566 93.6582Z" fill="#FFFEFE" fill-opacity="0.52"/>
<path d="M78.0329 104.689L83.6802 110.425V145.561V180.675H86.881H90.0819V145.561V110.425L95.7292 104.689L101.399 98.9298H100.37H99.3416L94.8832 103.458C92.4368 105.943 90.3563 107.987 90.2648 107.987C90.1505 107.987 90.0819 105.943 90.0819 103.458V98.9298H86.881H83.6802V103.458C83.6802 105.943 83.6116 107.987 83.4973 107.987C83.4058 107.987 81.3252 105.943 78.8789 103.458L74.4205 98.9298H73.3916H72.3628L78.0329 104.689Z" fill="#FFFEFE" fill-opacity="0.52"/>
</g>
<defs>
<clipPath id="clip0_167_2">
<rect width="350" height="252" fill="white"/>
</clipPath>
</defs>
</svg>
